<svg width="700" height="280" xmlns="http://www.w3.org/2000/svg" xmlns:xlink="http://www.w3.org/1999/xlink"><defs><rect id="a" x="36" y="88" width="629" height="168" rx="43"/><mask id="s" x="-4" y="-4" width="637" height="176"><path fill="#fff" d="M32 84h637v176H32z"/><use xlink:href="#a"/></mask><linearGradient x1="50%" y1="0%" x2="50%" y2="100%" id="u"><stop stop-color="#FFF" offset="0%"/><stop stop-color="#DDD" offset="96.37%"/></linearGradient><rect id="t" width="629" height="168" rx="43"/><linearGradient x1="13.57%" y1="49.75%" x2="87.35%" y2="49.75%" id="w"><stop stop-color="#000BFF" offset="0%"/><stop stop-color="red" offset="100%"/></linearGradient><rect id="b" x="-9" y="-11" width="652" height="37" rx="18.5"/><mask id="x" x="0" y="0" width="652" height="37" fill="#fff"><use xlink:href="#b"/></mask><linearGradient x1="50%" y1="0%" x2="50%" y2="100%" id="z"><stop stop-color="#535353" offset="0%"/><stop stop-color="#001E41" offset="100%"/></linearGradient><rect id="c" x="89" y="121" width="81" height="60" rx="8"/><mask id="y" x="0" y="0" width="81" height="60" fill="#fff"><use xlink:href="#c"/></mask><rect id="d" x="254" y="121" width="81" height="60" rx="8"/><mask id="A" x="0" y="0" width="81" height="60" fill="#fff"><use xlink:href="#d"/></mask><rect id="e" x="350" y="121" width="81" height="60" rx="8"/><mask id="B" x="0" y="0" width="81" height="60" fill="#fff"><use xlink:href="#e"/></mask><rect id="f" x="445" y="121" width="81" height="60" rx="8"/><mask id="C" x="0" y="0" width="81" height="60" fill="#fff"><use xlink:href="#f"/></mask><rect id="g" x="612" y="121" width="57" height="84" rx="8"/><mask id="D" x="0" y="0" width="57" height="84" fill="#fff"><use xlink:href="#g"/></mask><rect id="h" x="182" y="121" width="62" height="139" rx="8"/><mask id="E" x="0" y="0" width="62" height="139" fill="#fff"><use xlink:href="#h"/></mask><linearGradient x1="50%" y1="0%" x2="50%" y2="100%" id="G"><stop stop-color="#4F4F4F" offset="0%"/><stop stop-color="#001E41" stop-opacity=".98" offset="100%"/></linearGradient><rect id="i" x="188" y="127" width="21" height="54" rx="6"/><mask id="F" x="0" y="0" width="21" height="54" fill="#fff"><use xlink:href="#i"/></mask><rect id="j" x="217" y="127" width="21" height="54" rx="6"/><mask id="H" x="0" y="0" width="21" height="54" fill="#fff"><use xlink:href="#j"/></mask><rect id="k" x="538" y="121" width="62" height="139" rx="8"/><mask id="I" x="0" y="0" width="62" height="139" fill="#fff"><use xlink:href="#k"/></mask><rect id="l" x="544" y="127" width="21" height="54" rx="6"/><mask id="J" x="0" y="0" width="21" height="54" fill="#fff"><use xlink:href="#l"/></mask><rect id="m" x="573" y="127" width="21" height="54" rx="6"/><mask id="K" x="0" y="0" width="21" height="54" fill="#fff"><use xlink:href="#m"/></mask><rect id="n" x="544" y="183" width="21" height="44.98" rx="6"/><mask id="L" x="0" y="0" width="21" height="44.98" fill="#fff"><use xlink:href="#n"/></mask><rect id="o" x="573" y="183" width="21" height="44.98" rx="6"/><mask id="M" x="0" y="0" width="21" height="44.98" fill="#fff"><use xlink:href="#o"/></mask><circle id="p" cx="139" cy="249" r="31"/><mask id="N" x="0" y="0" width="62" height="62" fill="#fff"><use xlink:href="#p"/></mask><circle id="q" cx="496" cy="249" r="31"/><mask id="O" x="0" y="0" width="62" height="62" fill="#fff"><use xlink:href="#q"/></mask><path d="M569.41 109s37.12-44.78 37.12-65.28a37.12 37.12 0 0 0-74.24 0c0 20.5 37.12 65.28 37.12 65.28z" id="r"/><mask id="P" x="0" y="0" width="74.24" height="102.39" fill="#fff"><use xlink:href="#r"/></mask></defs><g fill="none" fill-rule="evenodd"><use fill-opacity=".49" fill="#FA4141" xlink:href="#a"/><use stroke="#000" mask="url(#s)" stroke-width="8" xlink:href="#a"/><g transform="translate(36 88)"><mask id="v" fill="#fff"><use xlink:href="#t"/></mask><use fill="url(#u)" xlink:href="#t"/><g mask="url(#v)" stroke-width="8" stroke="#000" fill="url(#w)"><use mask="url(#x)" xlink:href="#b"/></g></g><use stroke="#000" mask="url(#y)" stroke-width="8" fill="url(#z)" xlink:href="#c"/><use stroke="#000" mask="url(#A)" stroke-width="8" fill="url(#z)" xlink:href="#d"/><use stroke="#000" mask="url(#B)" stroke-width="8" fill="url(#z)" xlink:href="#e"/><use stroke="#000" mask="url(#C)" stroke-width="8" fill="url(#z)" xlink:href="#f"/><path fill="#000" d="M449 130h74v17h-74z"/><use stroke="#000" mask="url(#D)" stroke-width="8" fill="url(#z)" xlink:href="#g"/><use stroke="#000" mask="url(#E)" stroke-width="8" fill="#FFF" xlink:href="#h"/><use stroke="#000" mask="url(#F)" stroke-width="8" fill="url(#G)" xlink:href="#i"/><use stroke="#000" mask="url(#H)" stroke-width="8" fill="url(#G)" xlink:href="#j"/><path d="M213 123v134" stroke="#000" stroke-width="4" stroke-linecap="square"/><use stroke="#000" mask="url(#I)" stroke-width="8" fill="#FFF" xlink:href="#k"/><use stroke="#000" mask="url(#J)" stroke-width="8" fill="url(#G)" xlink:href="#l"/><use stroke="#000" mask="url(#K)" stroke-width="8" fill="url(#G)" xlink:href="#m"/><use stroke="#000" mask="url(#L)" stroke-width="8" fill="url(#G)" xlink:href="#n"/><use stroke="#000" mask="url(#M)" stroke-width="8" fill="url(#G)" xlink:href="#o"/><path d="M569 123v134" stroke="#000" stroke-width="4" stroke-linecap="square"/><use stroke="#000" mask="url(#N)" stroke-width="8" fill="#8A8A8A" xlink:href="#p"/><path d="M139 229s5.94-.33 12.56 4.3 6.94 12.9 6.94 12.9M139 238s3.38-.16 6.12 2.1c2.74 2.25 3.38 6.28 3.38 6.28" stroke="#000" stroke-width="4"/><use stroke="#000" mask="url(#O)" stroke-width="8" fill="#8A8A8A" xlink:href="#q"/><use stroke="#000" mask="url(#P)" stroke-width="8" fill="#D0011B" xlink:href="#r"/><ellipse fill="#000" cx="569.05" cy="42.49" rx="18.38" ry="18.38"/><path d="M495.5 228.81s5.94-.33 12.56 4.3S515 246 515 246M495.5 237.63s3.38-.16 6.12 2.09S505 246 505 246" stroke="#000" stroke-width="4"/></g></svg>