<svg width="600" height="360" fill="none" xmlns="http://www.w3.org/2000/svg"><g clip-path="url(#clip0)" stroke-width="3"><path fill="#D0875E" stroke="#2C2C31" d="M334.084 189.851l19.032464-8.874983 70.57725 151.3534-19.032464 8.874983z"/><path d="M306.028 90.3847l27.778 20.7753c2.567 1.919 5.87 2.561 8.97 1.743l33.537-8.856c5.786-1.528 10.943 4.002 9.015 9.667l-11.174 32.838c-1.032 3.035-.622 6.375 1.114 9.07l18.786 29.159c3.241 5.031-.425 11.644-6.408 11.561l-34.684-.479c-3.205-.045-6.255 1.378-8.281 3.861l-21.927 26.878c-3.783 4.637-11.206 3.194-12.976-2.522l-10.262-33.135c-.948-3.062-3.243-5.523-6.231-6.682l-32.339-12.548c-5.578-2.165-6.5-9.671-1.611-13.121l28.342-19.998c2.619-1.848 4.251-4.791 4.43-7.992l1.941-34.6329c.335-5.9746 7.188-9.1703 11.98-5.5864z" fill="#D0BCEA" stroke="#2C2C31"/><circle cx="330.288" cy="156.865" r="25.5" transform="rotate(-25 330.288 156.865)" fill="#2C2C31" stroke="#2C2C31"/><path d="M321.948 167.374s7.933 1.818 16.161-2.019c8.227-3.836 11.934-11.082 11.934-11.082" stroke="#FF87A2" stroke-linecap="round" stroke-linejoin="bevel"/><path fill-rule="evenodd" clip-rule="evenodd" d="M307.691 165.195c4.004-1.867 5.737-6.627 3.87-10.631-1.868-4.005-6.628-5.737-10.632-3.87s-5.737 6.627-3.869 10.632c1.867 4.004 6.627 5.736 10.631 3.869zM351.194 144.91c4.004-1.868 5.737-6.628 3.87-10.632-1.868-4.004-6.628-5.737-10.632-3.869-4.004 1.867-5.737 6.627-3.869 10.631 1.867 4.004 6.627 5.737 10.631 3.87z" fill="#fff" stroke="#2C2C31"/><path stroke="#000" stroke-linecap="round" d="M351.416 210.457l27.47 58.91M373.035 237.89l27.471 58.91M395.49 300.242l16.483 35.346"/></g><defs><clipPath id="clip0"><path fill="#fff" d="M0 0h600v360H0z"/></clipPath></defs></svg>