<svg width="200" height="200" fill="none" xmlns="http://www.w3.org/2000/svg"><g clip-path="url(#clip0)" stroke-width="3"><path fill="#D0875E" stroke="#2C2C31" d="M143.084 109.851l19.032464-8.874983 70.57725 151.3534-19.032464 8.874983z"/><path d="M115.028 10.3847l27.778 20.7749c2.567 1.9198 5.87 2.5619 8.97 1.7434l33.537-8.8563c5.786-1.5278 10.943 4.0025 9.015 9.6675l-11.174 32.8382c-1.032 3.0346-.622 6.3747 1.114 9.0693l18.786 29.1593c3.241 5.031-.425 11.644-6.408 11.561l-34.684-.479c-3.205-.045-6.255 1.378-8.281 3.861l-21.927 26.878c-3.783 4.637-11.206 3.194-12.976-2.522l-10.262-33.135c-.948-3.062-3.243-5.523-6.231-6.682L69.9463 91.7146c-5.5787-2.1647-6.5002-9.6701-1.6109-13.1201l28.342-19.9987c2.619-1.848 4.2506-4.7913 4.4296-7.9917l1.941-34.633c.335-5.97461 7.188-9.17034 11.98-5.5864z" fill="#D0BCEA" stroke="#2C2C31"/><circle cx="139.288" cy="76.865" r="25.5" transform="rotate(-25 139.288 76.865)" fill="#2C2C31" stroke="#2C2C31"/><path d="M130.948 87.3743s7.933 1.8174 16.161-2.0191c8.227-3.8364 11.934-11.0821 11.934-11.0821" stroke="#FF87A2" stroke-linecap="round" stroke-linejoin="bevel"/><path fill-rule="evenodd" clip-rule="evenodd" d="M116.691 85.1952c4.004-1.8673 5.737-6.6271 3.87-10.6314-1.868-4.0044-6.628-5.7368-10.632-3.8696-4.004 1.8673-5.737 6.6271-3.869 10.6315 1.867 4.0043 6.627 5.7367 10.631 3.8695zM160.194 64.9095c4.004-1.8672 5.737-6.6271 3.87-10.6314-1.868-4.0043-6.628-5.7367-10.632-3.8695s-5.737 6.6271-3.869 10.6314c1.867 4.0043 6.627 5.7368 10.631 3.8695z" fill="#fff" stroke="#2C2C31"/><path stroke="#000" stroke-linecap="round" d="M160.416 130.457l27.47 58.91M182.035 157.89l27.471 58.91"/></g><defs><clipPath id="clip0"><path fill="#fff" d="M-200-80h600v360h-600z"/></clipPath></defs></svg>