<svg width="680" height="360" fill="none" xmlns="http://www.w3.org/2000/svg"><g clip-path="url(#clip0)"><rect x="355.98" y="128.03" width="37" height="37" rx="2.5" transform="rotate(-24 355.98 128.03)" fill="#8BB2E8" stroke="#2C2C31" stroke-width="3"/><path d="M371.83 143.96l9.242 3.548M381.732 147.761l4.909-24.625" stroke="#2C2C31" stroke-width="3" stroke-linecap="round"/><rect x="209.054" y="112.855" width="37" height="37" rx="2.5" transform="rotate(16 209.054 112.855)" fill="#8BB2E8" stroke="#2C2C31" stroke-width="3"/><path d="M210.956 135.247l4.799 8.658M216.098 144.524l19.589-15.709" stroke="#2C2C31" stroke-width="3" stroke-linecap="round"/><rect x="333.672" y="102.181" width="37" height="37" rx="2.5" transform="rotate(-7 333.672 102.181)" fill="#8BB2E8" stroke="#2C2C31" stroke-width="3"/><path d="M344.171 122.049l7.801 6.095M352.529 128.579l11.894-22.114" stroke="#2C2C31" stroke-width="3" stroke-linecap="round"/><rect x="266.799" y="122.7" width="37" height="37" rx="2.5" transform="rotate(-76 266.799 122.7)" fill="#8BB2E8" stroke="#2C2C31" stroke-width="3"/><path d="M289.11 120.018l8.486-5.099M298.202 114.555l-16.383-19.0289" stroke="#2C2C31" stroke-width="3" stroke-linecap="round"/><rect x="311.413" y="84.8371" width="37" height="37" rx="2.5" transform="rotate(15 311.413 84.8371)" fill="#8BB2E8" stroke="#2C2C31" stroke-width="3"/><path d="M313.706 107.192l4.949 8.573M319.009 116.378l19.312-16.049" stroke="#2C2C31" stroke-width="3" stroke-linecap="round"/><rect x="231.89" y="100.324" width="37" height="37" rx="2.5" transform="rotate(-18 231.89 100.324)" fill="#8BB2E8" stroke="#2C2C31" stroke-width="3"/><path d="M245.988 117.824l8.82 4.494M255.438 122.639l7.456-23.9773" stroke="#2C2C31" stroke-width="3" stroke-linecap="round"/><path fill-rule="evenodd" clip-rule="evenodd" d="M234.271 286s10.843-31.234 16.264-46.851c2.769-7.976 8.308-23.929 8.308-23.929-7.946-1.974-14.454-7.535-17.669-14.844-13.289-1.282-23.674-12.378-23.674-25.876 0-11.049 6.958-20.488 16.771-24.253-.179-1.224-.271-2.475-.271-3.747 0-14.359 11.753-26 26.25-26 4.653 0 9.023 1.199 12.812 3.302C277.475 115.59 286.203 110 296.25 110c9.563 0 17.932 5.066 22.521 12.635 4.743-4.132 10.944-6.635 17.729-6.635 14.912 0 27 12.088 27 27 0 .775-.033 1.543-.097 2.302 10.577 4 18.097 14.221 18.097 26.198 0 15.464-12.536 28-28 28-6.331 0-12.171-2.101-16.861-5.644-4.701 7.018-12.749 11.644-21.889 11.644-3.609 0-5.761-.48-11.75-1s-10.084 1.248-15.43 7.356c-2.611 2.982-8.751 14.848-15.551 28.807-8.463 17.374-17.949 37.99-22.923 48.749" fill="#E376B5"/><path d="M234.271 286s10.843-31.234 16.264-46.851c2.769-7.976 8.308-23.929 8.308-23.929-7.946-1.974-14.454-7.535-17.669-14.844-13.289-1.282-23.674-12.378-23.674-25.876 0-11.049 6.958-20.488 16.771-24.253-.179-1.224-.271-2.475-.271-3.747 0-14.359 11.753-26 26.25-26 4.653 0 9.023 1.199 12.812 3.302C277.475 115.59 286.203 110 296.25 110c9.563 0 17.932 5.066 22.521 12.635 4.743-4.132 10.944-6.635 17.729-6.635 14.912 0 27 12.088 27 27 0 .775-.033 1.543-.097 2.302 10.577 4 18.097 14.221 18.097 26.198 0 15.464-12.536 28-28 28-6.331 0-12.171-2.101-16.861-5.644-4.701 7.018-12.749 11.644-21.889 11.644-3.609 0-5.761-.48-11.75-1s-10.084 1.248-15.43 7.356c-2.611 2.982-8.751 14.848-15.551 28.807-8.463 17.374-17.949 37.99-22.923 48.749M258.843 215.22l6.657 1.28" stroke="#1F1D1B" stroke-width="3"/><path d="M241.174 200.376s11.944 2 20.385-1.876 14.441-12 14.441-12M234.271 150.247s1.81 6.253 6.903 9.253 15.169 2.302 15.169 2.302M363.493 144.296s-.231 4.694-2.006 8.58c-1.775 3.885-7.077 8.025-7.077 8.025M336.635 194.106c1.515-3.048 2.365-6.478 2.365-10.105 0-12.644-10.338-22.895-23.09-22.895-4.357 0-10.41 2.277-10.41 2.277M320.488 148.083c1.611-3.441 2.512-7.282 2.512-11.333 0-14.774-11.976-26.75-26.75-26.75s-26.75 11.976-26.75 26.75" stroke="#1F1D1B" stroke-width="3"/><mask id="a" fill="#fff"><path fill-rule="evenodd" clip-rule="evenodd" d="M370.579 167.875c-1.083-5.535-3.199-13.22-6.911-16.054-6.063-4.63-14.044-7.709-20.583.968-6.539 8.678-1.967 16.78 4.936 19.797 4.267 1.864 12.243 1.975 17.713 1.788 5.103 3.047 11.411 8.202 18.43 16.912-5.133-1.758-10.123-2.929-13.006-2.21-7.766 1.936-12.22 10.89-9.948 20 2.271 9.11 10.407 14.926 18.173 12.99 4.384-1.093 11.016-8.332 15.959-14.429 5.572 9.661 10.584 20.926 14.893 32.058-7.75-6.011-16.263-11.581-21.697-12.06-12.152-1.072-22.933 8.767-24.079 21.975-1.147 13.208 7.775 24.784 19.927 25.856 7.703.679 23.258-7.633 33.616-13.81 5.839 18.017 9.159 31.891 9.159 31.891l10.673-2.661s-3.78-15.187-10.203-34.413c8.347-4.796 30.95-18.435 34.589-27.48 4.478-11.134-1.87-24.208-14.18-29.203-12.309-4.996-25.919-.02-30.397 11.114-1.595 3.965-1.179 11.108.017 18.662-4.428-10.697-9.433-21.153-14.854-29.814 5.951-4.924 17.148-14.821 18.481-20.608 1.826-7.927-3.809-16-12.585-18.031-8.776-2.031-17.371 2.749-19.197 10.677-.675 2.929.462 7.916 2.164 13.041-7.707-8.641-15.114-13.837-21.09-16.956z"/></mask><path fill-rule="evenodd" clip-rule="evenodd" d="M370.579 167.875c-1.083-5.535-3.199-13.22-6.911-16.054-6.063-4.63-14.044-7.709-20.583.968-6.539 8.678-1.967 16.78 4.936 19.797 4.267 1.864 12.243 1.975 17.713 1.788 5.103 3.047 11.411 8.202 18.43 16.912-5.133-1.758-10.123-2.929-13.006-2.21-7.766 1.936-12.22 10.89-9.948 20 2.271 9.11 10.407 14.926 18.173 12.99 4.384-1.093 11.016-8.332 15.959-14.429 5.572 9.661 10.584 20.926 14.893 32.058-7.75-6.011-16.263-11.581-21.697-12.06-12.152-1.072-22.933 8.767-24.079 21.975-1.147 13.208 7.775 24.784 19.927 25.856 7.703.679 23.258-7.633 33.616-13.81 5.839 18.017 9.159 31.891 9.159 31.891l10.673-2.661s-3.78-15.187-10.203-34.413c8.347-4.796 30.95-18.435 34.589-27.48 4.478-11.134-1.87-24.208-14.18-29.203-12.309-4.996-25.919-.02-30.397 11.114-1.595 3.965-1.179 11.108.017 18.662-4.428-10.697-9.433-21.153-14.854-29.814 5.951-4.924 17.148-14.821 18.481-20.608 1.826-7.927-3.809-16-12.585-18.031-8.776-2.031-17.371 2.749-19.197 10.677-.675 2.929.462 7.916 2.164 13.041-7.707-8.641-15.114-13.837-21.09-16.956z" fill="#58DD98"/><path d="M370.579 167.875l-2.944.577.277 1.415 1.279.668 1.388-2.66zm-6.911-16.054l-1.82 2.385 1.82-2.385zm-20.583.968l-2.396-1.805 2.396 1.805zm4.936 19.797l-1.201 2.749 1.201-2.749zm17.713 1.788l1.538-2.576-.758-.452-.883.03.103 2.998zm18.43 16.912l-.971 2.838 9.822 3.362-6.515-8.083-2.336 1.883zm11.178 16.351l2.599-1.498-2.18-3.781-2.749 3.39 2.33 1.889zm14.893 32.058l-1.839 2.371 8.537 6.621-3.9-10.075-2.798 1.083zm-21.697-12.06l.263-2.989-.263 2.989zm-4.152 47.831l-.263 2.988.263-2.988zm33.616-13.81l2.853-.925-1.159-3.578-3.231 1.926 1.537 2.577zm9.159 31.891l-2.918.698.705 2.945 2.939-.732-.726-2.911zm10.673-2.661l.726 2.91 2.91-.725-.725-2.91-2.911.725zm-10.203-34.413l-1.495-2.601-2.128 1.223.778 2.329 2.845-.951zm34.589-27.48l-2.783-1.12 2.783 1.12zm-14.18-29.203l-1.128 2.779 1.128-2.779zm-30.397 11.114l-2.783-1.12 2.783 1.12zm.017 18.662l-2.771 1.148 5.734-1.617-2.963.469zm-14.854-29.814l-1.913-2.311-2.024 1.676 1.394 2.227 2.543-1.592zm18.481-20.608l-2.924-.673 2.924.673zm-12.585-18.031l.677-2.923-.677 2.923zm-19.197 10.677l-2.923-.673 2.923.673zm2.164 13.041l-2.239 1.997 5.086-2.943-2.847.946zm-18.146-17.532c-.558-2.85-1.396-6.339-2.61-9.53-1.169-3.074-2.869-6.381-5.424-8.332l-3.641 4.769c1.156.883 2.369 2.835 3.457 5.696 1.043 2.743 1.804 5.864 2.33 8.55l5.888-1.153zm-8.034-17.862c-3.201-2.444-7.279-4.786-11.712-5.114-4.712-.348-9.283 1.612-13.088 6.661l4.792 3.611c2.734-3.629 5.424-4.468 7.853-4.288 2.707.2 5.652 1.713 8.514 3.899l3.641-4.769zm-24.8 1.547c-3.789 5.028-4.565 10.249-3.016 14.794 1.505 4.417 5.061 7.772 9.147 9.557l2.402-5.498c-2.818-1.231-4.999-3.437-5.87-5.994-.828-2.43-.621-5.599 2.129-9.248l-4.792-3.611zm6.131 24.351c2.62 1.145 6.105 1.664 9.385 1.906 3.36.249 6.839.227 9.632.131l-.206-5.996c-2.677.092-5.921.108-8.983-.118-3.142-.233-5.779-.702-7.426-1.421l-2.402 5.498zm39.68 14.068c-7.208-8.944-13.776-14.35-19.228-17.605l-3.076 5.152c4.755 2.838 10.801 7.742 17.633 16.218l4.671-3.765zm-14.617 2.584c.797-.199 2.243-.188 4.38.214 2.054.386 4.435 1.069 6.93 1.923l1.943-5.676c-2.639-.904-5.32-1.685-7.765-2.144-2.362-.444-4.853-.659-6.939-.139l1.451 5.822zm-7.763 16.364c-1.983-7.956 2.024-14.933 7.763-16.364l-1.451-5.822c-9.792 2.441-14.692 13.373-12.133 23.637l5.821-1.451zm14.537 10.804c-5.739 1.431-12.553-2.849-14.537-10.804l-5.821 1.451c2.559 10.265 12.018 17.616 21.81 15.175l-1.452-5.822zm14.355-13.407c-2.436 3.005-5.241 6.23-7.935 8.815-1.348 1.292-2.624 2.381-3.775 3.193-1.185.836-2.069 1.255-2.645 1.399l1.452 5.822c1.616-.403 3.205-1.299 4.651-2.318 1.48-1.043 2.993-2.35 4.47-3.766 2.953-2.833 5.936-6.275 8.443-9.366l-4.661-3.779zm20.021 32.864c-4.341-11.211-9.416-22.631-15.092-32.473l-5.197 2.997c5.466 9.479 10.415 20.59 14.693 31.642l5.596-2.166zm-24.759-7.989c2.015.178 5.015 1.389 8.732 3.558 3.617 2.111 7.567 4.919 11.39 7.885l3.678-4.741c-3.928-3.046-8.109-6.029-12.044-8.326-3.836-2.239-7.81-4.051-11.229-4.353l-.527 5.977zm-20.827 19.246c1.024-11.795 10.557-20.152 20.827-19.246l.527-5.977c-14.034-1.237-26.062 10.084-27.331 24.705l5.977.518zm17.203 22.608c-10.275-.906-18.227-10.81-17.203-22.608l-5.977-.518c-1.269 14.618 8.623 27.866 22.653 29.103l.527-5.977zm31.815-13.398c-5.136 3.063-11.502 6.62-17.497 9.317-2.999 1.349-5.848 2.457-8.368 3.185-2.569.741-4.568 1.018-5.95.896l-.527 5.977c2.469.218 5.303-.29 8.141-1.109 2.887-.833 6.018-2.061 9.165-3.477 6.298-2.833 12.888-6.521 18.109-9.635l-3.073-5.154zm10.696 34.468c2.918-.698 2.918-.699 2.917-.699v-.001-.002c-.001-.002-.002-.005-.002-.009-.002-.007-.005-.018-.008-.033-.007-.028-.017-.07-.03-.124-.027-.11-.066-.271-.118-.482-.104-.421-.258-1.041-.462-1.839-.406-1.597-1.008-3.911-1.793-6.789-1.569-5.756-3.872-13.775-6.81-22.838l-5.707 1.85c2.902 8.954 5.178 16.88 6.729 22.566.775 2.842 1.368 5.123 1.767 6.69.199.784.35 1.389.45 1.796.05.204.088.359.113.461.012.052.022.09.028.115.003.013.005.022.006.028.001.003.002.005.002.007v.001l2.918-.698zm9.947-5.572l-10.673 2.661 1.452 5.822 10.673-2.662-1.452-5.821zm-12.322-30.551c3.192 9.557 5.729 18.113 7.468 24.279.869 3.082 1.537 5.565 1.988 7.274.226.855.397 1.516.511 1.962.057.224.1.393.128.505.015.057.025.099.032.127.004.014.006.024.008.031.001.003.001.005.002.007v.001l2.911-.724c2.911-.725 2.911-.725 2.911-.726 0-.001 0-.002-.001-.003 0-.002-.001-.005-.002-.01-.002-.008-.005-.019-.009-.035-.008-.031-.019-.076-.034-.136-.03-.119-.075-.295-.134-.525-.117-.459-.292-1.134-.521-2.004-.459-1.739-1.136-4.254-2.016-7.372-1.757-6.234-4.322-14.884-7.552-24.552l-5.69 1.901zm34.651-29.551c-.66 1.639-2.358 3.821-5.05 6.381-2.624 2.495-5.93 5.108-9.447 7.637-7.028 5.053-14.664 9.603-18.804 11.981l2.989 5.202c4.209-2.418 12.047-7.085 19.317-12.312 3.633-2.611 7.181-5.403 10.079-8.16 2.83-2.691 5.322-5.606 6.482-8.49l-5.566-2.239zm-12.525-25.304c11.049 4.484 16.282 15.963 12.525 25.304l5.566 2.239c5.2-12.925-2.264-27.596-15.835-33.102l-2.256 5.559zm-26.486 9.454c3.754-9.332 15.441-13.936 26.486-9.454l2.256-5.559c-13.574-5.509-29.105-.16-34.308 12.774l5.566 2.239zm.197 17.074c-.586-3.701-.968-7.225-1.019-10.258-.052-3.104.251-5.397.822-6.816l-5.566-2.239c-1.025 2.547-1.311 5.808-1.255 9.156.057 3.417.482 7.243 1.092 11.096l5.926-.939zm-20.36-27.753c5.299 8.465 10.23 18.754 14.626 29.37l5.543-2.296c-4.462-10.777-9.54-21.402-15.083-30.257l-5.086 3.183zm18.1-22.873c-.194.842-.85 2.147-2.111 3.871-1.216 1.663-2.822 3.486-4.624 5.338-3.6 3.7-7.793 7.327-10.735 9.761l3.825 4.623c3.01-2.491 7.391-6.275 11.211-10.201 1.907-1.961 3.723-4.005 5.166-5.979 1.4-1.914 2.643-4.016 3.115-6.066l-5.847-1.347zm-10.337-14.435c7.45 1.724 11.729 8.393 10.337 14.435l5.847 1.347c2.261-9.814-4.729-19.29-14.831-21.628l-1.353 5.846zm-15.597 8.427c1.391-6.038 8.148-10.151 15.597-8.427l1.353-5.846c-10.104-2.338-20.536 3.11-22.797 12.927l5.847 1.346zm2.087 11.422c-.827-2.49-1.491-4.873-1.869-6.938-.392-2.14-.415-3.628-.218-4.484l-5.847-1.346c-.478 2.074-.27 4.544.163 6.91.447 2.442 1.202 5.115 2.076 7.749l5.695-1.891zm-25.325-13.35c5.658 2.953 12.776 7.926 20.239 16.293l4.477-3.994c-7.95-8.914-15.647-14.333-21.94-17.618l-2.776 5.319z" fill="#2C2C31" mask="url(#a)"/><path d="M428.254 246.139l18.946-43.887M414.668 253.649l-46.32-8.033M410.844 163.908l-8.746 22.793M363.037 207.777l24.499-5.078M345.123 154.529l13.975 8.516" stroke="#2C2C31" stroke-width="3" stroke-linecap="round"/><path fill-rule="evenodd" clip-rule="evenodd" d="M120 86.3518c-5.377 9.2977-15.408 15.5502-26.894 15.5502-17.1594 0-31.0699-13.954-31.0699-31.1677 0-9.5056 4.2418-18.0174 10.9303-23.7343C57.4031 51.4174 46 65.7725 46 82.7994 46 103.345 62.6028 120 83.0834 120 102.37 120 118.217 105.231 120 86.3518z" fill="#FFEA56"/></g><defs><clipPath id="clip0"><path fill="#fff" d="M0 0h680v360H0z"/></clipPath></defs></svg>