<svg width="680" height="360" viewBox="0 0 680 360" fill="none" xmlns="http://www.w3.org/2000/svg">
<g clip-path="url(#clip0)">
<rect x="355.98" y="128.03" width="37" height="37" rx="2.5" transform="rotate(-24 355.98 128.03)" fill="#8BB2E8" stroke="#2C2C31" stroke-width="3"/>
<path d="M371.83 143.96L381.072 147.508" stroke="#2C2C31" stroke-width="3" stroke-linecap="round"/>
<path d="M381.732 147.761L386.641 123.136" stroke="#2C2C31" stroke-width="3" stroke-linecap="round"/>
<rect x="209.054" y="112.855" width="37" height="37" rx="2.5" transform="rotate(16 209.054 112.855)" fill="#8BB2E8" stroke="#2C2C31" stroke-width="3"/>
<path d="M210.956 135.247L215.755 143.905" stroke="#2C2C31" stroke-width="3" stroke-linecap="round"/>
<path d="M216.098 144.524L235.687 128.815" stroke="#2C2C31" stroke-width="3" stroke-linecap="round"/>
<rect x="333.672" y="102.181" width="37" height="37" rx="2.5" transform="rotate(-7 333.672 102.181)" fill="#8BB2E8" stroke="#2C2C31" stroke-width="3"/>
<path d="M344.171 122.049L351.972 128.144" stroke="#2C2C31" stroke-width="3" stroke-linecap="round"/>
<path d="M352.529 128.579L364.423 106.465" stroke="#2C2C31" stroke-width="3" stroke-linecap="round"/>
<rect x="266.799" y="122.7" width="37" height="37" rx="2.5" transform="rotate(-76 266.799 122.7)" fill="#8BB2E8" stroke="#2C2C31" stroke-width="3"/>
<path d="M289.11 120.018L297.596 114.919" stroke="#2C2C31" stroke-width="3" stroke-linecap="round"/>
<path d="M298.202 114.555L281.819 95.5261" stroke="#2C2C31" stroke-width="3" stroke-linecap="round"/>
<rect x="311.413" y="84.8371" width="37" height="37" rx="2.5" transform="rotate(15 311.413 84.8371)" fill="#8BB2E8" stroke="#2C2C31" stroke-width="3"/>
<path d="M313.706 107.192L318.655 115.765" stroke="#2C2C31" stroke-width="3" stroke-linecap="round"/>
<path d="M319.009 116.378L338.321 100.329" stroke="#2C2C31" stroke-width="3" stroke-linecap="round"/>
<rect x="231.89" y="100.324" width="37" height="37" rx="2.5" transform="rotate(-18 231.89 100.324)" fill="#8BB2E8" stroke="#2C2C31" stroke-width="3"/>
<path d="M245.988 117.824L254.808 122.318" stroke="#2C2C31" stroke-width="3" stroke-linecap="round"/>
<path d="M255.438 122.639L262.894 98.6617" stroke="#2C2C31" stroke-width="3" stroke-linecap="round"/>
<path fill-rule="evenodd" clip-rule="evenodd" d="M234.271 286C234.271 286 245.114 254.766 250.535 239.149C253.304 231.173 258.843 215.22 258.843 215.22C250.897 213.246 244.389 207.685 241.174 200.376C227.885 199.094 217.5 187.998 217.5 174.5C217.5 163.451 224.458 154.012 234.271 150.247C234.092 149.023 234 147.772 234 146.5C234 132.141 245.753 120.5 260.25 120.5C264.903 120.5 269.273 121.699 273.062 123.802C277.475 115.59 286.203 110 296.25 110C305.813 110 314.182 115.066 318.771 122.635C323.514 118.503 329.715 116 336.5 116C351.412 116 363.5 128.088 363.5 143C363.5 143.775 363.467 144.543 363.403 145.302C373.98 149.302 381.5 159.523 381.5 171.5C381.5 186.964 368.964 199.5 353.5 199.5C347.169 199.5 341.329 197.399 336.639 193.856C331.938 200.874 323.89 205.5 314.75 205.5C311.141 205.5 308.989 205.02 303 204.5C297.011 203.98 292.916 205.748 287.57 211.856C284.959 214.838 278.819 226.704 272.019 240.663C263.556 258.037 254.07 278.653 249.096 289.412" fill="#E376B5"/>
<path d="M234.271 286C234.271 286 245.114 254.766 250.535 239.149C253.304 231.173 258.843 215.22 258.843 215.22C250.897 213.246 244.389 207.685 241.174 200.376C227.885 199.094 217.5 187.998 217.5 174.5C217.5 163.451 224.458 154.012 234.271 150.247C234.092 149.023 234 147.772 234 146.5C234 132.141 245.753 120.5 260.25 120.5C264.903 120.5 269.273 121.699 273.062 123.802C277.475 115.59 286.203 110 296.25 110C305.813 110 314.182 115.066 318.771 122.635C323.514 118.503 329.715 116 336.5 116C351.412 116 363.5 128.088 363.5 143C363.5 143.775 363.467 144.543 363.403 145.302C373.98 149.302 381.5 159.523 381.5 171.5C381.5 186.964 368.964 199.5 353.5 199.5C347.169 199.5 341.329 197.399 336.639 193.856C331.938 200.874 323.89 205.5 314.75 205.5C311.141 205.5 308.989 205.02 303 204.5C297.011 203.98 292.916 205.748 287.57 211.856C284.959 214.838 278.819 226.704 272.019 240.663C263.556 258.037 254.07 278.653 249.096 289.412" stroke="#1F1D1B" stroke-width="3"/>
<path d="M258.843 215.22L265.5 216.5" stroke="#1F1D1B" stroke-width="3"/>
<path d="M241.174 200.376C241.174 200.376 253.118 202.376 261.559 198.5C270 194.624 276 186.5 276 186.5" stroke="#1F1D1B" stroke-width="3"/>
<path d="M234.271 150.247C234.271 150.247 236.081 156.5 241.174 159.5C246.267 162.5 256.343 161.802 256.343 161.802" stroke="#1F1D1B" stroke-width="3"/>
<path d="M363.493 144.296C363.493 144.296 363.262 148.99 361.487 152.876C359.712 156.761 354.41 160.901 354.41 160.901" stroke="#1F1D1B" stroke-width="3"/>
<path d="M336.635 194.106C338.15 191.058 339 187.628 339 184.001C339 171.357 328.662 161.106 315.91 161.106C311.553 161.106 305.5 163.383 305.5 163.383" stroke="#1F1D1B" stroke-width="3"/>
<path d="M320.488 148.083C322.099 144.642 323 140.801 323 136.75C323 121.976 311.024 110 296.25 110C281.476 110 269.5 121.976 269.5 136.75" stroke="#1F1D1B" stroke-width="3"/>
<mask id="path-29-inside-1" fill="white">
<path fill-rule="evenodd" clip-rule="evenodd" d="M370.579 167.875C369.496 162.34 367.38 154.655 363.668 151.821C357.605 147.191 349.624 144.112 343.085 152.789C336.546 161.467 341.118 169.569 348.021 172.586C352.288 174.45 360.264 174.561 365.734 174.374C370.837 177.421 377.145 182.576 384.164 191.286C379.031 189.528 374.041 188.357 371.158 189.076C363.392 191.012 358.938 199.966 361.21 209.076C363.481 218.186 371.617 224.002 379.383 222.066C383.767 220.973 390.399 213.734 395.342 207.637C400.914 217.298 405.926 228.563 410.235 239.695C402.485 233.684 393.972 228.114 388.538 227.635C376.386 226.563 365.605 236.402 364.459 249.61C363.312 262.818 372.234 274.394 384.386 275.466C392.089 276.145 407.644 267.833 418.002 261.656C423.841 279.673 427.161 293.547 427.161 293.547L437.834 290.886C437.834 290.886 434.054 275.699 427.631 256.473C435.978 251.677 458.581 238.038 462.22 228.993C466.698 217.859 460.35 204.785 448.04 199.79C435.731 194.794 422.121 199.77 417.643 210.904C416.048 214.869 416.464 222.012 417.66 229.566C413.232 218.869 408.227 208.413 402.806 199.752C408.757 194.828 419.954 184.931 421.287 179.144C423.113 171.217 417.478 163.144 408.702 161.113C399.926 159.082 391.331 163.862 389.505 171.79C388.83 174.719 389.967 179.706 391.669 184.831C383.962 176.19 376.555 170.994 370.579 167.875Z"/>
</mask>
<path fill-rule="evenodd" clip-rule="evenodd" d="M370.579 167.875C369.496 162.34 367.38 154.655 363.668 151.821C357.605 147.191 349.624 144.112 343.085 152.789C336.546 161.467 341.118 169.569 348.021 172.586C352.288 174.45 360.264 174.561 365.734 174.374C370.837 177.421 377.145 182.576 384.164 191.286C379.031 189.528 374.041 188.357 371.158 189.076C363.392 191.012 358.938 199.966 361.21 209.076C363.481 218.186 371.617 224.002 379.383 222.066C383.767 220.973 390.399 213.734 395.342 207.637C400.914 217.298 405.926 228.563 410.235 239.695C402.485 233.684 393.972 228.114 388.538 227.635C376.386 226.563 365.605 236.402 364.459 249.61C363.312 262.818 372.234 274.394 384.386 275.466C392.089 276.145 407.644 267.833 418.002 261.656C423.841 279.673 427.161 293.547 427.161 293.547L437.834 290.886C437.834 290.886 434.054 275.699 427.631 256.473C435.978 251.677 458.581 238.038 462.22 228.993C466.698 217.859 460.35 204.785 448.04 199.79C435.731 194.794 422.121 199.77 417.643 210.904C416.048 214.869 416.464 222.012 417.66 229.566C413.232 218.869 408.227 208.413 402.806 199.752C408.757 194.828 419.954 184.931 421.287 179.144C423.113 171.217 417.478 163.144 408.702 161.113C399.926 159.082 391.331 163.862 389.505 171.79C388.83 174.719 389.967 179.706 391.669 184.831C383.962 176.19 376.555 170.994 370.579 167.875Z" fill="#58DD98"/>
<path d="M370.579 167.875L367.635 168.452L367.912 169.867L369.191 170.535L370.579 167.875ZM363.668 151.821L361.848 154.206L363.668 151.821ZM343.085 152.789L340.689 150.984L340.689 150.984L343.085 152.789ZM348.021 172.586L346.82 175.335L346.82 175.335L348.021 172.586ZM365.734 174.374L367.272 171.798L366.514 171.346L365.631 171.376L365.734 174.374ZM384.164 191.286L383.193 194.124L393.015 197.486L386.5 189.403L384.164 191.286ZM395.342 207.637L397.941 206.139L395.761 202.358L393.012 205.748L395.342 207.637ZM410.235 239.695L408.396 242.066L416.933 248.687L413.033 238.612L410.235 239.695ZM388.538 227.635L388.801 224.646L388.801 224.646L388.538 227.635ZM384.386 275.466L384.123 278.454L384.123 278.454L384.386 275.466ZM418.002 261.656L420.855 260.731L419.696 257.153L416.465 259.079L418.002 261.656ZM427.161 293.547L424.243 294.245L424.948 297.19L427.887 296.458L427.161 293.547ZM437.834 290.886L438.56 293.796L441.47 293.071L440.745 290.161L437.834 290.886ZM427.631 256.473L426.136 253.872L424.008 255.095L424.786 257.424L427.631 256.473ZM462.22 228.993L459.437 227.873L462.22 228.993ZM448.04 199.79L446.912 202.569L446.912 202.569L448.04 199.79ZM417.643 210.904L414.86 209.784L417.643 210.904ZM417.66 229.566L414.889 230.714L420.623 229.097L417.66 229.566ZM402.806 199.752L400.893 197.441L398.869 199.117L400.263 201.344L402.806 199.752ZM421.287 179.144L418.363 178.471L418.363 178.471L421.287 179.144ZM408.702 161.113L409.379 158.19L408.702 161.113ZM389.505 171.79L386.582 171.117L389.505 171.79ZM391.669 184.831L389.43 186.828L394.516 183.885L391.669 184.831ZM373.523 167.299C372.965 164.449 372.127 160.96 370.913 157.769C369.744 154.695 368.044 151.388 365.489 149.437L361.848 154.206C363.004 155.089 364.217 157.041 365.305 159.902C366.348 162.645 367.109 165.766 367.635 168.452L373.523 167.299ZM365.489 149.437C362.288 146.993 358.21 144.651 353.777 144.323C349.065 143.975 344.494 145.935 340.689 150.984L345.481 154.595C348.215 150.966 350.905 150.127 353.334 150.307C356.041 150.507 358.986 152.02 361.848 154.206L365.489 149.437ZM340.689 150.984C336.9 156.012 336.124 161.233 337.673 165.778C339.178 170.195 342.734 173.55 346.82 175.335L349.222 169.837C346.404 168.606 344.223 166.4 343.352 163.843C342.524 161.413 342.731 158.244 345.481 154.595L340.689 150.984ZM346.82 175.335C349.44 176.48 352.925 176.999 356.205 177.241C359.565 177.49 363.044 177.468 365.837 177.372L365.631 171.376C362.954 171.468 359.71 171.484 356.648 171.258C353.506 171.025 350.869 170.556 349.222 169.837L346.82 175.335ZM386.5 189.403C379.292 180.459 372.724 175.053 367.272 171.798L364.196 176.95C368.951 179.788 374.997 184.692 381.829 193.168L386.5 189.403ZM371.883 191.987C372.68 191.788 374.126 191.799 376.263 192.201C378.317 192.587 380.698 193.27 383.193 194.124L385.136 188.448C382.497 187.544 379.816 186.763 377.371 186.304C375.009 185.86 372.518 185.645 370.432 186.165L371.883 191.987ZM364.12 208.351C362.137 200.395 366.144 193.418 371.883 191.987L370.432 186.165C360.64 188.606 355.74 199.538 358.299 209.802L364.12 208.351ZM378.657 219.155C372.918 220.586 366.104 216.306 364.12 208.351L358.299 209.802C360.858 220.067 370.317 227.418 380.109 224.977L378.657 219.155ZM393.012 205.748C390.576 208.753 387.771 211.978 385.077 214.563C383.729 215.855 382.453 216.944 381.302 217.756C380.117 218.592 379.233 219.011 378.657 219.155L380.109 224.977C381.725 224.574 383.314 223.678 384.76 222.659C386.24 221.616 387.753 220.309 389.23 218.893C392.183 216.06 395.166 212.618 397.673 209.527L393.012 205.748ZM413.033 238.612C408.692 227.401 403.617 215.981 397.941 206.139L392.744 209.136C398.21 218.615 403.159 229.726 407.437 240.778L413.033 238.612ZM388.274 230.623C390.289 230.801 393.289 232.012 397.006 234.181C400.623 236.292 404.573 239.1 408.396 242.066L412.074 237.325C408.146 234.279 403.965 231.296 400.03 228.999C396.194 226.76 392.22 224.948 388.801 224.646L388.274 230.623ZM367.447 249.869C368.471 238.074 378.004 229.717 388.274 230.623L388.801 224.646C374.767 223.409 362.739 234.73 361.47 249.351L367.447 249.869ZM384.65 272.477C374.375 271.571 366.423 261.667 367.447 249.869L361.47 249.351C360.201 263.969 370.093 277.217 384.123 278.454L384.65 272.477ZM416.465 259.079C411.329 262.142 404.963 265.699 398.968 268.396C395.969 269.745 393.12 270.853 390.6 271.581C388.031 272.322 386.032 272.599 384.65 272.477L384.123 278.454C386.592 278.672 389.426 278.164 392.264 277.345C395.151 276.512 398.282 275.284 401.429 273.868C407.727 271.035 414.317 267.347 419.538 264.233L416.465 259.079ZM427.161 293.547C430.079 292.849 430.079 292.848 430.078 292.848C430.078 292.848 430.078 292.848 430.078 292.847C430.078 292.847 430.078 292.846 430.078 292.845C430.077 292.843 430.076 292.84 430.076 292.836C430.074 292.829 430.071 292.818 430.068 292.803C430.061 292.775 430.051 292.733 430.038 292.679C430.011 292.569 429.972 292.408 429.92 292.197C429.816 291.776 429.662 291.156 429.458 290.358C429.052 288.761 428.45 286.447 427.665 283.569C426.096 277.813 423.793 269.794 420.855 260.731L415.148 262.581C418.05 271.535 420.326 279.461 421.877 285.147C422.652 287.989 423.245 290.27 423.644 291.837C423.843 292.621 423.994 293.226 424.094 293.633C424.144 293.837 424.182 293.992 424.207 294.094C424.219 294.146 424.229 294.184 424.235 294.209C424.238 294.222 424.24 294.231 424.241 294.237C424.242 294.24 424.243 294.242 424.243 294.244C424.243 294.244 424.243 294.245 424.243 294.245C424.243 294.245 424.243 294.245 424.243 294.245C424.243 294.245 424.243 294.245 427.161 293.547ZM437.108 287.975L426.435 290.636L427.887 296.458L438.56 293.796L437.108 287.975ZM424.786 257.424C427.978 266.981 430.515 275.537 432.254 281.703C433.123 284.785 433.791 287.268 434.242 288.977C434.468 289.832 434.639 290.493 434.753 290.939C434.81 291.163 434.853 291.332 434.881 291.444C434.896 291.501 434.906 291.543 434.913 291.571C434.917 291.585 434.919 291.595 434.921 291.602C434.922 291.605 434.922 291.607 434.923 291.609C434.923 291.609 434.923 291.61 434.923 291.61C434.923 291.61 434.923 291.61 434.923 291.61C434.923 291.61 434.923 291.61 437.834 290.886C440.745 290.161 440.745 290.161 440.745 290.16C440.745 290.16 440.745 290.16 440.745 290.16C440.745 290.159 440.745 290.158 440.744 290.157C440.744 290.155 440.743 290.152 440.742 290.147C440.74 290.139 440.737 290.128 440.733 290.112C440.725 290.081 440.714 290.036 440.699 289.976C440.669 289.857 440.624 289.681 440.565 289.451C440.448 288.992 440.273 288.317 440.044 287.447C439.585 285.708 438.908 283.193 438.028 280.075C436.271 273.841 433.706 265.191 430.476 255.523L424.786 257.424ZM459.437 227.873C458.777 229.512 457.079 231.694 454.387 234.254C451.763 236.749 448.457 239.362 444.94 241.891C437.912 246.944 430.276 251.494 426.136 253.872L429.125 259.074C433.334 256.656 441.172 251.989 448.442 246.762C452.075 244.151 455.623 241.359 458.521 238.602C461.351 235.911 463.843 232.996 465.003 230.112L459.437 227.873ZM446.912 202.569C457.961 207.053 463.194 218.532 459.437 227.873L465.003 230.112C470.203 217.187 462.739 202.516 449.168 197.01L446.912 202.569ZM420.426 212.023C424.18 202.691 435.867 198.087 446.912 202.569L449.168 197.01C435.594 191.501 420.063 196.85 414.86 209.784L420.426 212.023ZM420.623 229.097C420.037 225.396 419.655 221.872 419.604 218.839C419.552 215.735 419.855 213.442 420.426 212.023L414.86 209.784C413.835 212.331 413.549 215.592 413.605 218.94C413.662 222.357 414.087 226.183 414.697 230.036L420.623 229.097ZM400.263 201.344C405.562 209.809 410.493 220.098 414.889 230.714L420.432 228.418C415.97 217.641 410.892 207.016 405.349 198.161L400.263 201.344ZM418.363 178.471C418.169 179.313 417.513 180.618 416.252 182.342C415.036 184.005 413.43 185.828 411.628 187.68C408.028 191.38 403.835 195.007 400.893 197.441L404.718 202.064C407.728 199.573 412.109 195.789 415.929 191.863C417.836 189.902 419.652 187.858 421.095 185.884C422.495 183.97 423.738 181.868 424.21 179.818L418.363 178.471ZM408.026 164.036C415.476 165.76 419.755 172.429 418.363 178.471L424.21 179.818C426.471 170.004 419.481 160.528 409.379 158.19L408.026 164.036ZM392.429 172.463C393.82 166.425 400.577 162.312 408.026 164.036L409.379 158.19C399.275 155.852 388.843 161.3 386.582 171.117L392.429 172.463ZM394.516 183.885C393.689 181.395 393.025 179.012 392.647 176.947C392.255 174.807 392.232 173.319 392.429 172.463L386.582 171.117C386.104 173.191 386.312 175.661 386.745 178.027C387.192 180.469 387.947 183.142 388.821 185.776L394.516 183.885ZM369.191 170.535C374.849 173.488 381.967 178.461 389.43 186.828L393.907 182.834C385.957 173.92 378.26 168.501 371.967 165.216L369.191 170.535Z" fill="#2C2C31" mask="url(#path-29-inside-1)"/>
<path d="M428.254 246.139L447.2 202.252" stroke="#2C2C31" stroke-width="3" stroke-linecap="round"/>
<path d="M414.668 253.649L368.348 245.616" stroke="#2C2C31" stroke-width="3" stroke-linecap="round"/>
<path d="M410.844 163.908L402.098 186.701" stroke="#2C2C31" stroke-width="3" stroke-linecap="round"/>
<path d="M363.037 207.777L387.536 202.699" stroke="#2C2C31" stroke-width="3" stroke-linecap="round"/>
<path d="M345.123 154.529L359.098 163.045" stroke="#2C2C31" stroke-width="3" stroke-linecap="round"/>
<path fill-rule="evenodd" clip-rule="evenodd" d="M120 86.3518C114.623 95.6495 104.592 101.902 93.106 101.902C75.9466 101.902 62.0361 87.948 62.0361 70.7343C62.0361 61.2287 66.2779 52.7169 72.9664 47C57.4031 51.4174 46 65.7725 46 82.7994C46 103.345 62.6028 120 83.0834 120C102.37 120 118.217 105.231 120 86.3518Z" fill="#FFEA56"/>
</g>
<defs>
<clipPath id="clip0">
<rect width="680" height="360" fill="white"/>
</clipPath>
</defs>
</svg>
