<svg width="200" height="200" fill="none" xmlns="http://www.w3.org/2000/svg"><g clip-path="url(#clip0)"><rect x="115.98" y="48.0297" width="37" height="37" rx="2.5" transform="rotate(-24 115.98 48.0297)" fill="#8BB2E8" stroke="#2C2C31" stroke-width="3"/><path d="M131.83 63.9603l9.242 3.5476M141.732 67.7613l4.909-24.6254" stroke="#2C2C31" stroke-width="3" stroke-linecap="round"/><rect x="-30.9461" y="32.8553" width="37" height="37" rx="2.5" transform="rotate(16 -30.9461 32.8553)" fill="#8BB2E8" stroke="#2C2C31" stroke-width="3"/><rect x="93.6716" y="22.1808" width="37" height="37" rx="2.5" transform="rotate(-7 93.6716 22.1808)" fill="#8BB2E8" stroke="#2C2C31" stroke-width="3"/><path d="M104.171 42.0493l7.801 6.0947M112.529 48.5794l11.894-22.1143" stroke="#2C2C31" stroke-width="3" stroke-linecap="round"/><rect x="26.7987" y="42.6996" width="37" height="37" rx="2.5" transform="rotate(-76 26.7987 42.6996)" fill="#8BB2E8" stroke="#2C2C31" stroke-width="3"/><path d="M49.1103 40.0176l8.4855-5.0986M58.2019 34.5548L41.8187 15.5261" stroke="#2C2C31" stroke-width="3" stroke-linecap="round"/><rect x="71.4134" y="4.83712" width="37" height="37" rx="2.5" transform="rotate(15 71.4134 4.83712)" fill="#8BB2E8" stroke="#2C2C31" stroke-width="3"/><path d="M73.7056 27.1921l4.9498 8.5732M79.0089 36.3777l19.3117-16.0486" stroke="#2C2C31" stroke-width="3" stroke-linecap="round"/><rect x="-8.10989" y="20.3237" width="37" height="37" rx="2.5" transform="rotate(-18 -8.10989 20.3237)" fill="#8BB2E8" stroke="#2C2C31" stroke-width="3"/><path d="M5.98792 37.8238l8.82048 4.4942M15.4385 42.6391l7.4554-23.9774" stroke="#2C2C31" stroke-width="3" stroke-linecap="round"/><path fill-rule="evenodd" clip-rule="evenodd" d="M-5.72942 206s10.84321-31.234 16.26482-46.851c2.769-7.976 8.3071-23.929 8.3071-23.929-7.9451-1.974-14.45337-7.535-17.66868-14.844C-12.1145 119.094-22.5 107.998-22.5 94.5c0-11.0487 6.958-20.4878 16.77058-24.253C-5.90772 69.0235-6 67.7724-6 66.5c0-14.3594 11.75253-26 26.25-26 4.6527 0 9.0228 1.199 12.8123 3.302C37.4747 35.5904 46.2032 30 56.25 30c9.5635 0 17.9325 5.0655 22.5213 12.6355C83.5144 38.5028 89.7149 36 96.5 36c14.912 0 27 12.0883 27 27 0 .7753-.033 1.543-.097 2.3017C133.98 69.3018 141.5 79.5227 141.5 91.5c0 15.464-12.536 28-28 28-6.331 0-12.171-2.101-16.8609-5.644C91.9383 120.874 83.8896 125.5 74.75 125.5c-3.6087 0-5.761-.48-11.75-1s-10.0838 1.248-15.4305 7.356c-2.6101 2.982-8.7501 14.848-15.5501 28.807-8.4636 17.374-17.9495 37.99-22.92384 48.749" fill="#E376B5"/><path d="M-5.72942 206s10.84321-31.234 16.26482-46.851c2.769-7.976 8.3071-23.929 8.3071-23.929-7.9451-1.974-14.45337-7.535-17.66868-14.844C-12.1145 119.094-22.5 107.998-22.5 94.5c0-11.0487 6.958-20.4878 16.77058-24.253C-5.90772 69.0235-6 67.7724-6 66.5c0-14.3594 11.75253-26 26.25-26 4.6527 0 9.0228 1.199 12.8123 3.302C37.4747 35.5904 46.2032 30 56.25 30c9.5635 0 17.9325 5.0655 22.5213 12.6355C83.5144 38.5028 89.7149 36 96.5 36c14.912 0 27 12.0883 27 27 0 .7753-.033 1.543-.097 2.3017C133.98 69.3018 141.5 79.5227 141.5 91.5c0 15.464-12.536 28-28 28-6.331 0-12.171-2.101-16.8609-5.644C91.9383 120.874 83.8896 125.5 74.75 125.5c-3.6087 0-5.761-.48-11.75-1s-10.0838 1.248-15.4305 7.356c-2.6101 2.982-8.7501 14.848-15.5501 28.807-8.4636 17.374-17.9495 37.99-22.92384 48.749M18.8426 135.22L25.5 136.5" stroke="#1F1D1B" stroke-width="3"/><path d="M1.17383 120.376s11.94417 2 20.38517-1.876C30 114.624 36 106.5 36 106.5M-5.7294 70.247S-3.91919 76.5 1.17384 79.5c5.09304 3 15.16876 2.3017 15.16876 2.3017M123.493 64.2964s-.231 4.6936-2.006 8.5792c-1.775 3.8856-7.077 8.0259-7.077 8.0259M96.6355 114.106C98.1495 111.058 99 107.628 99 104.001c0-12.6444-10.3376-22.895-23.0898-22.895-4.3573 0-10.4102 2.277-10.4102 2.277M80.4875 68.0834C82.0994 64.6421 83 60.8012 83 56.75 83 41.9764 71.0236 30 56.25 30S29.5 41.9764 29.5 56.75" stroke="#1F1D1B" stroke-width="3"/><mask id="a" fill="#fff"><path fill-rule="evenodd" clip-rule="evenodd" d="M130.579 87.8753c-1.083-5.5355-3.199-13.2199-6.911-16.0538-6.063-4.6301-14.044-7.7099-20.583.9676-6.5386 8.6775-1.967 16.7804 4.936 19.7969 4.267 1.8644 12.243 1.9754 17.713 1.7882 5.103 3.0463 11.411 8.2018 18.43 16.9118-5.133-1.758-10.123-2.929-13.006-2.21-7.766 1.936-12.22 10.89-9.948 20 2.271 9.11 10.407 14.926 18.173 12.99 4.384-1.093 11.016-8.332 15.959-14.429 5.572 9.661 10.584 20.926 14.893 32.058-7.75-6.011-16.263-11.581-21.697-12.06-12.152-1.072-22.933 8.767-24.079 21.975-1.147 13.208 7.775 24.784 19.927 25.856 7.703.679 23.258-7.633 33.616-13.81 5.839 18.017 9.159 31.891 9.159 31.891l10.673-2.661s-3.78-15.187-10.203-34.413c8.347-4.796 30.95-18.435 34.589-27.48 4.478-11.134-1.87-24.208-14.18-29.203-12.309-4.996-25.919-.02-30.397 11.114-1.595 3.965-1.179 11.108.017 18.662-4.428-10.697-9.433-21.153-14.854-29.814 5.951-4.924 17.148-14.821 18.481-20.6078 1.826-7.9276-3.809-16.0006-12.585-18.0314-8.776-2.0308-17.371 2.7495-19.197 10.6772-.675 2.9293.462 7.9165 2.164 13.041-7.707-8.6406-15.114-13.8366-21.09-16.9557z"/></mask><path fill-rule="evenodd" clip-rule="evenodd" d="M130.579 87.8753c-1.083-5.5355-3.199-13.2199-6.911-16.0538-6.063-4.6301-14.044-7.7099-20.583.9676-6.5386 8.6775-1.967 16.7804 4.936 19.7969 4.267 1.8644 12.243 1.9754 17.713 1.7882 5.103 3.0463 11.411 8.2018 18.43 16.9118-5.133-1.758-10.123-2.929-13.006-2.21-7.766 1.936-12.22 10.89-9.948 20 2.271 9.11 10.407 14.926 18.173 12.99 4.384-1.093 11.016-8.332 15.959-14.429 5.572 9.661 10.584 20.926 14.893 32.058-7.75-6.011-16.263-11.581-21.697-12.06-12.152-1.072-22.933 8.767-24.079 21.975-1.147 13.208 7.775 24.784 19.927 25.856 7.703.679 23.258-7.633 33.616-13.81 5.839 18.017 9.159 31.891 9.159 31.891l10.673-2.661s-3.78-15.187-10.203-34.413c8.347-4.796 30.95-18.435 34.589-27.48 4.478-11.134-1.87-24.208-14.18-29.203-12.309-4.996-25.919-.02-30.397 11.114-1.595 3.965-1.179 11.108.017 18.662-4.428-10.697-9.433-21.153-14.854-29.814 5.951-4.924 17.148-14.821 18.481-20.6078 1.826-7.9276-3.809-16.0006-12.585-18.0314-8.776-2.0308-17.371 2.7495-19.197 10.6772-.675 2.9293.462 7.9165 2.164 13.041-7.707-8.6406-15.114-13.8366-21.09-16.9557z" fill="#58DD98"/><path d="M130.579 87.8753l-2.944.5762.277 1.4158 1.279.6675 1.388-2.6595zm-6.911-16.0538l-1.82 2.3843 1.82-2.3843zm-20.583.9676l-2.396-1.8054 2.396 1.8054zm4.936 19.7969l-1.201 2.749 1.201-2.749zm17.713 1.7882l1.538-2.576-.758-.4525-.883.0302.103 2.9983zm18.43 16.9118l-.971 2.838 9.822 3.362-6.515-8.083-2.336 1.883zm11.178 16.351l2.599-1.498-2.18-3.781-2.749 3.39 2.33 1.889zm14.893 32.058l-1.839 2.371 8.537 6.621-3.9-10.075-2.798 1.083zm-21.697-12.06l.263-2.989-.263 2.989zm-4.152 47.831l-.263 2.988.263-2.988zm33.616-13.81l2.853-.925-1.159-3.578-3.231 1.926 1.537 2.577zm9.159 31.891l-2.918.698.705 2.945 2.939-.732-.726-2.911zm10.673-2.661l.726 2.91 2.91-.725-.725-2.91-2.911.725zm-10.203-34.413l-1.495-2.601-2.128 1.223.778 2.329 2.845-.951zm34.589-27.48l-2.783-1.12 2.783 1.12zm-14.18-29.203l-1.128 2.779 1.128-2.779zm-30.397 11.114l-2.783-1.12 2.783 1.12zm.017 18.662l-2.771 1.148 5.734-1.617-2.963.469zm-14.854-29.814l-1.913-2.311-2.024 1.676 1.394 2.227 2.543-1.592zm18.481-20.6078l-2.924-.6734 2.924.6734zm-12.585-18.0314l.677-2.9228-.677 2.9228zM149.505 91.79l-2.923-.6734 2.923.6734zm2.164 13.041l-2.239 1.997 5.086-2.943-2.847.946zm-18.146-17.5319c-.558-2.8496-1.396-6.3392-2.61-9.5301-1.169-3.0741-2.869-6.381-5.424-8.3318l-3.641 4.7686c1.156.8831 2.369 2.8354 3.457 5.6958 1.043 2.7437 1.804 5.8641 2.33 8.5499l5.888-1.1524zm-8.034-17.8619c-3.201-2.4447-7.279-4.7862-11.712-5.1141-4.712-.3484-9.283 1.6115-13.088 6.6606l4.792 3.6108c2.734-3.6284 5.424-4.4674 7.853-4.2877 2.707.2002 5.652 1.7135 8.514 3.899l3.641-4.7686zm-24.8 1.5465c-3.7886 5.0281-4.5653 10.2488-3.0163 14.7944 1.5053 4.4174 5.0613 7.7717 9.1473 9.5569l2.402-5.498c-2.818-1.2314-4.999-3.4367-5.87-5.9942-.828-2.4294-.621-5.5989 2.129-9.2483l-4.792-3.6108zm6.131 24.3513c2.62 1.1449 6.105 1.6637 9.385 1.9063 3.36.2484 6.839.2267 9.632.1311l-.206-5.9965c-2.677.0917-5.921.1081-8.983-.1183-3.142-.2322-5.779-.7011-7.426-1.4206l-2.402 5.498zm39.68 14.068c-7.208-8.944-13.776-14.3501-19.228-17.6048l-3.076 5.1519c4.755 2.838 10.801 7.7419 17.633 16.2179l4.671-3.765zm-14.617 2.584c.797-.199 2.243-.188 4.38.214 2.054.386 4.435 1.069 6.93 1.923l1.943-5.676c-2.639-.904-5.32-1.685-7.765-2.144-2.362-.444-4.853-.659-6.939-.139l1.451 5.822zm-7.763 16.364c-1.983-7.956 2.024-14.933 7.763-16.364l-1.451-5.822c-9.792 2.441-14.692 13.373-12.133 23.637l5.821-1.451zm14.537 10.804c-5.739 1.431-12.553-2.849-14.537-10.804l-5.821 1.451c2.559 10.265 12.018 17.616 21.81 15.175l-1.452-5.822zm14.355-13.407c-2.436 3.005-5.241 6.23-7.935 8.815-1.348 1.292-2.624 2.381-3.775 3.193-1.185.836-2.069 1.255-2.645 1.399l1.452 5.822c1.616-.403 3.205-1.299 4.651-2.318 1.48-1.043 2.993-2.35 4.47-3.766 2.953-2.833 5.936-6.275 8.443-9.366l-4.661-3.779zm20.021 32.864c-4.341-11.211-9.416-22.631-15.092-32.473l-5.197 2.997c5.466 9.479 10.415 20.59 14.693 31.642l5.596-2.166zm-24.759-7.989c2.015.178 5.015 1.389 8.732 3.558 3.617 2.111 7.567 4.919 11.39 7.885l3.678-4.741c-3.928-3.046-8.109-6.029-12.044-8.326-3.836-2.239-7.81-4.051-11.229-4.353l-.527 5.977zm-20.827 19.246c1.024-11.795 10.557-20.152 20.827-19.246l.527-5.977c-14.034-1.237-26.062 10.084-27.331 24.705l5.977.518zm17.203 22.608c-10.275-.906-18.227-10.81-17.203-22.608l-5.977-.518c-1.269 14.618 8.623 27.866 22.653 29.103l.527-5.977zm31.815-13.398c-5.136 3.063-11.502 6.62-17.497 9.317-2.999 1.349-5.848 2.457-8.368 3.185-2.569.741-4.568 1.018-5.95.896l-.527 5.977c2.469.218 5.303-.29 8.141-1.109 2.887-.833 6.018-2.061 9.165-3.477 6.298-2.833 12.888-6.521 18.109-9.635l-3.073-5.154zm10.696 34.468c2.918-.698 2.918-.699 2.917-.699v-.001-.002c-.001-.002-.002-.005-.002-.009-.002-.007-.005-.018-.008-.033-.007-.028-.017-.07-.03-.124-.027-.11-.066-.271-.118-.482-.104-.421-.258-1.041-.462-1.839-.406-1.597-1.008-3.911-1.793-6.789-1.569-5.756-3.872-13.775-6.81-22.838l-5.707 1.85c2.902 8.954 5.178 16.88 6.729 22.566.775 2.842 1.368 5.123 1.767 6.69.199.784.35 1.389.45 1.796.05.204.088.359.113.461.012.052.022.09.028.115.003.013.005.022.006.028.001.003.002.005.002.007v.001l2.918-.698zm9.947-5.572l-10.673 2.661 1.452 5.822 10.673-2.662-1.452-5.821zm-12.322-30.551c3.192 9.557 5.729 18.113 7.468 24.279.869 3.082 1.537 5.565 1.988 7.274.226.855.397 1.516.511 1.962.057.224.1.393.128.505.015.057.025.099.032.127.004.014.006.024.008.031.001.003.001.005.002.007v.001l2.911-.724c2.911-.725 2.911-.725 2.911-.726 0-.001 0-.002-.001-.003 0-.002-.001-.005-.002-.01-.002-.008-.005-.019-.009-.035-.008-.031-.019-.076-.034-.136-.03-.119-.075-.295-.134-.525-.117-.459-.292-1.134-.521-2.004-.459-1.739-1.136-4.254-2.016-7.372-1.757-6.234-4.322-14.884-7.552-24.552l-5.69 1.901zm34.651-29.551c-.66 1.639-2.358 3.821-5.05 6.381-2.624 2.495-5.93 5.108-9.447 7.637-7.028 5.053-14.664 9.603-18.804 11.981l2.989 5.202c4.209-2.418 12.047-7.085 19.317-12.312 3.633-2.611 7.181-5.403 10.079-8.16 2.83-2.691 5.322-5.606 6.482-8.49l-5.566-2.239zm-12.525-25.304c11.049 4.484 16.282 15.963 12.525 25.304l5.566 2.239c5.2-12.925-2.264-27.596-15.835-33.102l-2.256 5.559zm-26.486 9.454c3.754-9.332 15.441-13.936 26.486-9.454l2.256-5.559c-13.574-5.509-29.105-.16-34.308 12.774l5.566 2.239zm.197 17.074c-.586-3.701-.968-7.225-1.019-10.258-.052-3.104.251-5.397.822-6.816l-5.566-2.239c-1.025 2.547-1.311 5.808-1.255 9.156.057 3.417.482 7.243 1.092 11.096l5.926-.939zm-20.36-27.753c5.299 8.465 10.23 18.754 14.626 29.37l5.543-2.296c-4.462-10.777-9.54-21.402-15.083-30.257l-5.086 3.183zm18.1-22.8732c-.194.8425-.85 2.1472-2.111 3.8712-1.216 1.663-2.822 3.486-4.624 5.338-3.6 3.7-7.793 7.327-10.735 9.761l3.825 4.623c3.01-2.491 7.391-6.275 11.211-10.201 1.907-1.961 3.723-4.005 5.166-5.979 1.4-1.914 2.643-4.016 3.115-6.0664l-5.847-1.3468zm-10.337-14.4352c7.45 1.7239 11.729 8.3938 10.337 14.4352l5.847 1.3468c2.261-9.8139-4.729-19.2899-14.831-21.6276l-1.353 5.8456zm-15.597 8.4277c1.391-6.0383 8.148-10.1513 15.597-8.4277l1.353-5.8456c-10.104-2.338-20.536 3.1096-22.797 12.9266l5.847 1.3467zm2.087 11.4217c-.827-2.49-1.491-4.873-1.869-6.9379-.392-2.1404-.415-3.6285-.218-4.4838l-5.847-1.3467c-.478 2.0741-.27 4.5442.163 6.9108.447 2.4416 1.202 5.1146 2.076 7.7486l5.695-1.891zm-25.325-13.3502c5.658 2.9533 12.776 7.9259 20.239 16.2932l4.477-3.994c-7.95-8.914-15.647-14.3333-21.94-17.6182l-2.776 5.319z" fill="#2C2C31" mask="url(#a)"/><path d="M188.254 166.139l18.946-43.887M174.668 173.649l-46.32-8.033M170.844 83.908l-8.746 22.793M123.037 127.777l24.499-5.078M105.123 74.5288l13.975 8.5161" stroke="#2C2C31" stroke-width="3" stroke-linecap="round"/></g><defs><clipPath id="clip0"><path fill="#fff" d="M-240-80h680v360h-680z"/></clipPath></defs></svg>