<svg width="200" height="200" viewBox="0 0 200 200" fill="none" xmlns="http://www.w3.org/2000/svg">
<g clip-path="url(#clip0)">
<rect x="115.98" y="48.0297" width="37" height="37" rx="2.5" transform="rotate(-24 115.98 48.0297)" fill="#8BB2E8" stroke="#2C2C31" stroke-width="3"/>
<path d="M131.83 63.9603L141.072 67.5079" stroke="#2C2C31" stroke-width="3" stroke-linecap="round"/>
<path d="M141.732 67.7613L146.641 43.1359" stroke="#2C2C31" stroke-width="3" stroke-linecap="round"/>
<rect x="-30.9461" y="32.8553" width="37" height="37" rx="2.5" transform="rotate(16 -30.9461 32.8553)" fill="#8BB2E8" stroke="#2C2C31" stroke-width="3"/>
<rect x="93.6716" y="22.1808" width="37" height="37" rx="2.5" transform="rotate(-7 93.6716 22.1808)" fill="#8BB2E8" stroke="#2C2C31" stroke-width="3"/>
<path d="M104.171 42.0493L111.972 48.144" stroke="#2C2C31" stroke-width="3" stroke-linecap="round"/>
<path d="M112.529 48.5794L124.423 26.4651" stroke="#2C2C31" stroke-width="3" stroke-linecap="round"/>
<rect x="26.7987" y="42.6996" width="37" height="37" rx="2.5" transform="rotate(-76 26.7987 42.6996)" fill="#8BB2E8" stroke="#2C2C31" stroke-width="3"/>
<path d="M49.1103 40.0176L57.5958 34.919" stroke="#2C2C31" stroke-width="3" stroke-linecap="round"/>
<path d="M58.2019 34.5548L41.8187 15.5261" stroke="#2C2C31" stroke-width="3" stroke-linecap="round"/>
<rect x="71.4134" y="4.83712" width="37" height="37" rx="2.5" transform="rotate(15 71.4134 4.83712)" fill="#8BB2E8" stroke="#2C2C31" stroke-width="3"/>
<path d="M73.7056 27.1921L78.6554 35.7653" stroke="#2C2C31" stroke-width="3" stroke-linecap="round"/>
<path d="M79.0089 36.3777L98.3206 20.3291" stroke="#2C2C31" stroke-width="3" stroke-linecap="round"/>
<rect x="-8.10989" y="20.3237" width="37" height="37" rx="2.5" transform="rotate(-18 -8.10989 20.3237)" fill="#8BB2E8" stroke="#2C2C31" stroke-width="3"/>
<path d="M5.98792 37.8238L14.8084 42.318" stroke="#2C2C31" stroke-width="3" stroke-linecap="round"/>
<path d="M15.4385 42.6391L22.8939 18.6617" stroke="#2C2C31" stroke-width="3" stroke-linecap="round"/>
<path fill-rule="evenodd" clip-rule="evenodd" d="M-5.72942 206C-5.72942 206 5.11379 174.766 10.5354 159.149C13.3044 151.173 18.8425 135.22 18.8425 135.22C10.8974 133.246 4.38913 127.685 1.17382 120.376C-12.1145 119.094 -22.5 107.998 -22.5 94.5C-22.5 83.4513 -15.542 74.0122 -5.72942 70.247C-5.90772 69.0235 -6 67.7724 -6 66.5C-6 52.1406 5.75253 40.5 20.25 40.5C24.9027 40.5 29.2728 41.699 33.0623 43.802C37.4747 35.5904 46.2032 30 56.25 30C65.8135 30 74.1825 35.0655 78.7713 42.6355C83.5144 38.5028 89.7149 36 96.5 36C111.412 36 123.5 48.0883 123.5 63C123.5 63.7753 123.467 64.543 123.403 65.3017C133.98 69.3018 141.5 79.5227 141.5 91.5C141.5 106.964 128.964 119.5 113.5 119.5C107.169 119.5 101.329 117.399 96.6391 113.856C91.9383 120.874 83.8896 125.5 74.75 125.5C71.1413 125.5 68.989 125.02 63 124.5C57.011 123.98 52.9162 125.748 47.5695 131.856C44.9594 134.838 38.8194 146.704 32.0194 160.663C23.5558 178.037 14.0699 198.653 9.09556 209.412" fill="#E376B5"/>
<path d="M-5.72942 206C-5.72942 206 5.11379 174.766 10.5354 159.149C13.3044 151.173 18.8425 135.22 18.8425 135.22C10.8974 133.246 4.38913 127.685 1.17382 120.376C-12.1145 119.094 -22.5 107.998 -22.5 94.5C-22.5 83.4513 -15.542 74.0122 -5.72942 70.247C-5.90772 69.0235 -6 67.7724 -6 66.5C-6 52.1406 5.75253 40.5 20.25 40.5C24.9027 40.5 29.2728 41.699 33.0623 43.802C37.4747 35.5904 46.2032 30 56.25 30C65.8135 30 74.1825 35.0655 78.7713 42.6355C83.5144 38.5028 89.7149 36 96.5 36C111.412 36 123.5 48.0883 123.5 63C123.5 63.7753 123.467 64.543 123.403 65.3017C133.98 69.3018 141.5 79.5227 141.5 91.5C141.5 106.964 128.964 119.5 113.5 119.5C107.169 119.5 101.329 117.399 96.6391 113.856C91.9383 120.874 83.8896 125.5 74.75 125.5C71.1413 125.5 68.989 125.02 63 124.5C57.011 123.98 52.9162 125.748 47.5695 131.856C44.9594 134.838 38.8194 146.704 32.0194 160.663C23.5558 178.037 14.0699 198.653 9.09556 209.412" stroke="#1F1D1B" stroke-width="3"/>
<path d="M18.8426 135.22L25.5 136.5" stroke="#1F1D1B" stroke-width="3"/>
<path d="M1.17383 120.376C1.17383 120.376 13.118 122.376 21.559 118.5C30 114.624 36 106.5 36 106.5" stroke="#1F1D1B" stroke-width="3"/>
<path d="M-5.7294 70.247C-5.7294 70.247 -3.91919 76.5 1.17384 79.5C6.26688 82.5 16.3426 81.8017 16.3426 81.8017" stroke="#1F1D1B" stroke-width="3"/>
<path d="M123.493 64.2964C123.493 64.2964 123.262 68.99 121.487 72.8756C119.712 76.7612 114.41 80.9015 114.41 80.9015" stroke="#1F1D1B" stroke-width="3"/>
<path d="M96.6355 114.106C98.1495 111.058 99 107.628 99 104.001C99 91.3566 88.6624 81.106 75.9102 81.106C71.5529 81.106 65.5 83.383 65.5 83.383" stroke="#1F1D1B" stroke-width="3"/>
<path d="M80.4875 68.0834C82.0994 64.6421 83 60.8012 83 56.75C83 41.9764 71.0236 30 56.25 30C41.4764 30 29.5 41.9764 29.5 56.75" stroke="#1F1D1B" stroke-width="3"/>
<mask id="path-27-inside-1" fill="white">
<path fill-rule="evenodd" clip-rule="evenodd" d="M130.579 87.8753C129.496 82.3398 127.38 74.6554 123.668 71.8215C117.605 67.1914 109.624 64.1116 103.085 72.7891C96.5464 81.4666 101.118 89.5695 108.021 92.586C112.288 94.4504 120.264 94.5614 125.734 94.3742C130.837 97.4205 137.145 102.576 144.164 111.286C139.031 109.528 134.041 108.357 131.158 109.076C123.392 111.012 118.938 119.966 121.21 129.076C123.481 138.186 131.617 144.002 139.383 142.066C143.767 140.973 150.399 133.734 155.342 127.637C160.914 137.298 165.926 148.563 170.235 159.695C162.485 153.684 153.972 148.114 148.538 147.635C136.386 146.563 125.605 156.402 124.459 169.61C123.312 182.818 132.234 194.394 144.386 195.466C152.089 196.145 167.644 187.833 178.002 181.656C183.841 199.673 187.161 213.547 187.161 213.547L197.834 210.886C197.834 210.886 194.054 195.699 187.631 176.473C195.978 171.677 218.581 158.038 222.22 148.993C226.698 137.859 220.35 124.785 208.04 119.79C195.731 114.794 182.121 119.77 177.643 130.904C176.048 134.869 176.464 142.012 177.66 149.566C173.232 138.869 168.227 128.413 162.806 119.752C168.757 114.828 179.954 104.931 181.287 99.1442C183.113 91.2166 177.478 83.1436 168.702 81.1128C159.926 79.082 151.331 83.8623 149.505 91.79C148.83 94.7193 149.967 99.7065 151.669 104.831C143.962 96.1904 136.555 90.9944 130.579 87.8753Z"/>
</mask>
<path fill-rule="evenodd" clip-rule="evenodd" d="M130.579 87.8753C129.496 82.3398 127.38 74.6554 123.668 71.8215C117.605 67.1914 109.624 64.1116 103.085 72.7891C96.5464 81.4666 101.118 89.5695 108.021 92.586C112.288 94.4504 120.264 94.5614 125.734 94.3742C130.837 97.4205 137.145 102.576 144.164 111.286C139.031 109.528 134.041 108.357 131.158 109.076C123.392 111.012 118.938 119.966 121.21 129.076C123.481 138.186 131.617 144.002 139.383 142.066C143.767 140.973 150.399 133.734 155.342 127.637C160.914 137.298 165.926 148.563 170.235 159.695C162.485 153.684 153.972 148.114 148.538 147.635C136.386 146.563 125.605 156.402 124.459 169.61C123.312 182.818 132.234 194.394 144.386 195.466C152.089 196.145 167.644 187.833 178.002 181.656C183.841 199.673 187.161 213.547 187.161 213.547L197.834 210.886C197.834 210.886 194.054 195.699 187.631 176.473C195.978 171.677 218.581 158.038 222.22 148.993C226.698 137.859 220.35 124.785 208.04 119.79C195.731 114.794 182.121 119.77 177.643 130.904C176.048 134.869 176.464 142.012 177.66 149.566C173.232 138.869 168.227 128.413 162.806 119.752C168.757 114.828 179.954 104.931 181.287 99.1442C183.113 91.2166 177.478 83.1436 168.702 81.1128C159.926 79.082 151.331 83.8623 149.505 91.79C148.83 94.7193 149.967 99.7065 151.669 104.831C143.962 96.1904 136.555 90.9944 130.579 87.8753Z" fill="#58DD98"/>
<path d="M130.579 87.8753L127.635 88.4515L127.912 89.8673L129.191 90.5348L130.579 87.8753ZM123.668 71.8215L121.848 74.2058L123.668 71.8215ZM103.085 72.7891L100.689 70.9837L100.689 70.9837L103.085 72.7891ZM108.021 92.586L106.82 95.335L106.82 95.335L108.021 92.586ZM125.734 94.3742L127.272 91.7982L126.514 91.3457L125.631 91.3759L125.734 94.3742ZM144.164 111.286L143.193 114.124L153.015 117.486L146.5 109.403L144.164 111.286ZM155.342 127.637L157.941 126.139L155.761 122.358L153.012 125.748L155.342 127.637ZM170.235 159.695L168.396 162.066L176.933 168.687L173.033 158.612L170.235 159.695ZM148.538 147.635L148.801 144.646L148.801 144.646L148.538 147.635ZM144.386 195.466L144.123 198.454L144.123 198.454L144.386 195.466ZM178.002 181.656L180.855 180.731L179.696 177.153L176.465 179.079L178.002 181.656ZM187.161 213.547L184.243 214.245L184.948 217.19L187.887 216.458L187.161 213.547ZM197.834 210.886L198.56 213.796L201.47 213.071L200.745 210.161L197.834 210.886ZM187.631 176.473L186.136 173.872L184.008 175.095L184.786 177.424L187.631 176.473ZM222.22 148.993L219.437 147.873L222.22 148.993ZM208.04 119.79L206.912 122.569L206.912 122.569L208.04 119.79ZM177.643 130.904L174.86 129.784L177.643 130.904ZM177.66 149.566L174.889 150.714L180.623 149.097L177.66 149.566ZM162.806 119.752L160.893 117.441L158.869 119.117L160.263 121.344L162.806 119.752ZM181.287 99.1442L178.363 98.4708L178.363 98.4708L181.287 99.1442ZM168.702 81.1128L169.379 78.19L168.702 81.1128ZM149.505 91.79L146.582 91.1166L149.505 91.79ZM151.669 104.831L149.43 106.828L154.516 103.885L151.669 104.831ZM133.523 87.2991C132.965 84.4495 132.127 80.9599 130.913 77.769C129.744 74.6949 128.044 71.388 125.489 69.4372L121.848 74.2058C123.004 75.0889 124.217 77.0412 125.305 79.9016C126.348 82.6453 127.109 85.7657 127.635 88.4515L133.523 87.2991ZM125.489 69.4372C122.288 66.9925 118.21 64.651 113.777 64.3231C109.065 63.9747 104.494 65.9346 100.689 70.9837L105.481 74.5945C108.215 70.9661 110.905 70.1271 113.334 70.3068C116.041 70.507 118.986 72.0203 121.848 74.2058L125.489 69.4372ZM100.689 70.9837C96.9004 76.0118 96.1237 81.2325 97.6727 85.7781C99.178 90.1955 102.734 93.5498 106.82 95.335L109.222 89.837C106.404 88.6056 104.223 86.4003 103.352 83.8428C102.524 81.4134 102.731 78.2439 105.481 74.5945L100.689 70.9837ZM106.82 95.335C109.44 96.4799 112.925 96.9987 116.205 97.2413C119.565 97.4897 123.044 97.468 125.837 97.3724L125.631 91.3759C122.954 91.4676 119.71 91.484 116.648 91.2576C113.506 91.0254 110.869 90.5565 109.222 89.837L106.82 95.335ZM146.5 109.403C139.292 100.459 132.724 95.0529 127.272 91.7982L124.196 96.9501C128.951 99.7881 134.997 104.692 141.829 113.168L146.5 109.403ZM131.883 111.987C132.68 111.788 134.126 111.799 136.263 112.201C138.317 112.587 140.698 113.27 143.193 114.124L145.136 108.448C142.497 107.544 139.816 106.763 137.371 106.304C135.009 105.86 132.518 105.645 130.432 106.165L131.883 111.987ZM124.12 128.351C122.137 120.395 126.144 113.418 131.883 111.987L130.432 106.165C120.64 108.606 115.74 119.538 118.299 129.802L124.12 128.351ZM138.657 139.155C132.918 140.586 126.104 136.306 124.12 128.351L118.299 129.802C120.858 140.067 130.317 147.418 140.109 144.977L138.657 139.155ZM153.012 125.748C150.576 128.753 147.771 131.978 145.077 134.563C143.729 135.855 142.453 136.944 141.302 137.756C140.117 138.592 139.233 139.011 138.657 139.155L140.109 144.977C141.725 144.574 143.314 143.678 144.76 142.659C146.24 141.616 147.753 140.309 149.23 138.893C152.183 136.06 155.166 132.618 157.673 129.527L153.012 125.748ZM173.033 158.612C168.692 147.401 163.617 135.981 157.941 126.139L152.744 129.136C158.21 138.615 163.159 149.726 167.437 160.778L173.033 158.612ZM148.274 150.623C150.289 150.801 153.289 152.012 157.006 154.181C160.623 156.292 164.573 159.1 168.396 162.066L172.074 157.325C168.146 154.279 163.965 151.296 160.03 148.999C156.194 146.76 152.22 144.948 148.801 144.646L148.274 150.623ZM127.447 169.869C128.471 158.074 138.004 149.717 148.274 150.623L148.801 144.646C134.767 143.409 122.739 154.73 121.47 169.351L127.447 169.869ZM144.65 192.477C134.375 191.571 126.423 181.667 127.447 169.869L121.47 169.351C120.201 183.969 130.093 197.217 144.123 198.454L144.65 192.477ZM176.465 179.079C171.329 182.142 164.963 185.699 158.968 188.396C155.969 189.745 153.12 190.853 150.6 191.581C148.031 192.322 146.032 192.599 144.65 192.477L144.123 198.454C146.592 198.672 149.426 198.164 152.264 197.345C155.151 196.512 158.282 195.284 161.429 193.868C167.727 191.035 174.317 187.347 179.538 184.233L176.465 179.079ZM187.161 213.547C190.079 212.849 190.079 212.848 190.078 212.848C190.078 212.848 190.078 212.848 190.078 212.847C190.078 212.847 190.078 212.846 190.078 212.845C190.077 212.843 190.076 212.84 190.076 212.836C190.074 212.829 190.071 212.818 190.068 212.803C190.061 212.775 190.051 212.733 190.038 212.679C190.011 212.569 189.972 212.408 189.92 212.197C189.816 211.776 189.662 211.156 189.458 210.358C189.052 208.761 188.45 206.447 187.665 203.569C186.096 197.813 183.793 189.794 180.855 180.731L175.148 182.581C178.05 191.535 180.326 199.461 181.877 205.147C182.652 207.989 183.245 210.27 183.644 211.837C183.843 212.621 183.994 213.226 184.094 213.633C184.144 213.837 184.182 213.992 184.207 214.094C184.219 214.146 184.229 214.184 184.235 214.209C184.238 214.222 184.24 214.231 184.241 214.237C184.242 214.24 184.243 214.242 184.243 214.244C184.243 214.244 184.243 214.245 184.243 214.245C184.243 214.245 184.243 214.245 184.243 214.245C184.243 214.245 184.243 214.245 187.161 213.547ZM197.108 207.975L186.435 210.636L187.887 216.458L198.56 213.796L197.108 207.975ZM184.786 177.424C187.978 186.981 190.515 195.537 192.254 201.703C193.123 204.785 193.791 207.268 194.242 208.977C194.468 209.832 194.639 210.493 194.753 210.939C194.81 211.163 194.853 211.332 194.881 211.444C194.896 211.501 194.906 211.543 194.913 211.571C194.917 211.585 194.919 211.595 194.921 211.602C194.922 211.605 194.922 211.607 194.923 211.609C194.923 211.609 194.923 211.61 194.923 211.61C194.923 211.61 194.923 211.61 194.923 211.61C194.923 211.61 194.923 211.61 197.834 210.886C200.745 210.161 200.745 210.161 200.745 210.16C200.745 210.16 200.745 210.16 200.745 210.16C200.745 210.159 200.745 210.158 200.744 210.157C200.744 210.155 200.743 210.152 200.742 210.147C200.74 210.139 200.737 210.128 200.733 210.112C200.725 210.081 200.714 210.036 200.699 209.976C200.669 209.857 200.624 209.681 200.565 209.451C200.448 208.992 200.273 208.317 200.044 207.447C199.585 205.708 198.908 203.193 198.028 200.075C196.271 193.841 193.706 185.191 190.476 175.523L184.786 177.424ZM219.437 147.873C218.777 149.512 217.079 151.694 214.387 154.254C211.763 156.749 208.457 159.362 204.94 161.891C197.912 166.944 190.276 171.494 186.136 173.872L189.125 179.074C193.334 176.656 201.172 171.989 208.442 166.762C212.075 164.151 215.623 161.359 218.521 158.602C221.351 155.911 223.843 152.996 225.003 150.112L219.437 147.873ZM206.912 122.569C217.961 127.053 223.194 138.532 219.437 147.873L225.003 150.112C230.203 137.187 222.739 122.516 209.168 117.01L206.912 122.569ZM180.426 132.023C184.18 122.691 195.867 118.087 206.912 122.569L209.168 117.01C195.594 111.501 180.063 116.85 174.86 129.784L180.426 132.023ZM180.623 149.097C180.037 145.396 179.655 141.872 179.604 138.839C179.552 135.735 179.855 133.442 180.426 132.023L174.86 129.784C173.835 132.331 173.549 135.592 173.605 138.94C173.662 142.357 174.087 146.183 174.697 150.036L180.623 149.097ZM160.263 121.344C165.562 129.809 170.493 140.098 174.889 150.714L180.432 148.418C175.97 137.641 170.892 127.016 165.349 118.161L160.263 121.344ZM178.363 98.4708C178.169 99.3133 177.513 100.618 176.252 102.342C175.036 104.005 173.43 105.828 171.628 107.68C168.028 111.38 163.835 115.007 160.893 117.441L164.718 122.064C167.728 119.573 172.109 115.789 175.929 111.863C177.836 109.902 179.652 107.858 181.095 105.884C182.495 103.97 183.738 101.868 184.21 99.8176L178.363 98.4708ZM168.026 84.0356C175.476 85.7595 179.755 92.4294 178.363 98.4708L184.21 99.8176C186.471 90.0037 179.481 80.5277 169.379 78.19L168.026 84.0356ZM152.429 92.4633C153.82 86.425 160.577 82.312 168.026 84.0356L169.379 78.19C159.275 75.852 148.843 81.2996 146.582 91.1166L152.429 92.4633ZM154.516 103.885C153.689 101.395 153.025 99.012 152.647 96.9471C152.255 94.8067 152.232 93.3186 152.429 92.4633L146.582 91.1166C146.104 93.1907 146.312 95.6608 146.745 98.0274C147.192 100.469 147.947 103.142 148.821 105.776L154.516 103.885ZM129.191 90.5348C134.849 93.4881 141.967 98.4607 149.43 106.828L153.907 102.834C145.957 93.92 138.26 88.5007 131.967 85.2158L129.191 90.5348Z" fill="#2C2C31" mask="url(#path-27-inside-1)"/>
<path d="M188.254 166.139L207.2 122.252" stroke="#2C2C31" stroke-width="3" stroke-linecap="round"/>
<path d="M174.668 173.649L128.348 165.616" stroke="#2C2C31" stroke-width="3" stroke-linecap="round"/>
<path d="M170.844 83.908L162.098 106.701" stroke="#2C2C31" stroke-width="3" stroke-linecap="round"/>
<path d="M123.037 127.777L147.536 122.699" stroke="#2C2C31" stroke-width="3" stroke-linecap="round"/>
<path d="M105.123 74.5288L119.098 83.0449" stroke="#2C2C31" stroke-width="3" stroke-linecap="round"/>
</g>
<defs>
<clipPath id="clip0">
<rect x="-240" y="-80" width="680" height="360" fill="white"/>
</clipPath>
</defs>
</svg>
