<svg width="200" height="400" fill="none" xmlns="http://www.w3.org/2000/svg"><path d="M-28 356.5c31.20409 0 56.5-25.296 56.5-56.5S3.20409 243.5-28 243.5c-31.2041 0-56.5 25.296-56.5 56.5s25.2959 56.5 56.5 56.5z" fill="#E376B5" stroke="#2C2C31" stroke-width="3"/><mask id="a" maskUnits="userSpaceOnUse" x="-86" y="242" width="116" height="116"><path d="M-28 356.5c31.20409 0 56.5-25.296 56.5-56.5S3.20409 243.5-28 243.5c-31.2041 0-56.5 25.296-56.5 56.5s25.2959 56.5 56.5 56.5z" fill="#fff" stroke="#fff" stroke-width="3"/></mask><g mask="url(#a)"><path fill-rule="evenodd" clip-rule="evenodd" d="M-75 248c2.5336-11.401 40-11.401 72 22 32 33.401 26.042 69.386 26.042 69.386l-46.7654 27S-4.8646 339.647-13 315c-8.1354-24.647-64.5336-55.599-62-67z" fill="#FFF4D6"/><path d="M-28 356.5c31.20409 0 56.5-25.296 56.5-56.5S3.20409 243.5-28 243.5c-31.2041 0-56.5 25.296-56.5 56.5s25.2959 56.5 56.5 56.5z" stroke="#2C2C31" stroke-width="3"/></g><path fill-rule="evenodd" clip-rule="evenodd" d="M147 235c72.349 0 131-58.651 131-131 0-72.3493-58.651-131-131-131C74.6507-27 16 31.6507 16 104c0 72.349 58.6507 131 131 131z" fill="#000" fill-opacity=".2"/><path fill-rule="evenodd" clip-rule="evenodd" d="M147 259c85.604 0 155-69.396 155-155 0-85.6041-69.396-155-155-155C61.3959-51-8 18.3959-8 104c0 85.604 69.3959 155 155 155z" fill="#000" fill-opacity=".2"/><path d="M235.067 67.6632c1.175 3.2286.272 7.3407-3.006 12.2322-3.256 4.859-8.681 10.2091-15.933 15.7107-14.489 10.9919-35.985 22.3769-61.054 31.5009-25.07 9.125-48.855 14.221-67.0191 15.114-9.0916.447-16.6868-.164-22.3042-1.794-5.6551-1.64-8.9901-4.209-10.1652-7.438-1.193-3.278-.2431-7.467 3.1544-12.452 3.3732-4.95 8.9767-10.398 16.4467-15.99C89.665 93.71 110.89 82.531 135.579 73.5449c25.085-9.1302 48.883-14.2267 67.052-15.115 9.082-.4441 16.669.1683 22.281 1.7979 5.649 1.6404 8.98 4.2089 10.155 7.4354z" fill="#AF87E5" stroke="#2C2C31" stroke-width="3"/><path d="M162.791 10.2176c3.384.5966 6.493 3.4348 9.091 8.7191 2.58 5.2491 4.5 12.6229 5.639 21.6539 2.275 18.0432 1.386 42.3519-3.246 68.6254-4.633 26.273-12.112 49.419-20.421 65.596-4.159 8.097-8.485 14.37-12.705 18.42-4.248 4.077-8.141 5.68-11.525 5.084-3.383-.597-6.493-3.435-9.09-8.719-2.58-5.249-4.501-12.623-5.639-21.654-2.275-18.043-1.387-42.352 3.246-68.6253 4.632-26.2731 12.112-49.4196 20.421-65.5966 4.158-8.097 8.485-14.3692 12.705-18.4194 4.248-4.0773 8.141-5.68075 11.524-5.0841z" fill="#E376B5" stroke="#2C2C31" stroke-width="3"/><path d="M220.56 163.089c-2.208 2.632-6.221 3.906-12.096 3.514-5.836-.391-13.182-2.414-21.572-5.944-16.764-7.051-37.371-19.975-57.808-37.123-20.437-17.149-36.7429-35.1996-46.5983-50.4837-4.9328-7.6501-8.2013-14.5332-9.599-20.2127-1.407-5.7176-.8492-9.8906 1.3592-12.5226 2.2085-2.6319 6.2213-3.9059 12.0963-3.513 5.8359.3901 13.182 2.4138 21.5728 5.9433 16.763 7.0515 37.371 19.9751 57.808 37.1237 20.437 17.1486 36.742 35.199 46.598 50.483 4.932 7.65 8.201 14.533 9.599 20.213 1.407 5.718.849 9.891-1.36 12.522z" fill="#D0BCEA" stroke="#2C2C31" stroke-width="3"/><path d="M211.574 76.2137c13.317 36.5883-5.548 77.0443-42.135 90.3603-36.588 13.317-77.0443-5.548-90.3612-42.135-13.3169-36.5884 5.548-77.0443 42.1362-90.3612 36.588-13.3169 77.044 5.548 90.36 42.1359z" fill="#8BB2E8" stroke="#2C2C31" stroke-width="3"/><mask id="b" fill="#fff"><path fill-rule="evenodd" clip-rule="evenodd" d="M74.2878 103.346C59.2135 114.63 51.2996 125.6 54.1759 133.502c5.6668 15.569 51.0701 13.337 101.4111-4.985 50.341-18.323 86.556-45.7975 80.889-61.3668-2.831-7.7799-15.585-11.1149-33.918-10.2186"/></mask><path d="M236.476 67.1502l-2.819 1.026 2.819-1.026zM72.49 100.945c-7.6715 5.742-13.7054 11.535-17.4687 17.058-3.7146 5.451-5.5928 11.227-3.6644 16.525l5.6381-2.052c-.9479-2.604-.3073-6.264 2.9845-11.095 3.2431-4.759 8.7032-10.092 16.106-15.633l-3.5955-4.803zm-21.1331 33.583c1.8999 5.22 6.9304 8.42 13.1403 10.221 6.2852 1.823 14.4342 2.426 23.7787 1.966 18.7271-.92 42.9651-6.144 68.3371-15.379l-2.052-5.638c-24.969 9.088-48.603 14.141-66.5797 15.025-9.0073.442-16.4179-.171-21.8127-1.736-5.4702-1.587-8.2401-3.946-9.1736-6.511l-5.6381 2.052zm105.2561-3.192c25.372-9.235 47.297-20.813 62.235-32.1449 7.453-5.6546 13.308-11.3541 16.951-16.7907 3.6-5.3714 5.396-11.0564 3.496-16.2763l-5.638 2.0521c.934 2.5648.328 6.1527-2.842 10.8842-3.127 4.6665-8.409 9.9001-15.594 15.3506-14.339 10.878-35.692 22.199-60.66 31.287l2.052 5.638zm82.682-65.2119c-1.898-5.2167-6.924-8.4161-13.128-10.2178-6.279-1.8235-14.421-2.4275-23.756-1.9711l.293 5.9929c8.998-.44 16.401.1753 21.79 1.7402 5.463 1.5867 8.23 3.9448 9.163 6.5079l5.638-2.0521z" fill="#2C2C31" mask="url(#b)"/><mask id="c" fill="#fff"><path fill-rule="evenodd" clip-rule="evenodd" d="M112.87 163.121c1.877 21.022 7.61 35.106 16.494 36.672 16.317 2.877 37.085-37.559 46.388-90.317 9.303-52.7576 3.617-97.8586-12.7-100.73566-7.615-1.34275-16.2 6.74876-24.137 21.12396"/></mask><path d="M163.052 8.74034l-.521 2.95446.521-2.95446zM109.881 163.388c.954 10.674 2.9 19.808 5.86 26.568 2.909 6.642 7.151 11.742 13.102 12.791l1.042-5.908c-2.933-.518-5.999-3.242-8.648-9.29-2.596-5.929-4.455-14.348-5.379-24.695l-5.977.534zm18.962 39.359c5.471.965 10.757-1.791 15.422-6.269 4.721-4.531 9.318-11.287 13.592-19.61 8.566-16.678 16.161-40.281 20.849-66.871l-5.908-1.042c-4.614 26.168-12.055 49.162-20.278 65.172-4.12 8.022-8.357 14.133-12.41 18.022-4.109 3.944-7.537 5.164-10.225 4.69l-1.042 5.908zm49.863-92.75c4.689-26.5902 5.625-51.3669 3.28-69.9693-1.171-9.2822-3.179-17.2029-6.066-23.076-2.852-5.8027-6.877-10.20118-12.347-11.16578l-1.042 5.90888c2.688.4739 5.492 2.792 8.005 7.9036 2.477 5.0411 4.369 12.2325 5.497 21.1799 2.251 17.8568 1.379 42.0095-3.235 68.1767l5.908 1.042zM163.573 5.78592c-5.108-.90068-10.06 1.44981-14.467 5.38438-4.441 3.9654-8.765 9.904-12.817 17.244l5.253 2.8999c3.884-7.0352 7.821-12.3299 11.56-15.6683 3.774-3.3694 6.922-4.3932 9.429-3.9511l1.042-5.90888z" fill="#2C2C31" mask="url(#c)"/><mask id="d" fill="#fff"><path fill-rule="evenodd" clip-rule="evenodd" d="M183.004 160.598c18.524 8.379 33.039 10.209 38.705 3.456 5.552-6.616 1.516-20.164-9.432-36.496-10.056-15.001-25.943-32.3504-45.59-48.8361-20.96-17.587-42.144-30.7895-59.276-37.8078-16.4114-6.7233-29.1034-7.7712-34.3141-1.5612-5.0623 6.033-2.1525 17.8302 6.7018 32.2468"/></mask><path d="M221.709 164.054l-2.298-1.929 2.298 1.929zm-9.432-36.496l2.492-1.671-2.492 1.671zM107.411 40.9141l1.138-2.7761-1.138 2.7761zm74.356 122.4169c9.413 4.258 18.008 6.949 25.115 7.655 6.993.694 13.328-.479 17.126-5.004l-4.597-3.857c-1.869 2.228-5.624 3.517-11.936 2.89-6.199-.616-14.123-3.029-23.235-7.15l-2.473 5.466zm42.241 2.651c3.721-4.434 3.846-10.712 2.069-17.312-1.802-6.699-5.742-14.479-11.308-22.783l-4.984 3.341c5.381 8.028 8.934 15.188 10.499 21.001 1.59 5.911.958 9.715-.873 11.896l4.597 3.857zm-9.239-40.095c-10.249-15.288-26.346-32.8424-46.154-49.4632l-3.857 4.5963c19.486 16.3506 35.164 33.4959 45.027 48.2079l4.984-3.341zm-46.154-49.4632c-21.125-17.7263-42.573-31.1192-60.066-38.2858l-2.275 5.5522c16.769 6.87 37.691 19.8821 58.484 37.3299l3.857-4.5963zM108.549 38.138c-8.364-3.4262-15.988-5.4979-22.329-5.8499-6.2736-.3482-11.9267.9718-15.4213 5.1364l4.5963 3.8567c1.7162-2.0453 5.0144-3.3064 10.4924-3.0023 5.4106.3003 12.3384 2.1142 20.3866 5.4113l2.275-5.5522zm-37.7503-.7135c-3.3954 4.0465-3.7905 9.6369-2.5006 15.5476 1.3014 5.9636 4.4268 12.8423 8.9443 20.1977l5.1127-3.1401c-4.3368-7.0613-7.0935-13.2895-8.195-18.3369-1.1131-5.1003-.432-8.4251 1.2349-10.4116l-4.5963-3.8567z" fill="#2C2C31" mask="url(#d)"/><path fill-rule="evenodd" clip-rule="evenodd" d="M38.6453 152.626l1.9484 13.864-.0272.004c.0668 2.263-1.5786 4.261-3.8723 4.583-2.4611.346-4.7366-1.368-5.0825-3.83-.3459-2.461 1.3688-4.736 3.8299-5.082.5209-.073 1.0334-.054 1.5211.045l-.8707-6.195-8.9124 1.252 1.5309 10.893-.0272.004c.0668 2.263-1.5786 4.261-3.8723 4.583-2.4611.346-4.7366-1.368-5.0825-3.829-.3459-2.462 1.3688-4.737 3.8299-5.083.5208-.073 1.0334-.054 1.521.045l-1.2882-9.166 14.8541-2.088zM186.301 221.923l-1.949 13.863-.027-.003c-.559 2.193-2.692 3.661-4.986 3.338-2.461-.346-4.175-2.621-3.829-5.082.345-2.461 2.621-4.176 5.082-3.83.521.073 1.008.233 1.45.462l.87-6.195-8.912-1.253-1.531 10.893-.027-.004c-.56 2.194-2.692 3.661-4.986 3.339-2.461-.346-4.176-2.621-3.83-5.082.346-2.461 2.622-4.176 5.083-3.83.521.073 1.008.233 1.45.462l1.288-9.166 14.854 2.088z" fill="#8BB2E8"/><path fill-rule="evenodd" clip-rule="evenodd" d="M186.301 221.923l-1.949 13.863-.027-.003c-.559 2.193-2.692 3.661-4.986 3.338-2.461-.346-4.175-2.621-3.829-5.082.345-2.461 2.621-4.176 5.082-3.83.521.073 1.008.233 1.45.462l.87-6.195-8.912-1.253-1.531 10.893-.027-.004c-.56 2.194-2.692 3.661-4.986 3.339-2.461-.346-4.176-2.621-3.83-5.082.346-2.461 2.622-4.176 5.083-3.83.521.073 1.008.233 1.45.462l1.288-9.166 14.854 2.088z" fill="#8BB2E8"/><path fill-rule="evenodd" clip-rule="evenodd" d="M186.301 221.923l-1.949 13.863-.027-.003c-.559 2.193-2.692 3.661-4.986 3.338-2.461-.346-4.175-2.621-3.829-5.082.345-2.461 2.621-4.176 5.082-3.83.521.073 1.008.233 1.45.462l.87-6.195-8.912-1.253-1.531 10.893-.027-.004c-.56 2.194-2.692 3.661-4.986 3.339-2.461-.346-4.176-2.621-3.83-5.082.346-2.461 2.622-4.176 5.083-3.83.521.073 1.008.233 1.45.462l1.288-9.166 14.854 2.088zM34.2848 57.7427l2.8838.8269-3.5833 12.4965-.0264-.0076c-.8593 2.0942-3.1753 3.2507-5.4018 2.6122-2.389-.685-3.7704-3.177-3.0853-5.566.685-2.389 3.177-3.7704 5.566-3.0853.5056.1449.966.3708 1.3713.6596l2.2757-7.9363zM77 223h3v13h-.0275c-.2487 2.25-2.1562 4-4.4725 4-2.4853 0-4.5-2.015-4.5-4.5s2.0147-4.5 4.5-4.5c.526 0 1.0308.09 1.5.256V223z" fill="#8BB2E8"/><path fill-rule="evenodd" clip-rule="evenodd" d="M202.034 334.711l-12.259 6.407c-1.604.838-3.407-.714-2.817-2.424l4.508-13.077-12.653-5.59c-1.654-.731-1.565-3.109.139-3.714l13.035-4.628-3.518-13.378c-.461-1.749 1.454-3.162 2.99-2.207l11.746 7.306 8.265-11.092c1.081-1.451 3.379-.835 3.59.962l1.612 13.738 13.825-.454c1.808-.059 2.759 2.122 1.486 3.407l-9.736 9.826 8.974 10.525c1.174 1.377.062 3.481-1.736 3.286l-13.753-1.485-2.634 13.579c-.344 1.776-2.682 2.218-3.652.691l-7.412-11.678z" fill="#FFEA56"/></svg>