<svg width="240" height="240" fill="none" xmlns="http://www.w3.org/2000/svg"><path d="M145.924 130.237l3.574.58-2.116-2.937L41.6024-18.9653l-.8638-1.1992-1.2119.8459.8586 1.23c-.8586-1.23-.859-1.2297-.8595-1.2293l-.0015.001-.0046.0032-.0155.0109-.056.0397c-.0485.0345-.119.085-.2107.1516-.1835.1331-.4522.3306-.8.5933-.6957.5254-1.7084 1.3113-2.9909 2.3638-2.5648 2.105-6.2093 5.2769-10.5553 9.56356C16.1997 1.98214 4.69837 15.0177-6.58508 32.9-17.8786 50.7982-24.6078 67.4508-28.5154 79.6371c-1.954 6.0939-3.2034 11.0738-3.9653 14.538-.381 1.7322-.6402 3.0857-.8048 4.0104-.0823.4624-.1409.8176-.1792 1.0593-.0192.1209-.0333.2134-.0428.2768l-.0108.0732-.0028.0199-.0009.0059-.0002.0018c-.0001.0007-.0002.0012 1.4852.2097l-1.4854-.2085-.2041 1.4534 1.4492.236 178.2013 28.924z" fill="#FFEA56" stroke="#000" stroke-width="3"/><mask id="a" maskUnits="userSpaceOnUse" x="-68" y="-40" width="221" height="232"><path d="M145.924 130.237l3.574.58-2.116-2.937L41.6024-18.9653l-.8638-1.1992-1.2119.8459.8586 1.23c-.8586-1.23-.859-1.2297-.8595-1.2293l-.0015.001-.0046.0032-.0155.0109-.056.0397c-.0485.0345-.119.085-.2107.1516-.1835.1331-.4522.3306-.8.5933-.6957.5254-1.7084 1.3113-2.9909 2.3638-2.5648 2.105-6.2093 5.2769-10.5553 9.56356C16.1997 1.98214 4.69837 15.0177-6.58508 32.9-17.8786 50.7982-24.6078 67.4508-28.5154 79.6371c-1.954 6.0939-3.2034 11.0738-3.9653 14.538-.381 1.7322-.6402 3.0857-.8048 4.0104-.0823.4624-.1409.8176-.1792 1.0593-.0192.1209-.0333.2134-.0428.2768l-.0108.0732-.0028.0199-.0009.0059-.0002.0018c-.0001.0007-.0002.0012 1.4852.2097l-1.4854-.2085-.2041 1.4534 1.4492.236 178.2013 28.924z" fill="#fff" stroke="#fff" stroke-width="3"/></mask><g mask="url(#a)"><path fill-rule="evenodd" clip-rule="evenodd" d="M51.7222-2.58277L40.5648-18.0669S17.2897-1.82604-5.13623 33.7108C-27.5621 69.2476-31.8521 99.8316-31.8521 99.8316l19.3469 3.1414c2.55077-10.9718 9.31301-33.8546 25.3523-59.271C27.8204 19.9748 43.1723 4.84966 51.7222-2.58277z" fill="#8BB2E8"/></g><path d="M-13.2834 101.371c6.23571-21.8668 14.47514-40.4586 25.6782-57.9411C23.5979 25.9474 36.5039 10.9569 51.113-1.54166" stroke="#000" stroke-width="3" stroke-linecap="square"/><path fill-rule="evenodd" clip-rule="evenodd" d="M99.1732 89.5366c1.4568 3.794-.2944 7.9948-3.9104 9.3828-3.5077 1.3466-7.4821-.4485-9.0464-4.0204l-6.4551 3.1825c3.532 7.3175 12.0297 10.4705 18.9803 7.0435 6.9504-3.427 9.7224-12.1362 6.1904-19.4532l-6.1387 3.0264c.1413.2682.2684.5479.3799.8384zM33.1479 89.6618c6.9606-2.6719 10.4373-10.4807 7.7653-17.4413-2.6719-6.9606-10.4806-10.4373-17.4413-7.7654-6.9606 2.672-10.4373 10.4807-7.7653 17.4413 2.6719 6.9607 10.4806 10.4373 17.4413 7.7654zM58.3728 52.1291c6.9606-2.672 10.4373-10.4807 7.7653-17.4413-2.6719-6.9607-10.4806-10.4373-17.4413-7.7654-6.9606 2.6719-10.4373 10.4807-7.7653 17.4413 2.6719 6.9606 10.4806 10.4373 17.4413 7.7654zM73.2497 83.9085c4.6404-1.7813 6.8779-7.1961 4.9977-12.0944-1.8803-4.8982-7.1663-7.425-11.8067-5.6437-4.6404 1.7813-6.878 7.1961-4.9978 12.0944 1.8803 4.8982 7.1663 7.425 11.8068 5.6437z" fill="#B23221"/><path d="M144.798 168.583l26.786-42.904 25.874 16.182-26.773 42.883c-4.465 7.153-13.885 9.328-21.034 4.857-7.141-4.466-9.313-13.874-4.853-21.018z" fill="#1F1D1B" stroke="#000" stroke-width="3"/><path fill-rule="evenodd" clip-rule="evenodd" d="M238.22 148.951c-18.557 6.382-39.301 5.363-56.432-5.403-17.132-10.765-27.136-29.069-29.568-48.6405l86 54.0435z" fill="#1F1D1B"/><path fill-rule="evenodd" clip-rule="evenodd" d="M236.672 149.907l-84.606-52.8102c-2.578-17.1226.716-35.3777 10.187-50.5178 19.914-31.8343 65.825-47.80245 97.694-27.9102 31.869 19.8923 37.627 68.1122 17.713 99.9462-9.47 15.14-24.452 26.101-40.988 31.292z" fill="#E376B5"/><path clip-rule="evenodd" d="M180.777 144.039c31.802 19.89 75.985 6.537 95.857-25.293 19.872-31.8295 14.126-80.0426-17.676-99.932-31.802-19.88951-77.617-3.9237-97.489 27.9061s-12.494 77.4299 19.308 97.3189z" stroke="#000" stroke-width="3"/><path d="M208.995 191.79c1.21-.519 1.21-.519 6.581-2.862 4.958-2.148 8.429-4.101 11.499-6.472 2.632-2.02 4.198-3.956 5.311-6.58 1.425-3.358 1.39-6.386-.12-8.761-.868-1.359-2.129-2.473-3.598-3.096-1.26-.535-2.877-.809-3.91-.71-1.606.185-3.288 1.328-4.331 2.909-.62.975-.814 1.14-1.024 1.051-.21-.089-.2-.209.045-1.467.388-1.693.102-3.548-.731-4.892-.642-1.016-1.627-1.806-3.132-2.444-2.623-1.114-4.948-.986-7.178.379-1.738 1.079-3.323 2.965-4.184 4.994-1.456 3.428-1.464 8.213.049 14.181 1.002 4.058 1.334 5.024 4.723 13.77z" fill="#E8B9CE"/><path d="M208.995 191.79l-1.399.542.561 1.448 1.428-.611-.59-1.379zm6.581-2.862l-.596-1.377-.004.002.6 1.375zm11.499-6.472l-.913-1.19-.004.003.917 1.187zm5.191-15.341l1.266-.805-.002-.002-1.264.807zm-7.508-3.806l-.142-1.493-.015.001-.015.002.172 1.49zm-4.331 2.909l-1.252-.826-.007.01-.006.011 1.265.805zm-.979-.416l-1.462-.335-.006.024-.004.024 1.472.287zm-.731-4.892l1.276-.79-.008-.012-1.268.802zm-10.31-2.065l-.783-1.28-.009.005.792 1.275zm-4.135 19.175l1.456-.36-.002-.009-1.454.369zm5.313 15.149c1.217-.521 1.223-.524 6.591-2.867l-1.2-2.749c-5.373 2.345-5.367 2.342-6.571 2.858l1.18 2.758zm6.588-2.865c5.03-2.179 8.62-4.19 11.819-6.661l-1.834-2.374c-2.942 2.271-6.294 4.166-11.178 6.282l1.193 2.753zm11.815-6.658c2.803-2.151 4.548-4.285 5.779-7.184l-2.762-1.172c-.996 2.348-2.381 4.087-4.843 5.976l1.826 2.38zm5.779-7.184c1.553-3.658 1.618-7.237-.235-10.152L231 167.92c1.167 1.835 1.303 4.313.005 7.37l2.762 1.172zm-.237-10.154c-1.017-1.593-2.506-2.919-4.276-3.67l-1.172 2.762c1.167.495 2.201 1.397 2.92 2.522l2.528-1.614zm-4.276-3.67c-1.444-.613-3.312-.949-4.638-.822l.285 2.986c.739-.07 2.105.141 3.181.598l1.172-2.762zm-4.668-.819c-2.134.246-4.177 1.703-5.411 3.573l2.504 1.652c.852-1.291 2.173-2.121 3.251-2.245l-.344-2.98zm-5.424 3.594c-.149.233-.26.399-.345.518-.09.125-.124.158-.116.15.007-.007.041-.04.102-.082.062-.043.165-.104.308-.149.15-.048.316-.069.489-.056.167.013.3.057.389.094l-1.172 2.762c.317.135.741.205 1.201.059.387-.123.653-.355.803-.505.288-.287.574-.713.872-1.181l-2.531-1.61zm.827.475c.048.021.38.161.601.548.097.17.136.325.151.424.015.093.013.157.013.165 0 .008.002-.044.033-.225.028-.168.071-.394.133-.711l-2.944-.574c-.11.563-.208 1.059-.22 1.408-.006.18-.007.587.228 1 .271.473.68.662.833.727l1.172-2.762zm.921.249c.469-2.045.14-4.31-.918-6.017l-2.55 1.58c.608.981.851 2.427.544 3.767l2.924.67zm-.925-6.029c-.845-1.337-2.107-2.299-3.814-3.023l-1.172 2.761c1.302.553 2.012 1.171 2.451 1.865l2.535-1.603zm-3.814-3.023c-3.025-1.285-5.865-1.161-8.547.48l1.565 2.559c1.779-1.088 3.589-1.22 5.81-.278l1.172-2.761zm-8.556.485c-2.019 1.254-3.8 3.39-4.773 5.683l2.761 1.172c.749-1.765 2.138-3.402 3.595-4.306l-1.583-2.549zm-4.773 5.683c-1.641 3.865-1.572 9.03-.024 15.135l2.908-.737c-1.478-5.829-1.392-10.235-.123-13.226l-2.761-1.172zm-.027 15.126c1.027 4.159 1.391 5.203 4.781 13.953l2.797-1.084c-3.386-8.741-3.688-9.631-4.665-13.588l-2.913.719z" fill="#1F1D1B"/><ellipse cx="69" cy="231.5" rx="1" ry=".5" fill="#C4C4C4"/></svg>