<svg width="640" height="400" fill="none" xmlns="http://www.w3.org/2000/svg"><g clip-path="url(#clip0)"><mask id="a" maskUnits="userSpaceOnUse" x="280" y="106" width="188" height="188"><path fill-rule="evenodd" clip-rule="evenodd" d="M374 294c51.915 0 94-42.085 94-94s-42.085-94-94-94-94 42.085-94 94 42.085 94 94 94z" fill="#fff"/></mask><g mask="url(#a)"><mask id="b" fill="#fff"><path fill-rule="evenodd" clip-rule="evenodd" d="M376 154c26 0 31 31 31 31h-62s5-31 31-31zm-2 140c43.258 0 79.692-29.22 90.639-69H470v-16h-2.425c.281-2.962.425-5.964.425-9 0-51.915-42.085-94-94-94s-94 42.085-94 94 42.085 94 94 94zm33-85h60.575c-.521 5.484-1.513 10.831-2.936 16h-63.684c-4.541 7.58-12.235 15-24.955 15-26 0-31-31-31-31h62zm-47-77s-18.968 13.999-40.78 44.31S278 240 278 240l-4-36s14.982-21.577 36-40 50-32 50-32z"/></mask><path fill-rule="evenodd" clip-rule="evenodd" d="M376 154c26 0 31 31 31 31h-62s5-31 31-31zm-2 140c43.258 0 79.692-29.22 90.639-69H470v-16h-2.425c.281-2.962.425-5.964.425-9 0-51.915-42.085-94-94-94s-94 42.085-94 94 42.085 94 94 94zm33-85h60.575c-.521 5.484-1.513 10.831-2.936 16h-63.684c-4.541 7.58-12.235 15-24.955 15-26 0-31-31-31-31h62zm-47-77s-18.968 13.999-40.78 44.31S278 240 278 240l-4-36s14.982-21.577 36-40 50-32 50-32z" fill="#9DBBE5"/><path d="M407 185v3h3.523l-.561-3.478L407 185zm-62 0l-2.962-.478-.561 3.478H345v-3zm125 40v3h3v-3h-3zm0-16h3v-3h-3v3zm-69.045 16v-3h-1.7l-.873 1.458 2.573 1.542zM345 209v-3h-3.523l.561 3.478L345 209zm15-77l1.782 2.414-3.055-5.131L360 132zm-82 108l-2.982.331 1.005 9.038 4.57-7.861L278 240zm-4-36l-2.464-1.711-.642.924.124 1.118L274 204zm133-19c2.962-.478 2.962-.479 2.961-.48v-.004c-.001-.002-.001-.005-.002-.009-.001-.007-.002-.016-.004-.026-.004-.022-.009-.051-.015-.087-.013-.072-.031-.172-.055-.3-.048-.255-.121-.618-.221-1.074-.202-.91-.517-2.195-.979-3.729-.92-3.057-2.44-7.163-4.841-11.297C399.036 159.712 390.457 151 376 151v6c11.543 0 18.464 6.788 22.656 14.006 2.099 3.616 3.454 7.26 4.284 10.015.413 1.372.692 2.51.865 3.295.087.392.147.695.185.894.019.099.032.172.04.218.004.022.006.038.008.046 0 .005.001.007.001.008v-.001-.001c-.001-.001-.001-.002 2.961-.48zm-62 3h62v-6h-62v6zm31-37c-14.457 0-23.036 8.712-27.844 16.994-2.401 4.134-3.921 8.24-4.841 11.297-.462 1.534-.777 2.819-.979 3.729-.1.456-.173.819-.221 1.074-.024.128-.042.228-.055.3-.006.036-.011.065-.015.087-.002.01-.003.019-.004.026-.001.004-.001.007-.002.009v.004c-.001.001-.001.002 2.961.48 2.962.478 2.962.479 2.961.48v.002c0-.001.001-.003.001-.008.002-.008.004-.024.008-.046.008-.046.021-.119.04-.218.038-.199.098-.502.185-.894.173-.785.452-1.923.865-3.295.83-2.755 2.185-6.399 4.284-10.015C357.536 163.788 364.457 157 376 157v-6zm85.747 73.204C451.148 262.715 415.873 291 374 291v6c44.643 0 82.235-30.156 93.532-71.204l-5.785-1.592zM470 222h-5.361v6H470v-6zm-3-13v16h6v-16h-6zm.575 3H470v-6h-2.425v6zM465 200c0 2.941-.139 5.848-.412 8.716l5.973.568c.291-3.057.439-6.153.439-9.284h-6zm-91-91c50.258 0 91 40.742 91 91h6c0-53.572-43.428-97-97-97v6zm-91 91c0-50.258 40.742-91 91-91v-6c-53.572 0-97 43.428-97 97h6zm91 91c-50.258 0-91-40.742-91-91h-6c0 53.572 43.428 97 97 97v-6zm93.575-85H407v6h60.575v-6zm-.043 19.796c1.468-5.335 2.492-10.854 3.029-16.512l-5.973-.568c-.504 5.31-1.465 10.486-2.841 15.488l5.785 1.592zM400.955 228h63.684v-6h-63.684v6zm-2.573-4.542C394.164 230.499 387.3 237 376 237v6c14.141 0 22.665-8.339 27.529-16.458l-5.147-3.084zM376 237c-11.543 0-18.464-6.788-22.656-14.006-2.099-3.616-3.454-7.26-4.284-10.015-.413-1.372-.692-2.51-.865-3.295-.087-.392-.147-.695-.185-.894-.019-.099-.032-.172-.04-.218-.004-.022-.006-.038-.008-.046 0-.005-.001-.007-.001-.008v.002c.001.001.001.002-2.961.48-2.962.478-2.962.479-2.961.48v.004c.001.002.001.005.002.009.001.007.002.016.004.026.004.022.009.051.015.087.013.072.031.172.055.3.048.255.121.618.221 1.074.202.91.517 2.195.979 3.729.92 3.057 2.44 7.163 4.841 11.297C352.964 234.288 361.543 243 376 243v-6zm-31-25h31v-6h-31v6zm31 0h31v-6h-31v6zm-16-80c-1.782-2.414-1.782-2.413-1.783-2.413l-.002.002c-.001.001-.003.002-.005.003-.003.003-.008.007-.015.011-.012.009-.029.022-.05.038-.043.032-.103.078-.182.138-.156.119-.383.294-.677.525-.586.462-1.438 1.148-2.524 2.063-2.171 1.83-5.278 4.576-9.068 8.274-7.578 7.397-17.89 18.605-28.909 33.917l4.87 3.504c10.794-14.999 20.872-25.945 28.23-33.126 3.679-3.591 6.677-6.239 8.744-7.981 1.033-.871 1.834-1.515 2.369-1.937.268-.211.47-.367.602-.467.066-.051.114-.087.145-.11.015-.011.026-.019.032-.024.003-.002.005-.003.006-.004h-.001s0 .001-1.782-2.413zm-43.215 42.558c-10.959 15.228-21.302 31.211-28.899 43.374-3.8 6.085-6.918 11.22-9.086 14.836-1.084 1.808-1.931 3.237-2.507 4.214-.289.489-.51.865-.659 1.12-.074.127-.131.224-.169.29-.019.032-.033.057-.043.074-.005.008-.009.015-.011.019-.002.002-.003.004-.003.005l-.001.001c0 .001 0 .001 2.593 1.509s2.593 1.508 2.594 1.508v-.001c.001-.001.001-.002.002-.004.003-.004.006-.01.011-.017.009-.016.022-.04.041-.071.036-.063.091-.157.164-.281.146-.25.364-.62.649-1.103.569-.967 1.409-2.383 2.485-4.177 2.153-3.59 5.251-8.694 9.029-14.743 7.56-12.104 17.827-27.967 28.68-43.049l-4.87-3.504zm-35.803 65.111l-4-36-5.964.662 4 36 5.964-.662zM274 204l2.464 1.711.001-.001c.001-.002.004-.005.007-.01.006-.008.016-.022.029-.041.026-.038.067-.097.122-.174.11-.156.276-.39.496-.695.44-.611 1.096-1.51 1.95-2.649 1.709-2.278 4.209-5.513 7.36-9.319 6.31-7.622 15.198-17.494 25.548-26.566l-3.954-4.512c-10.669 9.351-19.781 19.479-26.216 27.252-3.221 3.89-5.78 7.201-7.538 9.545-.879 1.172-1.557 2.102-2.019 2.743-.23.32-.407.568-.527.738-.059.085-.105.15-.137.194-.015.023-.027.04-.036.052-.004.006-.007.011-.01.015-.001.001-.002.003-.003.004 0 0 0 .001-.001.001 0 .001 0 .001 2.464 1.712zm37.977-37.744c10.299-9.027 22.61-16.914 32.404-22.566 4.886-2.82 9.121-5.069 12.13-6.611 1.505-.771 2.702-1.365 3.52-1.764.408-.2.722-.351.932-.451.105-.051.184-.088.236-.113.026-.012.045-.021.058-.027.006-.003.01-.005.013-.006.001-.001.002-.001.003-.001L360 132c-1.273-2.717-1.273-2.716-1.274-2.716 0 0-.001 0-.001.001-.002 0-.003.001-.006.002l-.018.009c-.016.007-.038.018-.068.032-.059.028-.145.069-.258.122-.224.108-.554.266-.978.474-.85.415-2.081 1.026-3.622 1.815-3.081 1.579-7.406 3.876-12.393 6.754-9.95 5.742-22.64 13.855-33.359 23.251l3.954 4.512z" fill="#2C2C31" mask="url(#b)"/></g><mask id="c" fill="#fff"><path fill-rule="evenodd" clip-rule="evenodd" d="M487.845 186.211l-21.925 9.761 28.471 63.948 1.201-26.806 20.725 17.045-28.472-63.948z"/></mask><path fill-rule="evenodd" clip-rule="evenodd" d="M487.845 186.211l-21.925 9.761 28.471 63.948 1.201-26.806 20.725 17.045-28.472-63.948z" fill="#E376B5"/><path d="M465.92 195.972l-1.22-2.74-2.741 1.22 1.22 2.74 2.741-1.22zm21.925-9.761l2.741-1.221-1.221-2.74-2.74 1.22 1.22 2.741zm6.546 73.709l-2.74 1.221 5.737-1.086-2.997-.135zm1.201-26.806l1.906-2.317-4.634-3.811-.269 5.994 2.997.134zm20.725 17.045l-1.906 2.317 4.646-3.537-2.74 1.22zm-49.177-51.446l21.925-9.762-2.44-5.481-21.925 9.762 2.44 5.481zm29.992 59.987l-28.471-63.948-5.482 2.44 28.472 63.949 5.481-2.441zm.256 1.355l1.201-26.806-5.994-.269-1.201 26.806 5.994.269zm-3.701-24.623l20.724 17.044 3.811-4.634-20.724-17.045-3.811 4.635zm-8.583-48.001l28.472 63.948 5.481-2.44-28.471-63.949-5.482 2.441z" fill="#2C2C31" mask="url(#c)"/><path d="M492.603 164.936c5.728 12.866-.058 27.939-12.923 33.667-12.866 5.728-27.939-.058-33.668-12.923-5.728-12.866.058-27.939 12.924-33.668 12.866-5.728 27.939.058 33.667 12.924z" fill="#FFEA56" stroke="#2C2C31" stroke-width="3"/><path d="M466.064 164.631l2.243 5.039 1.624-.723.758 1.701-5.142 2.289-.757-1.701 1.637-.729-2.243-5.039-1.638.729-.757-1.701 5.142-2.289.757 1.701-1.624.723zM458.134 180.354l1.597 9.403-3.313 1.475-5.919-7.479 1.931-.86 4.596 5.816.41-.183-1.246-7.307 1.944-.865zM465.782 187.185c-1.142.509-2.188.546-3.138.111-.95-.436-1.748-1.378-2.393-2.828-.649-1.458-.82-2.679-.513-3.664.312-.997 1.044-1.752 2.195-2.264 1.151-.513 2.197-.55 3.139-.11.946.426 1.743 1.369 2.392 2.827.65 1.458.818 2.685.506 3.683-.307.984-1.036 1.733-2.188 2.245zm-.757-1.701c.571-.254.909-.655 1.013-1.201.1-.556-.051-1.285-.454-2.189-.402-.904-.841-1.5-1.317-1.789-.48-.297-1.005-.319-1.577-.064-.562.25-.9.651-1.012 1.202-.104.546.047 1.276.453 2.188.403.904.844 1.505 1.323 1.802.485.285 1.008.302 1.571.051zM474.088 175.289l-2.737 1.218 3.001 6.74-1.88.837-3.001-6.74-2.75 1.225-.757-1.701 7.367-3.28.757 1.701zM483.706 177.044l.758 1.701-6.638 2.956-3.758-8.441 6.407-2.853.758 1.701-4.528 2.016.718 1.611 4.297-1.913.689 1.547-4.297 1.914.837 1.88 4.757-2.119zM481.596 169.908l3.261-1.452c1.279-.57 2.38-.621 3.304-.153.931.464 1.693 1.361 2.286 2.691.63 1.415.808 2.608.535 3.577-.265.966-1.015 1.724-2.252 2.275l-3.376 1.503-3.758-8.441zm6.339 5.254c.588-.262.942-.649 1.061-1.162.124-.525-.019-1.248-.429-2.169-.376-.844-.813-1.401-1.311-1.67-.489-.272-1.049-.268-1.68.013l-1.343.598 2.244 5.039 1.458-.649z" fill="#2C2C31"/><path d="M375 171.5c0 5.799-4.701 10.5-10.5 10.5s-10.5-4.701-10.5-10.5 4.701-10.5 10.5-10.5 10.5 4.701 10.5 10.5z" fill="#FFF4D6" stroke="#2C2C31" stroke-width="2"/><path d="M370.5 172.5c0 1.657-1.343 3-3 3s-3-1.343-3-3 1.343-3 3-3 3 1.343 3 3z" fill="#2C2C31" stroke="#2C2C31" stroke-width="3"/><path d="M398 171.5c0 5.799-4.701 10.5-10.5 10.5s-10.5-4.701-10.5-10.5 4.701-10.5 10.5-10.5 10.5 4.701 10.5 10.5z" fill="#FFF4D6" stroke="#2C2C31" stroke-width="2"/><path d="M394.5 172.5c0 1.657-1.343 3-3 3s-3-1.343-3-3 1.343-3 3-3 3 1.343 3 3z" fill="#2C2C31" stroke="#2C2C31" stroke-width="3"/><path d="M609 288.5c8.013 0 15.866 3.386 23.211 8.627 7.338 5.237 14.061 12.25 19.779 19.317 5.713 7.059 10.386 14.126 13.633 19.433 1.622 2.651 2.886 4.859 3.743 6.402.042.075.083.149.122.221H475.663c2.904-1.529 6.892-3.611 11.693-6.071 10.417-5.338 24.654-12.454 39.942-19.569 15.292-7.117 31.614-14.222 46.203-19.545 14.655-5.346 27.356-8.815 35.499-8.815z" fill="#4A668E" stroke="#2C2C31" stroke-width="3"/><path d="M-31.5 280.506c0-2.764 1.7302-5.145 4.3119-5.88 19.06741-5.427 89.992-22.25 221.1261-16.786 142.574 5.941 430.711 50.766 478.924 58.386 3.229.51 5.456 3.345 5.294 6.693l-5.286 109.236c-.167 3.464-3.025 6.186-6.492 6.186H-25c-3.5898 0-6.5-2.91-6.5-6.5V280.506z" fill="#3EA26E" stroke="#2C2C31" stroke-width="3"/><mask id="d" fill="#fff"><path fill-rule="evenodd" clip-rule="evenodd" d="M105.527 92.112C100.826 83.693 91.8276 78 81.5 78 66.3122 78 54 90.3122 54 105.5c0 1.889.1905 3.734.5534 5.516C39.8038 111.515 28 123.629 28 138.5c0 15.188 12.3122 27.5 27.5 27.5 9.6194 0 18.0853-4.939 23-12.42 4.9147 7.481 13.3806 12.42 23 12.42 14.346 0 26.127-10.986 27.388-25.004C140.488 137.769 149 127.128 149 114.5c0-15.1878-12.312-27.5-27.5-27.5-5.956 0-11.471 1.8937-15.973 5.112z"/></mask><path fill-rule="evenodd" clip-rule="evenodd" d="M105.527 92.112C100.826 83.693 91.8276 78 81.5 78 66.3122 78 54 90.3122 54 105.5c0 1.889.1905 3.734.5534 5.516C39.8038 111.515 28 123.629 28 138.5c0 15.188 12.3122 27.5 27.5 27.5 9.6194 0 18.0853-4.939 23-12.42 4.9147 7.481 13.3806 12.42 23 12.42 14.346 0 26.127-10.986 27.388-25.004C140.488 137.769 149 127.128 149 114.5c0-15.1878-12.312-27.5-27.5-27.5-5.956 0-11.471 1.8937-15.973 5.112z" fill="#FFF4D6"/><path d="M105.527 92.112l-2.62 1.4626 1.636 2.9283 2.728-1.9502-1.744-2.4407zm-50.9736 18.904l.1014 2.998 3.5462-.12-.708-3.477-2.9396.599zM78.5 153.58l2.5073-1.647-2.5073-3.816-2.5073 3.816L78.5 153.58zm50.388-12.584l-.804-2.89-1.998.556-.186 2.065 2.988.269zM81.5 81c9.197 0 17.2148 5.0663 21.407 12.5746l5.239-2.9252C102.936 81.3197 92.9582 75 81.5 75v6zM57 105.5C57 91.969 67.969 81 81.5 81v-6C64.6553 75 51 88.6553 51 105.5h6zm.493 4.917c-.3229-1.586-.493-3.23-.493-4.917h-6c0 2.091.2109 4.137.6137 6.115l5.8793-1.198zM31 138.5c0-13.248 10.5162-24.041 23.6548-24.486l-.2029-5.996C38.0915 108.571 25 122.006 25 138.5h6zM55.5 163C41.969 163 31 152.031 31 138.5h-6c0 16.845 13.6553 30.5 30.5 30.5v-6zm20.4927-11.067C71.6091 158.605 64.067 163 55.5 163v6c10.6718 0 20.0614-5.483 25.5073-13.772l-5.0146-3.295zM101.5 163c-8.567 0-16.1091-4.395-20.4927-11.067l-5.0146 3.295C81.4386 163.517 90.8282 169 101.5 169v-6zm24.4-22.273C124.777 153.213 114.28 163 101.5 163v6c15.913 0 28.977-12.184 30.376-27.735l-5.976-.538zM146 114.5c0 11.246-7.58 20.73-17.916 23.606l1.608 5.78C142.556 140.307 152 128.51 152 114.5h-6zM121.5 90c13.531 0 24.5 10.969 24.5 24.5h6c0-16.8447-13.655-30.5-30.5-30.5v6zm-14.229 4.5527C111.282 91.6861 116.19 90 121.5 90v-6c-6.602 0-12.723 2.1014-17.718 5.6713l3.489 4.8814z" fill="#2C2C31" mask="url(#d)"/><mask id="e" fill="#fff"><path fill-rule="evenodd" clip-rule="evenodd" d="M612.538 109.89c1.581-3.471 2.462-7.328 2.462-11.39 0-15.1878-12.312-27.5-27.5-27.5-13.396 0-24.555 9.5783-27.001 22.2599C556.628 91.18 552.202 90 547.5 90c-15.188 0-27.5 12.312-27.5 27.5 0 15.022 12.045 27.231 27.005 27.496-.003.167-.005.336-.005.504 0 15.188 12.312 27.5 27.5 27.5 8.865 0 16.75-4.194 21.779-10.707 1.999.463 4.081.707 6.221.707 15.188 0 27.5-12.312 27.5-27.5 0-11.646-7.239-21.6-17.462-25.61z"/></mask><path fill-rule="evenodd" clip-rule="evenodd" d="M612.538 109.89c1.581-3.471 2.462-7.328 2.462-11.39 0-15.1878-12.312-27.5-27.5-27.5-13.396 0-24.555 9.5783-27.001 22.2599C556.628 91.18 552.202 90 547.5 90c-15.188 0-27.5 12.312-27.5 27.5 0 15.022 12.045 27.231 27.005 27.496-.003.167-.005.336-.005.504 0 15.188 12.312 27.5 27.5 27.5 8.865 0 16.75-4.194 21.779-10.707 1.999.463 4.081.707 6.221.707 15.188 0 27.5-12.312 27.5-27.5 0-11.646-7.239-21.6-17.462-25.61z" fill="#FFF4D6"/><path d="M612.538 109.89l-2.73-1.244-1.313 2.88 2.947 1.156 1.096-2.792zm-52.039-16.6301l-1.42 2.6427 3.593 1.9308.772-4.0052-2.945-.5683zm-13.494 51.7361l2.999.054.054-3.001-3-.053-.053 3zm49.274 17.297l.676-2.923-1.875-.433-1.176 1.523 2.375 1.833zm18.989-51.16C617.023 107.28 618 103 618 98.5h-6c0 3.625-.785 7.058-2.192 10.146l5.46 2.487zM618 98.5c0-16.8447-13.655-30.5-30.5-30.5v6c13.531 0 24.5 10.969 24.5 24.5h6zM587.5 68c-14.861 0-27.233 10.625-29.947 24.6916l5.891 1.1366C565.624 82.5317 575.569 74 587.5 74v-6zm-40 25c4.194 0 8.134 1.0514 11.579 2.9026l2.84-5.2853C557.622 88.3085 552.709 87 547.5 87v6zM523 117.5c0-13.531 10.969-24.5 24.5-24.5v-6c-16.845 0-30.5 13.655-30.5 30.5h6zm24.058 24.496C533.731 141.761 523 130.883 523 117.5h-6c0 16.661 13.359 30.202 29.952 30.495l.106-5.999zM550 145.5c0-.15.001-.301.004-.45l-5.999-.108c-.003.185-.005.372-.005.558h6zm24.5 24.5c-13.531 0-24.5-10.969-24.5-24.5h-6c0 16.845 13.655 30.5 30.5 30.5v-6zm19.404-9.54c-4.485 5.808-11.508 9.54-19.404 9.54v6c9.833 0 18.58-4.657 24.153-11.873l-4.749-3.667zm8.596-.46c-1.911 0-3.766-.218-5.545-.63l-1.352 5.846c2.219.513 4.528.784 6.897.784v-6zm24.5-24.5c0 13.531-10.969 24.5-24.5 24.5v6c16.845 0 30.5-13.655 30.5-30.5h-6zm-15.558-22.818C620.556 116.257 627 125.13 627 135.5h6c0-12.921-8.033-23.958-19.367-28.403l-2.191 5.585z" fill="#2C2C31" mask="url(#e)"/><mask id="f" fill="#fff"><path fill-rule="evenodd" clip-rule="evenodd" d="M294.64 36.1858C289.632 29.4008 281.58 25 272.5 25c-10.477 0-19.585 5.8586-24.228 14.4783C243.23 33.6717 235.794 30 227.5 30 212.312 30 200 42.3122 200 57.5S212.312 85 227.5 85c3.04 0 5.966-.4934 8.7-1.4045C241.195 90.5045 249.323 95 258.5 95c11.693 0 21.681-7.2975 25.659-17.5866.406-.1902.806-.39 1.201-.5992C290.368 83.5992 298.42 88 307.5 88c15.188 0 27.5-12.3122 27.5-27.5S322.688 33 307.5 33c-4.646 0-9.022 1.1519-12.86 3.1858z"/></mask><path fill-rule="evenodd" clip-rule="evenodd" d="M294.64 36.1858C289.632 29.4008 281.58 25 272.5 25c-10.477 0-19.585 5.8586-24.228 14.4783C243.23 33.6717 235.794 30 227.5 30 212.312 30 200 42.3122 200 57.5S212.312 85 227.5 85c3.04 0 5.966-.4934 8.7-1.4045C241.195 90.5045 249.323 95 258.5 95c11.693 0 21.681-7.2975 25.659-17.5866.406-.1902.806-.39 1.201-.5992C290.368 83.5992 298.42 88 307.5 88c15.188 0 27.5-12.3122 27.5-27.5S322.688 33 307.5 33c-4.646 0-9.022 1.1519-12.86 3.1858z" fill="#FFF4D6"/><path d="M294.64 36.1858l-2.413 1.7815 1.534 2.0796 2.284-1.2104-1.405-2.6507zm-46.368 3.2925l-2.265 1.9669 2.847 3.279 2.06-3.8233-2.642-1.4226zM236.2 83.5955l2.431-1.7578-1.29-1.7846-2.09.6962.949 2.8462zm47.959-6.1821l-1.273-2.7163-1.091.5112-.434 1.1233 2.798 1.0818zm1.201-.5992l2.413-1.7815-1.534-2.0796-2.284 1.2104 1.405 2.6507zm11.694-42.41C291.505 26.886 282.573 22 272.5 22v6c8.087 0 15.26 3.9156 19.727 9.9673l4.827-3.5631zM272.5 22c-11.624 0-21.724 6.5033-26.869 16.0557l5.283 2.8452C255.054 33.2138 263.17 28 272.5 28v-6zm-21.962 15.5113C244.95 31.0765 236.699 27 227.5 27v6c7.389 0 14.011 3.2669 18.507 8.4452l4.531-3.9339zM227.5 27C210.655 27 197 40.6553 197 57.5h6c0-13.531 10.969-24.5 24.5-24.5v-6zM197 57.5c0 16.8447 13.655 30.5 30.5 30.5v-6C213.969 82 203 71.031 203 57.5h-6zM227.5 88c3.367 0 6.612-.5467 9.648-1.5584l-1.897-5.6923C232.819 81.5598 230.214 82 227.5 82v6zm6.269-2.6468C239.304 93.0089 248.319 98 258.5 98v-6c-8.174 0-15.413-3.9999-19.869-10.1623l-4.862 3.5155zM258.5 98c12.973 0 24.047-8.0983 28.457-19.5048l-5.596-2.1636C277.815 85.5033 268.912 92 258.5 92v6zm26.932-17.8702c.451-.2111.895-.4328 1.333-.6648l-2.81-5.3015c-.352.1863-.708.3642-1.069.5336l2.546 5.4327zm-2.486-1.534C288.495 86.114 297.427 91 307.5 91v-6c-8.087 0-15.26-3.9156-19.727-9.9673l-4.827 3.5631zM307.5 91c16.845 0 30.5-13.6553 30.5-30.5h-6c0 13.531-10.969 24.5-24.5 24.5v6zM338 60.5c0-16.8447-13.655-30.5-30.5-30.5v6c13.531 0 24.5 10.969 24.5 24.5h6zM307.5 30c-5.147 0-10.005 1.2774-14.265 3.535l2.81 5.3015C299.46 37.0265 303.356 36 307.5 36v-6z" fill="#2C2C31" mask="url(#f)"/></g><defs><clipPath id="clip0"><path fill="#fff" d="M0 0h640v400H0z"/></clipPath></defs></svg>