<svg width="640" height="400" viewBox="0 0 640 400" fill="none" xmlns="http://www.w3.org/2000/svg">
<g clip-path="url(#clip0)">
<mask id="mask0" mask-type="alpha" maskUnits="userSpaceOnUse" x="280" y="106" width="188" height="188">
<path fill-rule="evenodd" clip-rule="evenodd" d="M374 294C425.915 294 468 251.915 468 200C468 148.085 425.915 106 374 106C322.085 106 280 148.085 280 200C280 251.915 322.085 294 374 294Z" fill="white"/>
</mask>
<g mask="url(#mask0)">
<mask id="path-3-inside-1" fill="white">
<path fill-rule="evenodd" clip-rule="evenodd" d="M376 154C402 154 407 185 407 185H345C345 185 350 154 376 154ZM374 294C417.258 294 453.692 264.78 464.639 225H470V209H467.575C467.856 206.038 468 203.036 468 200C468 148.085 425.915 106 374 106C322.085 106 280 148.085 280 200C280 251.915 322.085 294 374 294ZM407 209H467.575C467.054 214.484 466.062 219.831 464.639 225H400.955C396.414 232.58 388.72 240 376 240C350 240 345 209 345 209H376H407ZM360 132C360 132 341.032 145.999 319.22 176.31C297.408 206.621 278 240 278 240L274 204C274 204 288.982 182.423 310 164C331.018 145.577 360 132 360 132Z"/>
</mask>
<path fill-rule="evenodd" clip-rule="evenodd" d="M376 154C402 154 407 185 407 185H345C345 185 350 154 376 154ZM374 294C417.258 294 453.692 264.78 464.639 225H470V209H467.575C467.856 206.038 468 203.036 468 200C468 148.085 425.915 106 374 106C322.085 106 280 148.085 280 200C280 251.915 322.085 294 374 294ZM407 209H467.575C467.054 214.484 466.062 219.831 464.639 225H400.955C396.414 232.58 388.72 240 376 240C350 240 345 209 345 209H376H407ZM360 132C360 132 341.032 145.999 319.22 176.31C297.408 206.621 278 240 278 240L274 204C274 204 288.982 182.423 310 164C331.018 145.577 360 132 360 132Z" fill="#9DBBE5"/>
<path d="M407 185V188H410.523L409.962 184.522L407 185ZM345 185L342.038 184.522L341.477 188H345V185ZM470 225V228H473V225H470ZM470 209H473V206H470V209ZM400.955 225V222H399.255L398.382 223.458L400.955 225ZM345 209V206H341.477L342.038 209.478L345 209ZM360 132L361.782 134.414L358.727 129.283L360 132ZM278 240L275.018 240.331L276.023 249.369L280.593 241.508L278 240ZM274 204L271.536 202.289L270.894 203.213L271.018 204.331L274 204ZM407 185C409.962 184.522 409.962 184.521 409.961 184.52C409.961 184.519 409.961 184.517 409.961 184.516C409.96 184.514 409.96 184.511 409.959 184.507C409.958 184.5 409.957 184.491 409.955 184.481C409.951 184.459 409.946 184.43 409.94 184.394C409.927 184.322 409.909 184.222 409.885 184.094C409.837 183.839 409.764 183.476 409.664 183.02C409.462 182.11 409.147 180.825 408.685 179.291C407.765 176.234 406.245 172.128 403.844 167.994C399.036 159.712 390.457 151 376 151V157C387.543 157 394.464 163.788 398.656 171.006C400.755 174.622 402.11 178.266 402.94 181.021C403.353 182.393 403.632 183.531 403.805 184.316C403.892 184.708 403.952 185.011 403.99 185.21C404.009 185.309 404.022 185.382 404.03 185.428C404.034 185.45 404.036 185.466 404.038 185.474C404.038 185.479 404.039 185.481 404.039 185.482C404.039 185.482 404.039 185.482 404.039 185.481C404.039 185.481 404.039 185.48 404.039 185.48C404.038 185.479 404.038 185.478 407 185ZM345 188H407V182H345V188ZM376 151C361.543 151 352.964 159.712 348.156 167.994C345.755 172.128 344.235 176.234 343.315 179.291C342.853 180.825 342.538 182.11 342.336 183.02C342.236 183.476 342.163 183.839 342.115 184.094C342.091 184.222 342.073 184.322 342.06 184.394C342.054 184.43 342.049 184.459 342.045 184.481C342.043 184.491 342.042 184.5 342.041 184.507C342.04 184.511 342.04 184.514 342.039 184.516C342.039 184.517 342.039 184.519 342.039 184.52C342.038 184.521 342.038 184.522 345 185C347.962 185.478 347.962 185.479 347.961 185.48C347.961 185.48 347.961 185.481 347.961 185.481C347.961 185.482 347.961 185.482 347.961 185.482C347.961 185.481 347.962 185.479 347.962 185.474C347.964 185.466 347.966 185.45 347.97 185.428C347.978 185.382 347.991 185.309 348.01 185.21C348.048 185.011 348.108 184.708 348.195 184.316C348.368 183.531 348.647 182.393 349.06 181.021C349.89 178.266 351.245 174.622 353.344 171.006C357.536 163.788 364.457 157 376 157V151ZM461.747 224.204C451.148 262.715 415.873 291 374 291V297C418.643 297 456.235 266.844 467.532 225.796L461.747 224.204ZM470 222H464.639V228H470V222ZM467 209V225H473V209H467ZM467.575 212H470V206H467.575V212ZM465 200C465 202.941 464.861 205.848 464.588 208.716L470.561 209.284C470.852 206.227 471 203.131 471 200H465ZM374 109C424.258 109 465 149.742 465 200H471C471 146.428 427.572 103 374 103V109ZM283 200C283 149.742 323.742 109 374 109V103C320.428 103 277 146.428 277 200H283ZM374 291C323.742 291 283 250.258 283 200H277C277 253.572 320.428 297 374 297V291ZM467.575 206H407V212H467.575V206ZM467.532 225.796C469 220.461 470.024 214.942 470.561 209.284L464.588 208.716C464.084 214.026 463.123 219.202 461.747 224.204L467.532 225.796ZM400.955 228H464.639V222H400.955V228ZM398.382 223.458C394.164 230.499 387.3 237 376 237V243C390.141 243 398.665 234.661 403.529 226.542L398.382 223.458ZM376 237C364.457 237 357.536 230.212 353.344 222.994C351.245 219.378 349.89 215.734 349.06 212.979C348.647 211.607 348.368 210.469 348.195 209.684C348.108 209.292 348.048 208.989 348.01 208.79C347.991 208.691 347.978 208.618 347.97 208.572C347.966 208.55 347.964 208.534 347.962 208.526C347.962 208.521 347.961 208.519 347.961 208.518C347.961 208.518 347.961 208.518 347.961 208.519C347.961 208.519 347.961 208.52 347.961 208.52C347.962 208.521 347.962 208.522 345 209C342.038 209.478 342.038 209.479 342.039 209.48C342.039 209.481 342.039 209.483 342.039 209.484C342.04 209.486 342.04 209.489 342.041 209.493C342.042 209.5 342.043 209.509 342.045 209.519C342.049 209.541 342.054 209.57 342.06 209.606C342.073 209.678 342.091 209.778 342.115 209.906C342.163 210.161 342.236 210.524 342.336 210.98C342.538 211.89 342.853 213.175 343.315 214.709C344.235 217.766 345.755 221.872 348.156 226.006C352.964 234.288 361.543 243 376 243V237ZM345 212H376V206H345V212ZM376 212H407V206H376V212ZM360 132C358.218 129.586 358.218 129.587 358.217 129.587C358.217 129.587 358.216 129.588 358.215 129.589C358.214 129.59 358.212 129.591 358.21 129.592C358.207 129.595 358.202 129.599 358.195 129.603C358.183 129.612 358.166 129.625 358.145 129.641C358.102 129.673 358.042 129.719 357.963 129.779C357.807 129.898 357.58 130.073 357.286 130.304C356.7 130.766 355.848 131.452 354.762 132.367C352.591 134.197 349.484 136.943 345.694 140.641C338.116 148.038 327.804 159.246 316.785 174.558L321.655 178.062C332.449 163.063 342.527 152.117 349.885 144.936C353.564 141.345 356.562 138.697 358.629 136.955C359.662 136.084 360.463 135.44 360.998 135.018C361.266 134.807 361.468 134.651 361.6 134.551C361.666 134.5 361.714 134.464 361.745 134.441C361.76 134.43 361.771 134.422 361.777 134.417C361.78 134.415 361.782 134.414 361.783 134.413C361.783 134.413 361.783 134.413 361.783 134.413C361.783 134.413 361.782 134.413 361.782 134.413C361.782 134.413 361.782 134.414 360 132ZM316.785 174.558C305.826 189.786 295.483 205.769 287.886 217.932C284.086 224.017 280.968 229.152 278.8 232.768C277.716 234.576 276.869 236.005 276.293 236.982C276.004 237.471 275.783 237.847 275.634 238.102C275.56 238.229 275.503 238.326 275.465 238.392C275.446 238.424 275.432 238.449 275.422 238.466C275.417 238.474 275.413 238.481 275.411 238.485C275.409 238.487 275.408 238.489 275.408 238.49C275.407 238.491 275.407 238.491 275.407 238.491C275.407 238.492 275.407 238.492 278 240C280.593 241.508 280.593 241.508 280.594 241.508C280.594 241.508 280.594 241.507 280.594 241.507C280.595 241.506 280.595 241.505 280.596 241.503C280.599 241.499 280.602 241.493 280.607 241.486C280.616 241.47 280.629 241.446 280.648 241.415C280.684 241.352 280.739 241.258 280.812 241.134C280.958 240.884 281.176 240.514 281.461 240.031C282.03 239.064 282.87 237.648 283.946 235.854C286.099 232.264 289.197 227.16 292.975 221.111C300.535 209.007 310.802 193.144 321.655 178.062L316.785 174.558ZM280.982 239.669L276.982 203.669L271.018 204.331L275.018 240.331L280.982 239.669ZM274 204C276.464 205.711 276.464 205.711 276.464 205.711C276.464 205.711 276.464 205.711 276.464 205.711C276.464 205.711 276.465 205.71 276.465 205.71C276.466 205.708 276.469 205.705 276.472 205.7C276.478 205.692 276.488 205.678 276.501 205.659C276.527 205.621 276.568 205.562 276.623 205.485C276.733 205.329 276.899 205.095 277.119 204.79C277.559 204.179 278.215 203.28 279.069 202.141C280.778 199.863 283.278 196.628 286.429 192.822C292.739 185.2 301.627 175.328 311.977 166.256L308.023 161.744C297.354 171.095 288.242 181.223 281.807 188.996C278.586 192.886 276.027 196.197 274.269 198.541C273.39 199.713 272.712 200.643 272.25 201.284C272.02 201.604 271.843 201.852 271.723 202.022C271.664 202.107 271.618 202.172 271.586 202.216C271.571 202.239 271.559 202.256 271.55 202.268C271.546 202.274 271.543 202.279 271.54 202.283C271.539 202.284 271.538 202.286 271.537 202.287C271.537 202.287 271.537 202.288 271.536 202.288C271.536 202.289 271.536 202.289 274 204ZM311.977 166.256C322.276 157.229 334.587 149.342 344.381 143.69C349.267 140.87 353.502 138.621 356.511 137.079C358.016 136.308 359.213 135.714 360.031 135.315C360.439 135.115 360.753 134.964 360.963 134.864C361.068 134.813 361.147 134.776 361.199 134.751C361.225 134.739 361.244 134.73 361.257 134.724C361.263 134.721 361.267 134.719 361.27 134.718C361.271 134.717 361.272 134.717 361.273 134.717C361.273 134.717 361.273 134.717 361.273 134.717C361.273 134.717 361.273 134.717 360 132C358.727 129.283 358.727 129.284 358.726 129.284C358.726 129.284 358.725 129.284 358.725 129.285C358.723 129.285 358.722 129.286 358.719 129.287C358.715 129.289 358.709 129.292 358.701 129.296C358.685 129.303 358.663 129.314 358.633 129.328C358.574 129.356 358.488 129.397 358.375 129.45C358.151 129.558 357.821 129.716 357.397 129.924C356.547 130.339 355.316 130.95 353.775 131.739C350.694 133.318 346.369 135.615 341.382 138.493C331.432 144.235 318.742 152.348 308.023 161.744L311.977 166.256Z" fill="#2C2C31" mask="url(#path-3-inside-1)"/>
</g>
<mask id="path-5-inside-2" fill="white">
<path fill-rule="evenodd" clip-rule="evenodd" d="M487.845 186.211L465.92 195.972L494.391 259.92L495.592 233.114L516.317 250.159L487.845 186.211Z"/>
</mask>
<path fill-rule="evenodd" clip-rule="evenodd" d="M487.845 186.211L465.92 195.972L494.391 259.92L495.592 233.114L516.317 250.159L487.845 186.211Z" fill="#E376B5"/>
<path d="M465.92 195.972L464.7 193.232L461.959 194.452L463.179 197.192L465.92 195.972ZM487.845 186.211L490.586 184.99L489.365 182.25L486.625 183.47L487.845 186.211ZM494.391 259.92L491.651 261.141L497.388 260.055L494.391 259.92ZM495.592 233.114L497.498 230.797L492.864 226.986L492.595 232.98L495.592 233.114ZM516.317 250.159L514.411 252.476L519.057 248.939L516.317 250.159ZM467.14 198.713L489.065 188.951L486.625 183.47L464.7 193.232L467.14 198.713ZM497.132 258.7L468.661 194.752L463.179 197.192L491.651 261.141L497.132 258.7ZM497.388 260.055L498.589 233.249L492.595 232.98L491.394 259.786L497.388 260.055ZM493.687 235.432L514.411 252.476L518.222 247.842L497.498 230.797L493.687 235.432ZM485.104 187.431L513.576 251.379L519.057 248.939L490.586 184.99L485.104 187.431Z" fill="#2C2C31" mask="url(#path-5-inside-2)"/>
<path d="M492.603 164.936C498.331 177.802 492.545 192.875 479.68 198.603C466.814 204.331 451.741 198.545 446.012 185.68C440.284 172.814 446.07 157.741 458.936 152.012C471.802 146.284 486.875 152.07 492.603 164.936Z" fill="#FFEA56" stroke="#2C2C31" stroke-width="3"/>
<path d="M466.064 164.631L468.307 169.67L469.931 168.947L470.689 170.648L465.547 172.937L464.79 171.236L466.427 170.507L464.184 165.468L462.546 166.197L461.789 164.496L466.931 162.207L467.688 163.908L466.064 164.631Z" fill="#2C2C31"/>
<path d="M458.134 180.354L459.731 189.757L456.418 191.232L450.499 183.753L452.43 182.893L457.026 188.709L457.436 188.526L456.19 181.219L458.134 180.354Z" fill="#2C2C31"/>
<path d="M465.782 187.185C464.64 187.694 463.594 187.731 462.644 187.296C461.694 186.86 460.896 185.918 460.251 184.468C459.602 183.01 459.431 181.789 459.738 180.804C460.05 179.807 460.782 179.052 461.933 178.54C463.084 178.027 464.13 177.99 465.072 178.43C466.018 178.856 466.815 179.799 467.464 181.257C468.114 182.715 468.282 183.942 467.97 184.94C467.663 185.924 466.934 186.673 465.782 187.185ZM465.025 185.484C465.596 185.23 465.934 184.829 466.038 184.283C466.138 183.727 465.987 182.998 465.584 182.094C465.182 181.19 464.743 180.594 464.267 180.305C463.787 180.008 463.262 179.986 462.69 180.241C462.128 180.491 461.79 180.892 461.678 181.443C461.574 181.989 461.725 182.719 462.131 183.631C462.534 184.535 462.975 185.136 463.454 185.433C463.939 185.718 464.462 185.735 465.025 185.484Z" fill="#2C2C31"/>
<path d="M474.088 175.289L471.351 176.507L474.352 183.247L472.472 184.084L469.471 177.344L466.721 178.569L465.964 176.868L473.331 173.588L474.088 175.289Z" fill="#2C2C31"/>
<path d="M483.706 177.044L484.464 178.745L477.826 181.701L474.068 173.26L480.475 170.407L481.233 172.108L476.705 174.124L477.423 175.735L481.72 173.822L482.409 175.369L478.112 177.283L478.949 179.163L483.706 177.044Z" fill="#2C2C31"/>
<path d="M481.596 169.908L484.857 168.456C486.136 167.886 487.237 167.835 488.161 168.303C489.092 168.767 489.854 169.664 490.447 170.994C491.077 172.409 491.255 173.602 490.982 174.571C490.717 175.537 489.967 176.295 488.73 176.846L485.354 178.349L481.596 169.908ZM487.935 175.162C488.523 174.9 488.877 174.513 488.996 174C489.12 173.475 488.977 172.752 488.567 171.831C488.191 170.987 487.754 170.43 487.256 170.161C486.767 169.889 486.207 169.893 485.576 170.174L484.233 170.772L486.477 175.811L487.935 175.162Z" fill="#2C2C31"/>
<path d="M375 171.5C375 177.299 370.299 182 364.5 182C358.701 182 354 177.299 354 171.5C354 165.701 358.701 161 364.5 161C370.299 161 375 165.701 375 171.5Z" fill="#FFF4D6" stroke="#2C2C31" stroke-width="2"/>
<path d="M370.5 172.5C370.5 174.157 369.157 175.5 367.5 175.5C365.843 175.5 364.5 174.157 364.5 172.5C364.5 170.843 365.843 169.5 367.5 169.5C369.157 169.5 370.5 170.843 370.5 172.5Z" fill="#2C2C31" stroke="#2C2C31" stroke-width="3"/>
<path d="M398 171.5C398 177.299 393.299 182 387.5 182C381.701 182 377 177.299 377 171.5C377 165.701 381.701 161 387.5 161C393.299 161 398 165.701 398 171.5Z" fill="#FFF4D6" stroke="#2C2C31" stroke-width="2"/>
<path d="M394.5 172.5C394.5 174.157 393.157 175.5 391.5 175.5C389.843 175.5 388.5 174.157 388.5 172.5C388.5 170.843 389.843 169.5 391.5 169.5C393.157 169.5 394.5 170.843 394.5 172.5Z" fill="#2C2C31" stroke="#2C2C31" stroke-width="3"/>
<path d="M609 288.5C617.013 288.5 624.866 291.886 632.211 297.127C639.549 302.364 646.272 309.377 651.99 316.444C657.703 323.503 662.376 330.57 665.623 335.877C667.245 338.528 668.509 340.736 669.366 342.279C669.408 342.354 669.449 342.428 669.488 342.5H475.663C478.567 340.971 482.555 338.889 487.356 336.429C497.773 331.091 512.01 323.975 527.298 316.86C542.59 309.743 558.912 302.638 573.501 297.315C588.156 291.969 600.857 288.5 609 288.5Z" fill="#4A668E" stroke="#2C2C31" stroke-width="3"/>
<path d="M-31.5 280.506C-31.5 277.742 -29.7698 275.361 -27.1881 274.626C-8.12069 269.199 62.8039 252.376 193.938 257.84C336.512 263.781 624.649 308.606 672.862 316.226C676.091 316.736 678.318 319.571 678.156 322.919L672.87 432.155C672.703 435.619 669.845 438.341 666.378 438.341H-25C-28.5898 438.341 -31.5 435.431 -31.5 431.841V280.506Z" fill="#3EA26E" stroke="#2C2C31" stroke-width="3"/>
<mask id="path-15-inside-3" fill="white">
<path fill-rule="evenodd" clip-rule="evenodd" d="M105.527 92.112C100.826 83.693 91.8276 78 81.5 78C66.3122 78 54 90.3122 54 105.5C54 107.389 54.1905 109.234 54.5534 111.016C39.8038 111.515 28 123.629 28 138.5C28 153.688 40.3122 166 55.5 166C65.1194 166 73.5853 161.061 78.5 153.58C83.4147 161.061 91.8806 166 101.5 166C115.846 166 127.627 155.014 128.888 140.996C140.488 137.769 149 127.128 149 114.5C149 99.3122 136.688 87 121.5 87C115.544 87 110.029 88.8937 105.527 92.112Z"/>
</mask>
<path fill-rule="evenodd" clip-rule="evenodd" d="M105.527 92.112C100.826 83.693 91.8276 78 81.5 78C66.3122 78 54 90.3122 54 105.5C54 107.389 54.1905 109.234 54.5534 111.016C39.8038 111.515 28 123.629 28 138.5C28 153.688 40.3122 166 55.5 166C65.1194 166 73.5853 161.061 78.5 153.58C83.4147 161.061 91.8806 166 101.5 166C115.846 166 127.627 155.014 128.888 140.996C140.488 137.769 149 127.128 149 114.5C149 99.3122 136.688 87 121.5 87C115.544 87 110.029 88.8937 105.527 92.112Z" fill="#FFF4D6"/>
<path d="M105.527 92.112L102.907 93.5746L104.543 96.5029L107.271 94.5527L105.527 92.112ZM54.5534 111.016L54.6548 114.014L58.201 113.894L57.493 110.417L54.5534 111.016ZM78.5 153.58L81.0073 151.933L78.5 148.117L75.9927 151.933L78.5 153.58ZM128.888 140.996L128.084 138.106L126.086 138.662L125.9 140.727L128.888 140.996ZM81.5 81C90.697 81 98.7148 86.0663 102.907 93.5746L108.146 90.6494C102.936 81.3197 92.9582 75 81.5 75V81ZM57 105.5C57 91.969 67.969 81 81.5 81V75C64.6553 75 51 88.6553 51 105.5H57ZM57.493 110.417C57.1701 108.831 57 107.187 57 105.5H51C51 107.591 51.2109 109.637 51.6137 111.615L57.493 110.417ZM31 138.5C31 125.252 41.5162 114.459 54.6548 114.014L54.4519 108.018C38.0915 108.571 25 122.006 25 138.5H31ZM55.5 163C41.969 163 31 152.031 31 138.5H25C25 155.345 38.6553 169 55.5 169V163ZM75.9927 151.933C71.6091 158.605 64.067 163 55.5 163V169C66.1718 169 75.5614 163.517 81.0073 155.228L75.9927 151.933ZM101.5 163C92.933 163 85.3909 158.605 81.0073 151.933L75.9927 155.228C81.4386 163.517 90.8282 169 101.5 169V163ZM125.9 140.727C124.777 153.213 114.28 163 101.5 163V169C117.413 169 130.477 156.816 131.876 141.265L125.9 140.727ZM146 114.5C146 125.746 138.42 135.23 128.084 138.106L129.692 143.886C142.556 140.307 152 128.51 152 114.5H146ZM121.5 90C135.031 90 146 100.969 146 114.5H152C152 97.6553 138.345 84 121.5 84V90ZM107.271 94.5527C111.282 91.6861 116.19 90 121.5 90V84C114.898 84 108.777 86.1014 103.782 89.6713L107.271 94.5527Z" fill="#2C2C31" mask="url(#path-15-inside-3)"/>
<mask id="path-17-inside-4" fill="white">
<path fill-rule="evenodd" clip-rule="evenodd" d="M612.538 109.89C614.119 106.419 615 102.562 615 98.5C615 83.3122 602.688 71 587.5 71C574.104 71 562.945 80.5783 560.499 93.2599C556.628 91.18 552.202 90 547.5 90C532.312 90 520 102.312 520 117.5C520 132.522 532.045 144.731 547.005 144.996C547.002 145.163 547 145.332 547 145.5C547 160.688 559.312 173 574.5 173C583.365 173 591.25 168.806 596.279 162.293C598.278 162.756 600.36 163 602.5 163C617.688 163 630 150.688 630 135.5C630 123.854 622.761 113.9 612.538 109.89Z"/>
</mask>
<path fill-rule="evenodd" clip-rule="evenodd" d="M612.538 109.89C614.119 106.419 615 102.562 615 98.5C615 83.3122 602.688 71 587.5 71C574.104 71 562.945 80.5783 560.499 93.2599C556.628 91.18 552.202 90 547.5 90C532.312 90 520 102.312 520 117.5C520 132.522 532.045 144.731 547.005 144.996C547.002 145.163 547 145.332 547 145.5C547 160.688 559.312 173 574.5 173C583.365 173 591.25 168.806 596.279 162.293C598.278 162.756 600.36 163 602.5 163C617.688 163 630 150.688 630 135.5C630 123.854 622.761 113.9 612.538 109.89Z" fill="#FFF4D6"/>
<path d="M612.538 109.89L609.808 108.646L608.495 111.526L611.442 112.682L612.538 109.89ZM560.499 93.2599L559.079 95.9026L562.672 97.8334L563.444 93.8282L560.499 93.2599ZM547.005 144.996L550.004 145.05L550.058 142.049L547.058 141.996L547.005 144.996ZM596.279 162.293L596.955 159.37L595.08 158.937L593.904 160.46L596.279 162.293ZM615.268 111.133C617.023 107.28 618 103 618 98.5H612C612 102.125 611.215 105.558 609.808 108.646L615.268 111.133ZM618 98.5C618 81.6553 604.345 68 587.5 68V74C601.031 74 612 84.969 612 98.5H618ZM587.5 68C572.639 68 560.267 78.625 557.553 92.6916L563.444 93.8282C565.624 82.5317 575.569 74 587.5 74V68ZM547.5 93C551.694 93 555.634 94.0514 559.079 95.9026L561.919 90.6173C557.622 88.3085 552.709 87 547.5 87V93ZM523 117.5C523 103.969 533.969 93 547.5 93V87C530.655 87 517 100.655 517 117.5H523ZM547.058 141.996C533.731 141.761 523 130.883 523 117.5H517C517 134.161 530.359 147.702 546.952 147.995L547.058 141.996ZM550 145.5C550 145.35 550.001 145.199 550.004 145.05L544.005 144.942C544.002 145.127 544 145.314 544 145.5H550ZM574.5 170C560.969 170 550 159.031 550 145.5H544C544 162.345 557.655 176 574.5 176V170ZM593.904 160.46C589.419 166.268 582.396 170 574.5 170V176C584.333 176 593.08 171.343 598.653 164.127L593.904 160.46ZM602.5 160C600.589 160 598.734 159.782 596.955 159.37L595.603 165.216C597.822 165.729 600.131 166 602.5 166V160ZM627 135.5C627 149.031 616.031 160 602.5 160V166C619.345 166 633 152.345 633 135.5H627ZM611.442 112.682C620.556 116.257 627 125.13 627 135.5H633C633 122.579 624.967 111.542 613.633 107.097L611.442 112.682Z" fill="#2C2C31" mask="url(#path-17-inside-4)"/>
<mask id="path-19-inside-5" fill="white">
<path fill-rule="evenodd" clip-rule="evenodd" d="M294.64 36.1858C289.632 29.4008 281.58 25 272.5 25C262.023 25 252.915 30.8586 248.272 39.4783C243.23 33.6717 235.794 30 227.5 30C212.312 30 200 42.3122 200 57.5C200 72.6878 212.312 85 227.5 85C230.54 85 233.466 84.5066 236.2 83.5955C241.195 90.5045 249.323 95 258.5 95C270.193 95 280.181 87.7025 284.159 77.4134C284.565 77.2232 284.965 77.0234 285.36 76.8142C290.368 83.5992 298.42 88 307.5 88C322.688 88 335 75.6878 335 60.5C335 45.3122 322.688 33 307.5 33C302.854 33 298.478 34.1519 294.64 36.1858Z"/>
</mask>
<path fill-rule="evenodd" clip-rule="evenodd" d="M294.64 36.1858C289.632 29.4008 281.58 25 272.5 25C262.023 25 252.915 30.8586 248.272 39.4783C243.23 33.6717 235.794 30 227.5 30C212.312 30 200 42.3122 200 57.5C200 72.6878 212.312 85 227.5 85C230.54 85 233.466 84.5066 236.2 83.5955C241.195 90.5045 249.323 95 258.5 95C270.193 95 280.181 87.7025 284.159 77.4134C284.565 77.2232 284.965 77.0234 285.36 76.8142C290.368 83.5992 298.42 88 307.5 88C322.688 88 335 75.6878 335 60.5C335 45.3122 322.688 33 307.5 33C302.854 33 298.478 34.1519 294.64 36.1858Z" fill="#FFF4D6"/>
<path d="M294.64 36.1858L292.227 37.9673L293.761 40.0469L296.045 38.8365L294.64 36.1858ZM248.272 39.4783L246.007 41.4452L248.854 44.7242L250.914 40.9009L248.272 39.4783ZM236.2 83.5955L238.631 81.8377L237.341 80.0531L235.251 80.7493L236.2 83.5955ZM284.159 77.4134L282.886 74.6971L281.795 75.2083L281.361 76.3316L284.159 77.4134ZM285.36 76.8142L287.773 75.0327L286.239 72.9531L283.955 74.1635L285.36 76.8142ZM297.054 34.4042C291.505 26.886 282.573 22 272.5 22V28C280.587 28 287.76 31.9156 292.227 37.9673L297.054 34.4042ZM272.5 22C260.876 22 250.776 28.5033 245.631 38.0557L250.914 40.9009C255.054 33.2138 263.17 28 272.5 28V22ZM250.538 37.5113C244.95 31.0765 236.699 27 227.5 27V33C234.889 33 241.511 36.2669 246.007 41.4452L250.538 37.5113ZM227.5 27C210.655 27 197 40.6553 197 57.5H203C203 43.969 213.969 33 227.5 33V27ZM197 57.5C197 74.3447 210.655 88 227.5 88V82C213.969 82 203 71.031 203 57.5H197ZM227.5 88C230.867 88 234.112 87.4533 237.148 86.4416L235.251 80.7493C232.819 81.5598 230.214 82 227.5 82V88ZM233.769 85.3532C239.304 93.0089 248.319 98 258.5 98V92C250.326 92 243.087 88.0001 238.631 81.8377L233.769 85.3532ZM258.5 98C271.473 98 282.547 89.9017 286.957 78.4952L281.361 76.3316C277.815 85.5033 268.912 92 258.5 92V98ZM285.432 80.1298C285.883 79.9187 286.327 79.697 286.765 79.465L283.955 74.1635C283.603 74.3498 283.247 74.5277 282.886 74.6971L285.432 80.1298ZM282.946 78.5958C288.495 86.114 297.427 91 307.5 91V85C299.413 85 292.24 81.0844 287.773 75.0327L282.946 78.5958ZM307.5 91C324.345 91 338 77.3447 338 60.5H332C332 74.031 321.031 85 307.5 85V91ZM338 60.5C338 43.6553 324.345 30 307.5 30V36C321.031 36 332 46.969 332 60.5H338ZM307.5 30C302.353 30 297.495 31.2774 293.235 33.535L296.045 38.8365C299.46 37.0265 303.356 36 307.5 36V30Z" fill="#2C2C31" mask="url(#path-19-inside-5)"/>
</g>
<defs>
<clipPath id="clip0">
<rect width="640" height="400" fill="white"/>
</clipPath>
</defs>
</svg>
