<svg width="240" height="240" viewBox="0 0 240 240" fill="none" xmlns="http://www.w3.org/2000/svg">
<g clip-path="url(#clip0)">
<mask id="mask0" mask-type="alpha" maskUnits="userSpaceOnUse" x="80" y="26" width="188" height="188">
<path fill-rule="evenodd" clip-rule="evenodd" d="M174 214C225.915 214 268 171.915 268 120C268 68.0852 225.915 26 174 26C122.085 26 80 68.0852 80 120C80 171.915 122.085 214 174 214Z" fill="white"/>
</mask>
<g mask="url(#mask0)">
<mask id="path-3-inside-1" fill="white">
<path fill-rule="evenodd" clip-rule="evenodd" d="M176 74C202 74 207 105 207 105H145C145 105 150 74 176 74ZM174 214C217.258 214 253.692 184.78 264.639 145H270V129H267.575C267.856 126.038 268 123.036 268 120C268 68.0852 225.915 26 174 26C122.085 26 80 68.0852 80 120C80 171.915 122.085 214 174 214ZM207 129H267.575C267.054 134.484 266.062 139.831 264.639 145H200.955C196.414 152.58 188.72 160 176 160C150 160 145 129 145 129H176H207ZM160 52C160 52 141.032 65.9994 119.22 96.3099C97.4078 126.621 78 160 78 160L74 124C74 124 88.9818 102.423 110 84C131.018 65.5766 160 52 160 52Z"/>
</mask>
<path fill-rule="evenodd" clip-rule="evenodd" d="M176 74C202 74 207 105 207 105H145C145 105 150 74 176 74ZM174 214C217.258 214 253.692 184.78 264.639 145H270V129H267.575C267.856 126.038 268 123.036 268 120C268 68.0852 225.915 26 174 26C122.085 26 80 68.0852 80 120C80 171.915 122.085 214 174 214ZM207 129H267.575C267.054 134.484 266.062 139.831 264.639 145H200.955C196.414 152.58 188.72 160 176 160C150 160 145 129 145 129H176H207ZM160 52C160 52 141.032 65.9994 119.22 96.3099C97.4078 126.621 78 160 78 160L74 124C74 124 88.9818 102.423 110 84C131.018 65.5766 160 52 160 52Z" fill="#9DBBE5"/>
<path d="M207 105V108H210.523L209.962 104.522L207 105ZM145 105L142.038 104.522L141.477 108H145V105ZM270 145V148H273V145H270ZM270 129H273V126H270V129ZM200.955 145V142H199.255L198.382 143.458L200.955 145ZM145 129V126H141.477L142.038 129.478L145 129ZM160 52L161.782 54.4138L158.727 49.2833L160 52ZM78 160L75.0183 160.331L76.0226 169.369L80.5935 161.508L78 160ZM74 124L71.5358 122.289L70.8941 123.213L71.0183 124.331L74 124ZM207 105C209.962 104.522 209.962 104.521 209.961 104.52C209.961 104.519 209.961 104.517 209.961 104.516C209.96 104.514 209.96 104.511 209.959 104.507C209.958 104.5 209.957 104.491 209.955 104.481C209.951 104.459 209.946 104.43 209.94 104.394C209.927 104.322 209.909 104.222 209.885 104.094C209.837 103.839 209.764 103.476 209.664 103.02C209.462 102.11 209.147 100.825 208.685 99.2914C207.765 96.2345 206.245 92.1278 203.844 87.9936C199.036 79.7123 190.457 71 176 71V77C187.543 77 194.464 83.7877 198.656 91.0064C200.755 94.6222 202.11 98.2655 202.94 101.021C203.353 102.393 203.632 103.531 203.805 104.316C203.892 104.708 203.952 105.011 203.99 105.21C204.009 105.309 204.022 105.382 204.03 105.428C204.034 105.45 204.036 105.466 204.038 105.474C204.038 105.479 204.039 105.481 204.039 105.482C204.039 105.482 204.039 105.482 204.039 105.481C204.039 105.481 204.039 105.48 204.039 105.48C204.038 105.479 204.038 105.478 207 105ZM145 108H207V102H145V108ZM176 71C161.543 71 152.964 79.7123 148.156 87.9936C145.755 92.1278 144.235 96.2345 143.315 99.2914C142.853 100.825 142.538 102.11 142.336 103.02C142.236 103.476 142.163 103.839 142.115 104.094C142.091 104.222 142.073 104.322 142.06 104.394C142.054 104.43 142.049 104.459 142.045 104.481C142.043 104.491 142.042 104.5 142.041 104.507C142.04 104.511 142.04 104.514 142.039 104.516C142.039 104.517 142.039 104.519 142.039 104.52C142.038 104.521 142.038 104.522 145 105C147.962 105.478 147.962 105.479 147.961 105.48C147.961 105.48 147.961 105.481 147.961 105.481C147.961 105.482 147.961 105.482 147.961 105.482C147.961 105.481 147.962 105.479 147.962 105.474C147.964 105.466 147.966 105.45 147.97 105.428C147.978 105.382 147.991 105.309 148.01 105.21C148.048 105.011 148.108 104.708 148.195 104.316C148.368 103.531 148.647 102.393 149.06 101.021C149.89 98.2655 151.245 94.6222 153.344 91.0064C157.536 83.7877 164.457 77 176 77V71ZM261.747 144.204C251.148 182.715 215.873 211 174 211V217C218.643 217 256.235 186.844 267.532 145.796L261.747 144.204ZM270 142H264.639V148H270V142ZM267 129V145H273V129H267ZM267.575 132H270V126H267.575V132ZM265 120C265 122.941 264.861 125.848 264.588 128.716L270.561 129.284C270.852 126.227 271 123.131 271 120H265ZM174 29C224.258 29 265 69.7421 265 120H271C271 66.4284 227.572 23 174 23V29ZM83 120C83 69.7421 123.742 29 174 29V23C120.428 23 77 66.4284 77 120H83ZM174 211C123.742 211 83 170.258 83 120H77C77 173.572 120.428 217 174 217V211ZM267.575 126H207V132H267.575V126ZM267.532 145.796C269 140.461 270.024 134.942 270.561 129.284L264.588 128.716C264.084 134.026 263.123 139.202 261.747 144.204L267.532 145.796ZM200.955 148H264.639V142H200.955V148ZM198.382 143.458C194.164 150.499 187.3 157 176 157V163C190.141 163 198.665 154.661 203.529 146.542L198.382 143.458ZM176 157C164.457 157 157.536 150.212 153.344 142.994C151.245 139.378 149.89 135.734 149.06 132.979C148.647 131.607 148.368 130.469 148.195 129.684C148.108 129.292 148.048 128.989 148.01 128.79C147.991 128.691 147.978 128.618 147.97 128.572C147.966 128.55 147.964 128.534 147.962 128.526C147.962 128.521 147.961 128.519 147.961 128.518C147.961 128.518 147.961 128.518 147.961 128.519C147.961 128.519 147.961 128.52 147.961 128.52C147.962 128.521 147.962 128.522 145 129C142.038 129.478 142.038 129.479 142.039 129.48C142.039 129.481 142.039 129.483 142.039 129.484C142.04 129.486 142.04 129.489 142.041 129.493C142.042 129.5 142.043 129.509 142.045 129.519C142.049 129.541 142.054 129.57 142.06 129.606C142.073 129.678 142.091 129.778 142.115 129.906C142.163 130.161 142.236 130.524 142.336 130.98C142.538 131.89 142.853 133.175 143.315 134.709C144.235 137.766 145.755 141.872 148.156 146.006C152.964 154.288 161.543 163 176 163V157ZM145 132H176V126H145V132ZM176 132H207V126H176V132ZM160 52C158.218 49.5862 158.218 49.5867 158.217 49.5872C158.217 49.5875 158.216 49.5881 158.215 49.5886C158.214 49.5896 158.212 49.5908 158.21 49.5922C158.207 49.595 158.202 49.5987 158.195 49.6033C158.183 49.6124 158.166 49.625 158.145 49.641C158.102 49.673 158.042 49.7189 157.963 49.7786C157.807 49.898 157.58 50.0729 157.286 50.3039C156.7 50.7658 155.848 51.452 154.762 52.3671C152.591 54.1973 149.484 56.9432 145.694 60.6415C138.116 68.0377 127.804 79.2458 116.785 94.5576L121.655 98.0623C132.449 83.0635 142.527 72.1167 149.885 64.9355C153.564 61.3451 156.562 58.6968 158.629 56.9549C159.662 56.0839 160.463 55.4397 160.998 55.0176C161.266 54.8066 161.468 54.6511 161.6 54.5507C161.666 54.5004 161.714 54.464 161.745 54.4412C161.76 54.4298 161.771 54.4218 161.777 54.4172C161.78 54.4149 161.782 54.4135 161.783 54.4129C161.783 54.4126 161.783 54.4126 161.783 54.4127C161.783 54.4128 161.782 54.413 161.782 54.4131C161.782 54.4134 161.782 54.4138 160 52ZM116.785 94.5576C105.826 109.786 95.483 125.769 87.8859 137.932C84.0856 144.017 80.9684 149.152 78.8003 152.768C77.7162 154.576 76.8692 156.005 76.2925 156.982C76.0042 157.471 75.7834 157.847 75.6344 158.102C75.5599 158.229 75.5033 158.326 75.4651 158.392C75.446 158.424 75.4316 158.449 75.4218 158.466C75.4169 158.474 75.4132 158.481 75.4106 158.485C75.4093 158.487 75.4084 158.489 75.4077 158.49C75.4073 158.491 75.407 158.491 75.4069 158.491C75.4067 158.492 75.4065 158.492 78 160C80.5935 161.508 80.5935 161.508 80.5936 161.508C80.5937 161.508 80.5938 161.507 80.5941 161.507C80.5946 161.506 80.5954 161.505 80.5965 161.503C80.5987 161.499 80.602 161.493 80.6065 161.486C80.6156 161.47 80.6293 161.446 80.6476 161.415C80.6842 161.352 80.7392 161.258 80.8122 161.134C80.9581 160.884 81.1756 160.514 81.4605 160.031C82.0304 159.064 82.87 157.648 83.9462 155.854C86.0987 152.264 89.1968 147.16 92.9749 141.111C100.535 129.007 110.802 113.144 121.655 98.0623L116.785 94.5576ZM80.9817 159.669L76.9817 123.669L71.0183 124.331L75.0183 160.331L80.9817 159.669ZM74 124C76.4642 125.711 76.4641 125.711 76.464 125.711C76.464 125.711 76.464 125.711 76.464 125.711C76.4642 125.711 76.4646 125.71 76.4652 125.71C76.4665 125.708 76.4686 125.705 76.4717 125.7C76.4778 125.692 76.4875 125.678 76.5008 125.659C76.5274 125.621 76.5684 125.562 76.6233 125.485C76.7333 125.329 76.8993 125.095 77.1194 124.79C77.5595 124.179 78.2153 123.28 79.0693 122.141C80.7778 119.863 83.2775 116.628 86.4289 112.822C92.7393 105.2 101.627 95.3284 111.977 86.256L108.023 81.744C97.3544 91.095 88.2425 101.223 81.8074 108.996C78.5861 112.886 76.0267 116.197 74.2693 118.541C73.3904 119.713 72.7115 120.643 72.2502 121.284C72.0195 121.604 71.8432 121.852 71.7234 122.022C71.6635 122.107 71.6178 122.172 71.5864 122.216C71.5707 122.239 71.5586 122.256 71.5502 122.268C71.546 122.274 71.5427 122.279 71.5402 122.283C71.539 122.284 71.5381 122.286 71.5373 122.287C71.537 122.287 71.5366 122.288 71.5364 122.288C71.5361 122.289 71.5358 122.289 74 124ZM111.977 86.256C122.276 77.2289 134.587 69.3417 144.381 63.6896C149.267 60.8703 153.502 58.6213 156.511 57.0791C158.016 56.3081 159.213 55.7144 160.031 55.3149C160.439 55.1151 160.753 54.964 160.963 54.8636C161.068 54.8133 161.147 54.7758 161.199 54.7513C161.225 54.739 161.244 54.7299 161.257 54.7242C161.263 54.7213 161.267 54.7192 161.27 54.718C161.271 54.7173 161.272 54.7169 161.273 54.7167C161.273 54.7166 161.273 54.7166 161.273 54.7165C161.273 54.7166 161.273 54.7167 160 52C158.727 49.2833 158.727 49.2835 158.726 49.2838C158.726 49.2839 158.725 49.2842 158.725 49.2845C158.723 49.2852 158.722 49.286 158.719 49.287C158.715 49.2891 158.709 49.292 158.701 49.2957C158.685 49.3031 158.663 49.3138 158.633 49.3278C158.574 49.3557 158.488 49.3967 158.375 49.4504C158.151 49.5578 157.821 49.7164 157.397 49.9238C156.547 50.3388 155.316 50.9496 153.775 51.7394C150.694 53.3184 146.369 55.615 141.382 58.4928C131.432 64.235 118.742 72.3477 108.023 81.744L111.977 86.256Z" fill="#2C2C31" mask="url(#path-3-inside-1)"/>
</g>
<path d="M292.603 84.936C298.331 97.8017 292.545 112.875 279.68 118.603C266.814 124.331 251.741 118.545 246.012 105.68C240.284 92.8138 246.07 77.7405 258.936 72.0123C271.802 66.2842 286.875 72.0703 292.603 84.936Z" fill="#FFEA56" stroke="#2C2C31" stroke-width="3"/>
<path d="M175 91.5C175 97.299 170.299 102 164.5 102C158.701 102 154 97.299 154 91.5C154 85.701 158.701 81 164.5 81C170.299 81 175 85.701 175 91.5Z" fill="#FFF4D6" stroke="#2C2C31" stroke-width="2"/>
<path d="M170.5 92.5C170.5 94.1569 169.157 95.5 167.5 95.5C165.843 95.5 164.5 94.1569 164.5 92.5C164.5 90.8431 165.843 89.5 167.5 89.5C169.157 89.5 170.5 90.8431 170.5 92.5Z" fill="#2C2C31" stroke="#2C2C31" stroke-width="3"/>
<path d="M198 91.5C198 97.299 193.299 102 187.5 102C181.701 102 177 97.299 177 91.5C177 85.701 181.701 81 187.5 81C193.299 81 198 85.701 198 91.5Z" fill="#FFF4D6" stroke="#2C2C31" stroke-width="2"/>
<path d="M194.5 92.5C194.5 94.1569 193.157 95.5 191.5 95.5C189.843 95.5 188.5 94.1569 188.5 92.5C188.5 90.8431 189.843 89.5 191.5 89.5C193.157 89.5 194.5 90.8431 194.5 92.5Z" fill="#2C2C31" stroke="#2C2C31" stroke-width="3"/>
<path d="M-231.5 200.506C-231.5 197.742 -229.77 195.361 -227.188 194.626C-208.121 189.199 -137.196 172.376 -6.06242 177.84C136.512 183.781 424.649 228.606 472.862 236.226C476.091 236.736 478.318 239.571 478.156 242.919L472.87 352.155C472.703 355.619 469.845 358.341 466.378 358.341H-225C-228.59 358.341 -231.5 355.431 -231.5 351.841V200.506Z" fill="#3EA26E" stroke="#2C2C31" stroke-width="3"/>
<mask id="path-11-inside-2" fill="white">
<path fill-rule="evenodd" clip-rule="evenodd" d="M85 9.5C85 11.3357 84.8201 13.1295 84.4771 14.8645C90.8845 19.8993 95 27.719 95 36.5C95 51.6878 82.6878 64 67.5 64C64.161 64 60.961 63.4049 58.0003 62.315C53.0234 69.3826 44.8009 74 35.5 74C20.3122 74 8 61.6878 8 46.5C8 32.5744 18.3508 21.0663 31.7784 19.2497C30.6291 16.2194 30 12.9332 30 9.5C30 -5.68783 42.3122 -18 57.5 -18C72.6878 -18 85 -5.68783 85 9.5Z"/>
</mask>
<path fill-rule="evenodd" clip-rule="evenodd" d="M85 9.5C85 11.3357 84.8201 13.1295 84.4771 14.8645C90.8845 19.8993 95 27.719 95 36.5C95 51.6878 82.6878 64 67.5 64C64.161 64 60.961 63.4049 58.0003 62.315C53.0234 69.3826 44.8009 74 35.5 74C20.3122 74 8 61.6878 8 46.5C8 32.5744 18.3508 21.0663 31.7784 19.2497C30.6291 16.2194 30 12.9332 30 9.5C30 -5.68783 42.3122 -18 57.5 -18C72.6878 -18 85 -5.68783 85 9.5Z" fill="#FFF4D6"/>
<path d="M84.4771 14.8645L81.534 14.2826L81.1772 16.087L82.6235 17.2234L84.4771 14.8645ZM58.0003 62.315L59.0366 59.4997L56.8741 58.7037L55.5474 60.5878L58.0003 62.315ZM31.7784 19.2497L32.1806 22.2226L35.9224 21.7164L34.5834 18.1859L31.7784 19.2497ZM87.4201 15.4464C87.8008 13.5208 88 11.5322 88 9.5H82C82 11.1393 81.8394 12.7381 81.534 14.2826L87.4201 15.4464ZM98 36.5C98 26.7596 93.4307 18.0847 86.3306 12.5056L82.6235 17.2234C88.3382 21.7139 92 28.6785 92 36.5H98ZM67.5 67C84.3447 67 98 53.3447 98 36.5H92C92 50.031 81.031 61 67.5 61V67ZM56.9639 65.1303C60.2516 66.3406 63.8022 67 67.5 67V61C64.5198 61 61.6704 60.4693 59.0366 59.4997L56.9639 65.1303ZM35.5 77C45.8181 77 54.9385 71.8736 60.4531 64.0423L55.5474 60.5878C51.1084 66.8916 43.7838 71 35.5 71V77ZM5 46.5C5 63.3447 18.6553 77 35.5 77V71C21.969 71 11 60.031 11 46.5H5ZM31.3762 16.2768C16.4808 18.292 5 31.0528 5 46.5H11C11 34.096 20.2207 23.8407 32.1806 22.2226L31.3762 16.2768ZM27 9.5C27 13.3022 27.6972 16.9486 28.9733 20.3135L34.5834 18.1859C33.5611 15.4902 33 12.5641 33 9.5H27ZM57.5 -21C40.6553 -21 27 -7.34469 27 9.5H33C33 -4.03098 43.969 -15 57.5 -15V-21ZM88 9.5C88 -7.34468 74.3447 -21 57.5 -21V-15C71.031 -15 82 -4.03098 82 9.5H88Z" fill="#2C2C31" mask="url(#path-11-inside-2)"/>
</g>
<defs>
<clipPath id="clip0">
<rect x="-200" y="-80" width="640" height="400" fill="white"/>
</clipPath>
</defs>
</svg>
