<svg width="240" height="240" fill="none" xmlns="http://www.w3.org/2000/svg"><g clip-path="url(#clip0)"><mask id="a" maskUnits="userSpaceOnUse" x="80" y="26" width="188" height="188"><path fill-rule="evenodd" clip-rule="evenodd" d="M174 214c51.915 0 94-42.085 94-94 0-51.9148-42.085-94-94-94s-94 42.0852-94 94c0 51.915 42.085 94 94 94z" fill="#fff"/></mask><g mask="url(#a)"><mask id="b" fill="#fff"><path fill-rule="evenodd" clip-rule="evenodd" d="M176 74c26 0 31 31 31 31h-62s5-31 31-31zm-2 140c43.258 0 79.692-29.22 90.639-69H270v-16h-2.425c.281-2.962.425-5.964.425-9 0-51.9148-42.085-94-94-94s-94 42.0852-94 94c0 51.915 42.085 94 94 94zm33-85h60.575c-.521 5.484-1.513 10.831-2.936 16h-63.684c-4.541 7.58-12.235 15-24.955 15-26 0-31-31-31-31h62zm-47-77s-18.968 13.9994-40.78 44.3099C97.4078 126.621 78 160 78 160l-4-36s14.9818-21.577 36-40c21.018-18.4234 50-32 50-32z"/></mask><path fill-rule="evenodd" clip-rule="evenodd" d="M176 74c26 0 31 31 31 31h-62s5-31 31-31zm-2 140c43.258 0 79.692-29.22 90.639-69H270v-16h-2.425c.281-2.962.425-5.964.425-9 0-51.9148-42.085-94-94-94s-94 42.0852-94 94c0 51.915 42.085 94 94 94zm33-85h60.575c-.521 5.484-1.513 10.831-2.936 16h-63.684c-4.541 7.58-12.235 15-24.955 15-26 0-31-31-31-31h62zm-47-77s-18.968 13.9994-40.78 44.3099C97.4078 126.621 78 160 78 160l-4-36s14.9818-21.577 36-40c21.018-18.4234 50-32 50-32z" fill="#9DBBE5"/><path d="M207 105v4h4.697l-.748-4.637L207 105zm-62 0l-3.949-.637-.748 4.637H145v-4zm119.639 40v-4h-3.048l-.808 2.939 3.856 1.061zm5.361 0v4h4v-4h-4zm0-16h4v-4h-4v4zm-2.425 0l-3.982-.378-.416 4.378h4.398v-4zm0 0l3.982.378.416-4.378h-4.398v4zm-2.936 16v4h3.048l.809-2.939-3.857-1.061zm-63.684 0v-4h-2.266l-1.165 1.944 3.431 2.056zM145 129v-4h-4.697l.748 4.637L145 129zm15-77l2.375 3.2183-4.072-6.8405L160 52zm-40.78 44.3099l-3.247-2.3364 3.247 2.3364zM78 160l-3.9755.442 1.3389 12.051 6.0946-10.482L78 160zm-4-36l-3.2856-2.281-.8556 1.232.1657 1.491L74 124zm36-40l2.637 3.008L110 84zm66-6c11.057 0 17.702 6.467 21.791 13.5085 2.049 3.5295 3.377 7.0956 4.191 9.8005.405 1.346.678 2.459.847 3.223.084.381.142.674.178.864.018.094.03.163.038.204.003.02.005.034.007.04v.002c0-.001 0-.002-.001-.002 0-.002 0-.003 3.949-.64s3.949-.639 3.948-.64v-.005c-.001-.003-.001-.006-.002-.01-.001-.008-.003-.018-.005-.03-.004-.024-.009-.055-.016-.093-.013-.076-.032-.182-.057-.314-.05-.265-.125-.638-.228-1.104-.206-.931-.527-2.24-.997-3.8009-.936-3.1072-2.483-7.2911-4.934-11.5116C199.798 79.033 190.943 70 176 70v8zm31 23h-62v8h62v-8zm-62 4c3.949.637 3.949.638 3.949.64-.001 0-.001.001-.001.002v-.002c.002-.006.004-.02.007-.04.008-.041.02-.11.038-.204.036-.19.094-.483.178-.864.169-.764.442-1.877.847-3.223.814-2.7049 2.142-6.271 4.191-9.8005C158.298 84.467 164.943 78 176 78v-8c-14.943 0-23.798 9.033-28.709 17.4915-2.451 4.2205-3.998 8.4044-4.934 11.5116-.47 1.5609-.791 2.8699-.997 3.8009-.103.466-.178.839-.228 1.104-.025.132-.044.238-.057.314-.007.038-.012.069-.016.093-.002.012-.004.022-.005.03-.001.004-.001.007-.002.01v.005c-.001.001-.001.003 3.948.64zm29 113c45.105 0 83.083-30.468 94.496-71.939l-7.713-2.122C250.301 182.027 215.412 210 174 210v8zm90.639-69H270v-8h-5.361v8zm9.361-4v-16h-8v16h8zm-4-20h-2.425v8H270v-8zm1.557 4.378c.293-3.087.443-6.216.443-9.378h-8c0 2.909-.138 5.785-.407 8.622l7.964.756zM272 120c0-54.1239-43.876-98-98-98v8c49.706 0 90 40.2944 90 90h8zm-98-98c-54.124 0-98 43.8761-98 98h8c0-49.7056 40.294-90 90-90v-8zm-98 98c0 54.124 43.876 98 98 98v-8c-49.706 0-90-40.294-90-90h-8zm131 13h60.575v-8H207v8zm56.593-4.378c-.499 5.251-1.449 10.37-2.81 15.317l7.713 2.122c1.483-5.39 2.518-10.966 3.061-16.683l-7.964-.756zM264.639 141h-63.684v8h63.684v-8zm-67.115 1.944C193.413 149.805 186.827 156 176 156v8c14.614 0 23.415-8.646 28.386-16.944l-6.862-4.112zM176 156c-11.057 0-17.702-6.467-21.791-13.509-2.049-3.529-3.377-7.095-4.191-9.8-.405-1.346-.678-2.459-.847-3.223-.084-.381-.142-.674-.178-.864-.018-.094-.03-.163-.038-.204-.003-.02-.005-.034-.007-.04v-.004.002c0 .001 0 .002.001.002 0 .002 0 .003-3.949.64s-3.949.639-3.948.64v.005c.001.003.001.006.002.01.001.008.003.018.005.03.004.024.009.055.016.093.013.076.032.182.057.314.05.265.125.638.228 1.104.206.931.527 2.24.997 3.801.936 3.107 2.483 7.291 4.934 11.512C152.202 154.967 161.057 164 176 164v-8zm-31-23h31v-8h-31v8zm31 0h31v-8h-31v8zm-16-81c-2.375-3.2183-2.376-3.2177-2.377-3.2171 0 .0003-.001.0011-.002.0017-.002.0011-.004.0025-.006.0041-.004.0033-.01.0073-.016.0123-.014.0099-.032.0232-.054.04-.045.0335-.108.0809-.188.1422-.161.1226-.392.3007-.689.535-.595.4686-1.456 1.1618-2.55 2.0843-2.189 1.8448-5.314 4.6071-9.122 8.3233-7.615 7.432-17.966 18.6837-29.023 34.0477l6.494 4.6729c10.756-14.9466 20.795-25.8499 28.116-32.9952 3.661-3.5724 6.641-6.2044 8.69-7.9317 1.025-.8636 1.817-1.5008 2.344-1.9163.264-.2077.462-.3599.589-.4572.064-.0486.11-.0836.139-.1048.014-.0106.024-.0178.029-.0217.002-.0019.004-.0029.004-.0031v.0003c-.001.0002-.001.0006-.001.0007-.001.0004-.002.0009-2.377-3.2174zm-44.027 41.9735c-10.976 15.2525-21.332 31.2555-28.9352 43.4285-3.8041 6.091-6.9244 11.232-9.0951 14.852-1.0854 1.81-1.9337 3.241-2.5115 4.22-.2889.49-.5102.867-.6598 1.123-.0748.127-.1316.225-.17.291-.0192.033-.0338.058-.0437.075-.005.008-.0088.015-.0114.019-.0013.002-.0023.004-.003.005-.0004.001-.0007.001-.0009.002-.0002 0-.0004 0 3.4576 2.011l3.458 2.011c.0001-.001.0003-.001.0005-.001.0005-.001.0012-.002.0023-.004.0021-.004.0054-.01.0098-.017.009-.015.0225-.039.0407-.07.0364-.062.0912-.156.1639-.28.1453-.249.3623-.618.6466-1.1.5688-.965 1.4072-2.379 2.4821-4.171 2.1499-3.586 5.2447-8.684 9.0192-14.728 7.5539-12.094 17.8079-27.936 28.6439-42.9936l-6.494-4.6729zM81.9755 159.558l-4-36-7.951.884 4 36 7.951-.884zM74 124c3.2856 2.281 3.2854 2.282 3.2852 2.282 0 0-.0001 0 0 0 0 0 .0003 0 .0009-.001.001-.002.003-.005.0058-.009.0058-.008.0151-.021.028-.04.0258-.037.0659-.094.1201-.17.1083-.154.2726-.385.4909-.688.4366-.606 1.0885-1.5 1.9384-2.633 1.7003-2.267 4.1901-5.489 7.3299-9.281 6.2895-7.597 15.1398-17.4261 25.4378-26.452l-5.274-6.016c-10.7207 9.3975-19.87 19.568-26.3259 27.366-3.2329 3.905-5.8022 7.229-7.5678 9.583-.8831 1.177-1.5658 2.113-2.0306 2.759-.2325.322-.4105.573-.5319.745-.0607.086-.1073.152-.1395.198-.016.023-.0285.041-.0374.053-.0044.007-.0079.012-.0105.015-.0013.002-.0023.004-.0032.005-.0004.001-.0009.001-.0011.002-.0004 0-.0007.001 3.2849 2.282zm38.637-36.992c10.228-8.9656 22.475-16.8152 32.244-22.4522 4.869-2.8096 9.089-5.0506 12.086-6.5868 1.499-.7678 2.69-1.3587 3.503-1.7556.406-.1985.717-.3484.925-.4476.103-.0497.181-.0866.232-.1106.025-.012.044-.0208.056-.0263.006-.0027.01-.0047.012-.0058.001-.0005.002-.0009.002-.001v-.0001c0 .0001 0 .0002-1.697-3.622s-1.697-3.622-1.698-3.6217c0 .0002-.001.0005-.002.0009-.001.0007-.003.0016-.006.0027-.004.0021-.011.0052-.019.009-.016.0077-.04.0187-.07.0329-.06.0285-.147.0701-.261.1244-.227.1086-.559.2684-.986.4771-.855.4175-2.092 1.0312-3.639 1.8241-3.093 1.5852-7.432 3.8898-12.436 6.7773-9.977 5.7571-22.73 13.9075-33.52 23.3653l5.274 6.016z" fill="#2C2C31" mask="url(#b)"/></g><path d="M292.603 84.936c5.728 12.8657-.058 27.939-12.923 33.667-12.866 5.728-27.939-.058-33.668-12.923-5.728-12.8662.058-27.9395 12.924-33.6677 12.866-5.7281 27.939.058 33.667 12.9237z" fill="#FFEA56" stroke="#2C2C31" stroke-width="3"/><path d="M175 91.5c0 5.799-4.701 10.5-10.5 10.5S154 97.299 154 91.5 158.701 81 164.5 81 175 85.701 175 91.5z" fill="#FFF4D6" stroke="#2C2C31" stroke-width="2"/><path d="M170.5 92.5c0 1.6569-1.343 3-3 3s-3-1.3431-3-3 1.343-3 3-3 3 1.3431 3 3z" fill="#2C2C31" stroke="#2C2C31" stroke-width="3"/><path d="M198 91.5c0 5.799-4.701 10.5-10.5 10.5S177 97.299 177 91.5 181.701 81 187.5 81 198 85.701 198 91.5z" fill="#FFF4D6" stroke="#2C2C31" stroke-width="2"/><path d="M194.5 92.5c0 1.6569-1.343 3-3 3s-3-1.3431-3-3 1.343-3 3-3 3 1.3431 3 3z" fill="#2C2C31" stroke="#2C2C31" stroke-width="3"/><path d="M-231.5 200.506c0-2.764 1.73-5.145 4.312-5.88 19.067-5.427 89.992-22.25 221.12558-16.786C136.512 183.781 424.649 228.606 472.862 236.226c3.229.51 5.456 3.345 5.294 6.693l-5.286 109.236c-.167 3.464-3.025 6.186-6.492 6.186H-225c-3.59 0-6.5-2.91-6.5-6.5V200.506z" fill="#3EA26E" stroke="#2C2C31" stroke-width="3"/><mask id="c" fill="#fff"><path fill-rule="evenodd" clip-rule="evenodd" d="M85 9.5c0 1.8357-.1799 3.6295-.5229 5.3645C90.8845 19.8993 95 27.719 95 36.5 95 51.6878 82.6878 64 67.5 64c-3.339 0-6.539-.5951-9.4997-1.685C53.0234 69.3826 44.8009 74 35.5 74 20.3122 74 8 61.6878 8 46.5c0-13.9256 10.3508-25.4337 23.7784-27.2503C30.6291 16.2194 30 12.9332 30 9.5 30-5.68783 42.3122-18 57.5-18S85-5.68783 85 9.5z"/></mask><path fill-rule="evenodd" clip-rule="evenodd" d="M85 9.5c0 1.8357-.1799 3.6295-.5229 5.3645C90.8845 19.8993 95 27.719 95 36.5 95 51.6878 82.6878 64 67.5 64c-3.339 0-6.539-.5951-9.4997-1.685C53.0234 69.3826 44.8009 74 35.5 74 20.3122 74 8 61.6878 8 46.5c0-13.9256 10.3508-25.4337 23.7784-27.2503C30.6291 16.2194 30 12.9332 30 9.5 30-5.68783 42.3122-18 57.5-18S85-5.68783 85 9.5z" fill="#FFF4D6"/><path d="M84.4771 14.8645l-3.9241-.7759-.4757 2.4058 1.9283 1.5153 2.4715-3.1452zM58.0003 62.315l1.3818-3.7537-2.8834-1.0614-1.7689 2.5121 3.2705 2.303zM31.7784 19.2497l.5362 3.9639 4.9891-.675-1.7853-4.7073-3.74 1.4184zm56.6227-3.6093C88.7944 13.6512 89 11.5976 89 9.5h-8c0 1.5738-.1542 3.1077-.447 4.5886l7.8481 1.5518zM99 36.5c0-10.0602-4.7206-19.0202-12.0515-24.7807l-4.9429 6.2904C87.4895 22.3188 91 28.9983 91 36.5h8zM67.5 68C84.897 68 99 53.897 99 36.5h-8C91 49.4787 80.4787 60 67.5 60v8zm-10.8815-1.9312C60.0151 67.3191 63.6826 68 67.5 68v-8c-2.8606 0-5.5931-.5093-8.1179-1.4387l-2.7636 7.5075zM35.5 78c10.6571 0 20.0769-5.2961 25.7708-13.382l-6.541-4.606C50.47 66.0613 43.4448 70 35.5 70v8zM4 46.5C4 63.897 18.103 78 35.5 78v-8C22.5213 70 12 59.4787 12 46.5H4zm27.2421-31.2142C15.8575 17.3672 4 30.5456 4 46.5h8c0-11.8968 8.844-21.7346 20.3146-23.2864l-1.0725-7.9278zM26 9.5c0 3.9253.7199 7.6917 2.0383 11.1681l7.4801-2.8368C34.5384 15.2471 34 12.4411 34 9.5h-8zM57.5-22C40.103-22 26-7.89697 26 9.5h8C34-3.47869 44.5213-14 57.5-14v-8zM89 9.5C89-7.89697 74.897-22 57.5-22v8C70.4787-14 81-3.47869 81 9.5h8z" fill="#2C2C31" mask="url(#c)"/></g><defs><clipPath id="clip0"><path fill="#fff" d="M-200-80h640v400h-640z"/></clipPath></defs></svg>