<svg width="71" height="6" xmlns="http://www.w3.org/2000/svg"><path d="M71 2.9a9.86 9.86 0 0 1-2.96-.45c-.9-.3-1.76-.62-2.57-.97a18.92 18.92 0 0 0-5.69-1.4 13.63 13.63 0 0 0-8.09 1.62c-.7.34-1.5.65-2.35.9a6.7 6.7 0 0 1-2.68.28 9.86 9.86 0 0 1-2-.43c-.9-.3-1.74-.62-2.54-.97a18.92 18.92 0 0 0-5.69-1.4 13.63 13.63 0 0 0-8.09 1.62c-.7.34-1.5.65-2.35.9a6.7 6.7 0 0 1-2.68.28 9.86 9.86 0 0 1-2-.43c-.9-.3-1.74-.62-2.54-.97a18.92 18.92 0 0 0-5.69-1.4A13.65 13.65 0 0 0 5 1.7c-.7.34-1.5.64-2.35.9-.5.17-1.4.27-2.65.3v3.07a13.4 13.4 0 0 0 3.86-.33 14.13 14.13 0 0 0 3.41-1.3c.7-.38 1.51-.7 2.42-.95a7.15 7.15 0 0 1 2.67-.24c.9.08 1.77.23 2.55.45.88.27 1.7.57 2.45.9a15.75 15.75 0 0 0 5.99 1.42 13.4 13.4 0 0 0 3.86-.33 14.13 14.13 0 0 0 3.41-1.3c.69-.36 1.5-.67 2.38-.92a7.2 7.2 0 0 1 2.71-.22c.9.08 1.77.23 2.55.45.88.27 1.7.57 2.45.9.76.34 1.59.65 2.49.9a15.37 15.37 0 0 0 3.54.57 13.4 13.4 0 0 0 3.86-.33A14.13 14.13 0 0 0 54 4.3c.7-.37 1.51-.69 2.42-.95a7.2 7.2 0 0 1 2.64-.2c.9.07 1.77.22 2.55.44.88.27 1.7.57 2.45.9a15.75 15.75 0 0 0 5.99 1.42c.22.02.54.03.95.03V2.9z" fill="currentColor" fill-rule="evenodd"/></svg>