<svg width="680" height="360" fill="none" xmlns="http://www.w3.org/2000/svg"><g clip-path="url(#clip0)"><path fill="#D0BCEA" stroke="#2C2C31" stroke-width="3" d="M300.5 84.5h166v159h-166z"/><mask id="a" maskUnits="userSpaceOnUse" x="299" y="83" width="169" height="162"><path fill="#fff" stroke="#fff" stroke-width="3" d="M300.5 84.5h166v159h-166z"/></mask><g mask="url(#a)"><path fill-rule="evenodd" clip-rule="evenodd" d="M315 278c20.435 0 49-17.013 49-38 0-11.304-11.16-20.039-22-27-9.286-5.963-27.072-8-36.5-8-20.435 0-27.5 14.013-27.5 35 0 20.987 16.565 38 37 38z" fill="#8BB2E8"/><path fill-rule="evenodd" clip-rule="evenodd" d="M389 63s26.397 72.086 38 108c11.603 35.914 41 90 41 90H342s119.978-65.178 126-97.5c2.461-13.205-23.543-30.6-49.798-46.635C391.495 100.555 313.528 85.6517 316 78c16.276-50.3774 73-15 73-15z" fill="#58DD98" stroke="#FFF4D6" stroke-width="6"/><path d="M290 159s75.184 31.268 106.087 40C426.99 207.732 478 189 478 189" stroke="#FFF4D6" stroke-width="6" stroke-linecap="square"/><path d="M296 210L432.5 83.5" stroke="#AF87E5" stroke-width="6" stroke-linecap="square" stroke-dasharray="4 12"/><path stroke="#2C2C31" stroke-width="3" d="M300.5 84.5h166v159h-166z"/></g><path d="M330.556 170.328l-18.405-36.011-.418-.817H274c-9.113 0-16.5-7.387-16.5-16.5V71c0-9.1127 7.387-16.5 16.5-16.5h51.618c8.785 0 15.996 6.8746 16.273 15.6227.53 16.732.926 41.7243-.675 56.7183-1.278 11.972-4.24 23.622-6.892 32.296-1.324 4.333-2.568 7.913-3.479 10.408-.101.274-.197.536-.289.783z" fill="#FFF4D6" stroke="#2C2C31" stroke-width="3"/><path d="M290.5 72.5l7-9M302.5 72.5l7-9M286 64l2.148-2h27.959L318 64" stroke="#2C2C31" stroke-width="3" stroke-linecap="square"/><path d="M285 119h5v6c0 .552-.448 1-1 1h-3c-.552 0-1-.448-1-1v-6zM310 119h5v6c0 .552-.448 1-1 1h-3c-.552 0-1-.448-1-1v-6z" fill="#1F1D1B" stroke="#2C2C31" stroke-width="2"/><path d="M279.5 78c0-3.0376 2.462-5.5 5.5-5.5h30c3.038 0 5.5 2.4624 5.5 5.5v41.5h-41V78z" fill="#E376B5" stroke="#2C2C31" stroke-width="3"/><mask id="b" fill="#fff"><path fill-rule="evenodd" clip-rule="evenodd" d="M299.106 106.789c.368-.737 1.42-.737 1.788 0L302 109h-4l1.106-2.211z"/></mask><path fill-rule="evenodd" clip-rule="evenodd" d="M299.106 106.789c.368-.737 1.42-.737 1.788 0L302 109h-4l1.106-2.211z" fill="#FFF4D6"/><path d="M302 109v3h4.854l-2.171-4.342L302 109zm-4 0l-2.683-1.342-2.171 4.342H298v-3zm.211-.87l1.106 2.212 5.366-2.684-1.105-2.211-5.367 2.683zM302 106h-4v6h4v-6zm-1.317 4.342l1.106-2.212-5.367-2.683-1.105 2.211 5.366 2.684zm2.895-4.895c-1.474-2.948-5.682-2.948-7.156 0l5.367 2.683c-.737 1.475-2.841 1.475-3.578 0l5.367-2.683z" fill="#2C2C31" mask="url(#b)"/><path d="M295 111s2.5 2 5.5 2 5.5-2 5.5-2" stroke="#2C2C31" stroke-width="3" stroke-linecap="round"/><path d="M284 79c0-.5523.448-1 1-1h30c.552 0 1 .4477 1 1v22h-32V79z" fill="#8BB2E8" stroke="#2C2C31" stroke-width="2"/><path fill="#2C2C31" d="M285 79h30v7h-30z"/><path d="M291 109.5c0 1.933-1.567 3.5-3.5 3.5s-3.5-1.567-3.5-3.5 1.567-3.5 3.5-3.5 3.5 1.567 3.5 3.5zM316 109.5c0 1.933-1.567 3.5-3.5 3.5s-3.5-1.567-3.5-3.5 1.567-3.5 3.5-3.5 3.5 1.567 3.5 3.5z" fill="#FFEA56" stroke="#2C2C31" stroke-width="2"/><path fill="#fff" d="M285 79h6v5h-6zM294 80h12v3h-12zM308 80h7v3h-7z"/><path d="M426 296c9.956 0 22.951-8 22.951-21s-4.034-18-9.51-18-9.458 5-9.458 18c0 6.395 3.131 14.548 7.499 19.149C441.993 298.902 500 322.648 547 281M426 296c-10 0-23.052-8-23.052-21s4.052-18 9.552-18 9.5 5 9.5 18-26.371 34-64.631 33C319.109 307 315 288 315 288" stroke="#FFF4D6" stroke-width="3"/><path fill-rule="evenodd" clip-rule="evenodd" d="M311.295 284.508c-.021-.824.908-1.317 1.58-.84l7.983 5.681c.606.431.546 1.349-.11 1.698l-3.929 2.089-3.809 2.025c-.657.349-1.451-.114-1.47-.857l-.245-9.796z" fill="#FFF4D6"/><path d="M67.5 251.937V88.0907l105-34.0278V217.909l-105 34.028z" fill="#FFF4D6" stroke="#2C2C31" stroke-width="3"/><path d="M144 88.5v137.389M171.5 201.5l-80.5 26M171.5 174.5l-80.5 26M171.5 147.5l-80.5 26M171.5 120.5l-80.5 26M171.5 93.5l-80.5 26M171.5 214.5l-80.5 26M171.5 216.5l-80.5 26M171.5 187.5l-80.5 26M171.5 160.5l-80.5 26M171.5 133.5l-80.5 26M171.5 106.5l-80.5 26M116 96.5v137.389" stroke="#2C2C31" stroke-width="3" stroke-linecap="square"/><path d="M67.5 113.937V88.0907l105-34.0278v25.8464l-105 34.0277z" fill="#2C2C31" stroke="#2C2C31" stroke-width="3"/><path d="M69.4743 88.577L67.5 87.9189V252.081l1.0257.342 87.0003 29 1.974.658V117.919l-1.026-.342-86.9997-29z" fill="#D0BCEA" stroke="#2C2C31" stroke-width="3"/><mask id="c" maskUnits="userSpaceOnUse" x="66" y="85" width="93" height="200"><path d="M69.4743 88.577L67.5 87.9189V252.081l1.0257.342 87.0003 29 1.974.658V117.919l-1.026-.342-86.9997-29z" fill="#fff" stroke="#fff" stroke-width="3"/></mask><g mask="url(#c)"><path fill-rule="evenodd" clip-rule="evenodd" d="M75 259s4.1341-16.787 12-23c5-3.949 19.55-3.121 37-7 8.881-1.975 16.537-9.352 22.195-12 6.389-2.991 14.805 3 14.805 3v-14s-13.706-3.882-29 9-34.7179 2-40 2c-19.5117 0-23 37-23 37l6 5z" fill="#8BB2E8"/><path fill-rule="evenodd" clip-rule="evenodd" d="M25.0575 72.5947s26.3971 72.0863 38 108.0003c11.6029 35.913 34.9777 24.821 40.9995-7.5 2.461-13.206-23.5428-30.601-49.7973-46.635C27.5523 110.149-50.4146 95.2464-47.9425 87.5947c16.2758-50.3775 73-15 73-15z" fill="#58DD98" stroke="#FFF4D6" stroke-width="6"/><path d="M69.4743 88.577L67.5 87.9189V252.081l1.0257.342 87.0003 29 1.974.658V117.919l-1.026-.342-86.9997-29z" stroke="#2C2C31" stroke-width="3"/></g><path d="M638.5 252.897V89.039l-90 28.064v163.858l90-28.064z" fill="#FFF4D6" stroke="#2C2C31" stroke-width="3"/><path d="M638.5 251.937V88.0907l-105-34.0278V217.909l105 34.028z" fill="#FFF4D6" stroke="#2C2C31" stroke-width="3"/><path d="M546.5 139c0-2.379 2.322-4.064 4.583-3.328l27 8.789c1.442.469 2.417 1.812 2.417 3.328v61.369c0 1.933-1.567 3.5-3.5 3.5h-27c-1.933 0-3.5-1.567-3.5-3.5V139z" fill="#5F67DA" stroke="#2C2C31" stroke-width="3"/><path d="M560 153.766c0 .785.459 1.498 1.174 1.822l3 1.361c1.324.6 2.826-.368 2.826-1.822v-6.607c0-.785-.459-1.498-1.174-1.822l-3-1.361c-1.324-.6-2.826.368-2.826 1.822v6.607z" fill="#FFEA56"/><path d="M560 153.766c0 .785.459 1.498 1.174 1.822l3 1.361c1.324.6 2.826-.368 2.826-1.822v-6.607c0-.785-.459-1.498-1.174-1.822l-3-1.361c-1.324-.6-2.826.368-2.826 1.822v6.607z" stroke="#2C2C31"/><path d="M638.5 153.937V88.0907l-105-34.0278v65.8461l105 34.028z" fill="#FFEA56" stroke="#2C2C31" stroke-width="3"/><path d="M582 134.917l74.832-74.8322M598 139.917L667.417 70.5M607.083 137l-16.5-16.5M592.701 138.618L582.583 128.5M615.083 129l-16.5-16.5M623.083 121l-16.5-16.5M631.083 113l-16.5-16.5M623.083 121l-16.5-16.5M640.083 105l-16.5-16.5M648.083 96l-16.5-16.5" stroke="#2C2C31" stroke-width="3" stroke-linecap="square"/><path d="M544.161 112.139l20.414-38.1649 14.201 49.7039-34.615-11.539z" fill="#FFF4D6" stroke="#2C2C31" stroke-width="3"/><path fill-rule="evenodd" clip-rule="evenodd" d="M568.5 265c6.351 0 11.5-5.149 11.5-11.5s-5.149-11.5-11.5-11.5-11.5 5.149-11.5 11.5 5.149 11.5 11.5 11.5z" fill="#AF87E5"/><path fill-rule="evenodd" clip-rule="evenodd" d="M597.5 256c6.351 0 11.5-5.149 11.5-11.5s-5.149-11.5-11.5-11.5-11.5 5.149-11.5 11.5 5.149 11.5 11.5 11.5z" fill="#58DD98"/><path fill-rule="evenodd" clip-rule="evenodd" d="M568.5 238c6.351 0 11.5-5.149 11.5-11.5s-5.149-11.5-11.5-11.5-11.5 5.149-11.5 11.5 5.149 11.5 11.5 11.5z" fill="#E376B5"/><path d="M553.405 160.775l-.476-.155-.309.951.475.154.31-.95zM574 168l-3.862-4.292-1.786 5.49L574 168zm-20.905-6.275l16.471 5.358.309-.951-16.47-5.357-.31.95zM573.595 176.225l.476.155.309-.951-.475-.154-.31.95zM553 169l3.862 4.292 1.786-5.49L553 169zm20.905 6.275l-16.471-5.358-.309.951 16.47 5.357.31-.95z" fill="#FFF4D6"/><path d="M67.5 145.397V89.039l90 28.064v56.358l-90-28.064z" fill="#8BB2E8" stroke="#2C2C31" stroke-width="3"/><path d="M85.5 138.468v-32.421l54 17.052v32.422l-54-17.053z" fill="#2C2C31" stroke="#2C2C31" stroke-width="3"/><path d="M92.8093 116.549l-.9509-.309-.6187 1.902.951.309.6186-1.902zM134 131l-7.723-8.584-3.573 10.981L134 131zm-41.8093-12.549l32.9413 10.716.619-1.902-32.9417-10.716-.6186 1.902zM133.191 144.451l.951.309.618-1.902-.951-.309-.618 1.902zM92 130l7.7235 8.584 3.5725-10.981L92 130zm41.809 12.549l-32.941-10.716-.619 1.902 32.942 10.716.618-1.902z" fill="#FFF4D6"/><path d="M44 369s-9.4538-61.202-5-85c7.3804-39.435 33.1468-66.946 40-70 16.4835-7.345 36.993 7.175 43 0 15.185-18.137-3-49-3-49" stroke="#AF87E5" stroke-width="6" stroke-linecap="square" stroke-dasharray="4 12"/><path fill-rule="evenodd" clip-rule="evenodd" d="M560.858 88.6059l-2.188 14.5091h3.213l3.403-14.5091h-4.428zm-.642 17.4531c-2.01 0-3.517 1.477-3.517 3.553 0 1.97 1.507 3.447 3.517 3.447 2.11 0 3.483-1.477 3.483-3.447 0-2.076-1.373-3.553-3.483-3.553z" fill="#2C2C31"/><path d="M638.5 251.937v-34.772l-105-34.028v34.772l105 34.028z" fill="#2C2C31" stroke="#2C2C31" stroke-width="3"/><path d="M657.083 87l-16.5-16.5M666.083 79l-16.5-16.5" stroke="#2C2C31" stroke-width="3" stroke-linecap="square"/><path d="M127 269l69.5-59.5" stroke="#2C2C31" stroke-width="8" stroke-linecap="round"/><path d="M192.683 212.474l27.668 56.295-51.896-35.234 24.228-21.061z" fill="#E376B5" stroke="#2C2C31" stroke-width="3"/></g><defs><clipPath id="clip0"><path fill="#fff" d="M0 0h680v360H0z"/></clipPath></defs></svg>