<svg width="200" height="280" fill="none" xmlns="http://www.w3.org/2000/svg"><g clip-path="url(#clip0)"><path fill="#D0BCEA" stroke="#2C2C31" stroke-width="3" d="M60.5 44.5h166v159h-166z"/><mask id="a" maskUnits="userSpaceOnUse" x="59" y="43" width="169" height="162"><path fill="#fff" stroke="#fff" stroke-width="3" d="M60.5 44.5h166v159h-166z"/></mask><g mask="url(#a)"><path fill-rule="evenodd" clip-rule="evenodd" d="M75 238c20.4345 0 49-17.013 49-38 0-11.304-11.16-20.039-22-27-9.2858-5.963-27.0716-8-36.5-8-20.4345 0-27.5 14.013-27.5 35 0 20.987 16.5655 38 37 38z" fill="#8BB2E8"/><path fill-rule="evenodd" clip-rule="evenodd" d="M149 23s26.397 72.0863 38 108c11.603 35.914 41 90 41 90H102s119.978-65.178 126-97.5c2.461-13.205-23.543-30.6003-49.798-46.6346C151.495 60.5545 73.528 45.6517 76.0001 38 92.2759-12.3774 149 23 149 23z" fill="#58DD98" stroke="#FFF4D6" stroke-width="6"/><path d="M50 119s75.184 31.268 106.087 40C186.99 167.732 238 149 238 149" stroke="#FFF4D6" stroke-width="6" stroke-linecap="square"/><path d="M56 170L192.5 43.5" stroke="#AF87E5" stroke-width="6" stroke-linecap="square" stroke-dasharray="4 12"/><path stroke="#2C2C31" stroke-width="3" d="M60.5 44.5h166v159h-166z"/></g><path d="M90.556 130.328L72.1509 94.3173l-.4177-.8173H34c-9.1127 0-16.5-7.3873-16.5-16.5V31c0-9.1127 7.3873-16.5 16.5-16.5h51.6177c8.7849 0 15.9963 6.8746 16.2733 15.6227.53 16.732.926 41.7241-.675 56.718-1.2781 11.9722-4.2403 23.6223-6.8917 32.2963-1.3243 4.333-2.5682 7.913-3.4798 10.408-.1003.274-.1966.536-.2885.783z" fill="#FFF4D6" stroke="#2C2C31" stroke-width="3"/><path d="M50.5 32.5l7-9M62.5 32.5l7-9M46 24l2.1479-2h27.9594L78 24" stroke="#2C2C31" stroke-width="3" stroke-linecap="square"/><path d="M45 79h5v6c0 .5523-.4477 1-1 1h-3c-.5523 0-1-.4477-1-1v-6zM70 79h5v6c0 .5523-.4477 1-1 1h-3c-.5523 0-1-.4477-1-1v-6z" fill="#1F1D1B" stroke="#2C2C31" stroke-width="2"/><path d="M39.5 38c0-3.0376 2.4624-5.5 5.5-5.5h30c3.0376 0 5.5 2.4624 5.5 5.5v41.5h-41V38z" fill="#E376B5" stroke="#2C2C31" stroke-width="3"/><mask id="b" fill="#fff"><path fill-rule="evenodd" clip-rule="evenodd" d="M59.1056 66.7889c.3685-.7371 1.4203-.7371 1.7888 0L62 69h-4l1.1056-2.2111z"/></mask><path fill-rule="evenodd" clip-rule="evenodd" d="M59.1056 66.7889c.3685-.7371 1.4203-.7371 1.7888 0L62 69h-4l1.1056-2.2111z" fill="#FFF4D6"/><path d="M62 69v3h4.8541l-2.1708-4.3416L62 69zm-4 0l-2.6833-1.3416L53.1459 72H58v-3zm.2111-.8695l1.1056 2.2111 5.3666-2.6832-1.1056-2.2112-5.3666 2.6833zM62 66h-4v6h4v-6zm-1.3167 4.3416l1.1056-2.2111-5.3666-2.6833-1.1056 2.2112 5.3666 2.6832zm2.8944-4.8944c-1.4741-2.9482-5.6813-2.9482-7.1554 0l5.3666 2.6833c-.7371 1.4741-2.8407 1.4741-3.5778 0l5.3666-2.6833z" fill="#2C2C31" mask="url(#b)"/><path d="M55 71s2.5 2 5.5 2 5.5-2 5.5-2" stroke="#2C2C31" stroke-width="3" stroke-linecap="round"/><path d="M44 39c0-.5523.4477-1 1-1h30c.5523 0 1 .4477 1 1v22H44V39z" fill="#8BB2E8" stroke="#2C2C31" stroke-width="2"/><path fill="#2C2C31" d="M45 39h30v7H45z"/><path d="M51 69.5c0 1.933-1.567 3.5-3.5 3.5S44 71.433 44 69.5s1.567-3.5 3.5-3.5 3.5 1.567 3.5 3.5zM76 69.5c0 1.933-1.567 3.5-3.5 3.5S69 71.433 69 69.5s1.567-3.5 3.5-3.5 3.5 1.567 3.5 3.5z" fill="#FFEA56" stroke="#2C2C31" stroke-width="2"/><path fill="#fff" d="M45 39h6v5h-6zM54 40h12v3H54zM68 40h7v3h-7z"/><path d="M186 256c9.956 0 22.951-8 22.951-21s-4.034-18-9.51-18-9.458 5-9.458 18c0 6.395 3.131 14.548 7.499 19.149C201.993 258.902 260 282.648 307 241M186 256c-10 0-23.052-8-23.052-21s4.052-18 9.552-18 9.5 5 9.5 18-26.371 34-64.631 33C79.1093 267 75 248 75 248" stroke="#FFF4D6" stroke-width="3"/><path fill-rule="evenodd" clip-rule="evenodd" d="M71.2951 244.508c-.0206-.824.9081-1.317 1.5795-.84l7.9835 5.681c.6056.431.546 1.349-.1104 1.698l-3.9289 2.089-3.8091 2.025c-.6564.349-1.4506-.114-1.4692-.857l-.2454-9.796z" fill="#FFF4D6"/></g><defs><clipPath id="clip0"><path fill="#fff" d="M-240-40h680v360h-680z"/></clipPath></defs></svg>