<svg width="{{ include.size }}" height="{{ include.size }}" viewBox="2 2 28 28" version="1.1" xmlns="http://www.w3.org/2000/svg" xmlns:xlink="http://www.w3.org/1999/xlink">
<g id="g1" stroke="none" stroke-width="1" fill="currentColor" fill-rule="evenodd" transform="translate(1.000000, 1.000000)">
<path d="M13.75125,1.15384615 C13.75125,0.516923077 14.31125,0 15.00125,0 C15.69125,0 16.25125,0.516923077 16.25125,1.15384615 L16.25125,3.46153846 C16.25125,4.09846154 15.69125,4.61538462 15.00125,4.61538462 C14.31125,4.61538462 13.75125,4.09846154 13.75125,3.46153846 L13.75125,1.15384615 Z M6.4025,4.27730769 C5.915,3.82730769 5.12375,3.82730769 4.635,4.27730769 C4.1475,4.72846154 4.1475,5.45884615 4.635,5.90884615 L6.4025,7.54153846 C6.89125,7.99153846 7.6825,7.99153846 8.17125,7.54153846 C8.65875,7.09038462 8.65875,6.36 8.17125,5.90884615 L6.4025,4.27730769 L6.4025,4.27730769 Z M20.3425,19.3730769 C19.46375,20.2430769 18.75125,21.3080769 18.75125,22.4976923 C18.75125,23.4542308 17.91125,24.2307692 16.87375,24.2307692 L13.18625,24.2307692 C12.1175,24.2307692 11.25125,23.4311538 11.25125,22.4446154 C11.25125,21.2803846 10.595,20.2269231 9.7,19.4065385 C8.08125,17.9226923 7.50125,16.2865385 7.50125,14.0492308 C7.50125,10.1134615 10.85875,6.92307692 15.00125,6.92307692 C19.14375,6.92307692 22.50125,10.1134615 22.50125,14.0492308 C22.50125,16.1734615 21.71625,18.0103846 20.3425,19.3730769 Z M15.95625,25.3846154 C16.90375,25.3846154 16.9275,25.53 16.01375,25.7619231 L11.70125,26.8569231 C11.47375,26.9134615 11.25125,26.7553846 11.25125,26.5384615 C11.25125,26.2869231 11.33875,26.0538462 11.4875,25.8634615 C11.59875,25.7215385 11.7775,25.6442308 11.96,25.5980769 L12.66625,25.4238462 C12.77125,25.3973077 12.88,25.3846154 12.98875,25.3846154 L15.95625,25.3846154 L15.95625,25.3846154 Z M11.25375,28.3084615 C11.2875,28.7538462 11.84625,28.9015385 12.3125,28.7861538 L18.06625,27.3623077 C18.47,27.2630769 18.75125,26.925 18.75125,26.5384615 C18.75125,26.2326923 18.3925,26.0873077 18.0725,26.1669231 L11.64375,27.7569231 C11.4125,27.8134615 11.25125,28.0073077 11.25125,28.2288462 C11.25125,28.2553846 11.2525,28.2819231 11.25375,28.3084615 L11.25375,28.3084615 Z M15.6475,30 C15.7575,30 15.86625,29.9861538 15.97125,29.9607692 L17.3925,29.6088462 C17.52375,29.5765385 17.64875,29.5246154 17.7625,29.4542308 L18.195,29.1888462 C18.5425,28.9742308 18.75125,28.6142308 18.75125,28.2288462 C18.75125,28.1526923 18.67375,28.0973077 18.59375,28.1169231 L12.86,29.5361538 C12.72375,29.5696154 12.695,29.7346154 12.81125,29.8061538 C13.01625,29.9330769 13.2575,30 13.505,30 L15.6475,30 Z M25.67,4.27730769 C25.1825,3.82730769 24.39125,3.82730769 23.9025,4.27730769 L22.135,5.90884615 C21.6475,6.36 21.6475,7.09038462 22.135,7.54153846 C22.62375,7.99153846 23.415,7.99153846 23.9025,7.54153846 L25.67125,5.90884615 C26.15875,5.45884615 26.15875,4.72846154 25.67125,4.27730769 L25.67,4.27730769 Z M28.75,12.6923077 C29.44,12.6923077 30,13.2092308 30,13.8461538 C30,14.4830769 29.44,15 28.75,15 L26.25,15 C25.56,15 25,14.4830769 25,13.8461538 C25,13.2092308 25.56,12.6923077 26.25,12.6923077 L28.75,12.6923077 Z M5,13.8461538 C5,13.2092308 4.44,12.6923077 3.75,12.6923077 L1.25,12.6923077 C0.56,12.6923077 0,13.2092308 0,13.8461538 C0,14.4830769 0.56,15 1.25,15 L3.75,15 C4.44,15 5,14.4830769 5,13.8461538 Z" id="Shape"></path></g></svg>
