<svg width="{{ include.size }}" height="{{ include.size }}" viewBox="2 2 28 28" xmlns="http://www.w3.org/2000/svg"><path d="M14.75 2.15c0-.63.56-1.15 1.25-1.15.7 0 1.25.52 1.25 1.15v2.31c0 .64-.56 1.16-1.25 1.16s-1.25-.52-1.25-1.16v-2.3zM7.4 5.28a1.33 1.33 0 0 0-1.77 0 1.1 1.1 0 0 0 0 1.63L7.4 8.54c.5.45 1.28.45 1.77 0a1.1 1.1 0 0 0 0-1.63L7.4 5.28zm13.94 15.1c-.88.86-1.59 1.93-1.59 3.12 0 .95-.84 1.73-1.88 1.73H14.2c-1.07 0-1.94-.8-1.94-1.79 0-1.16-.65-2.21-1.55-3.03-1.62-1.49-2.2-3.12-2.2-5.36 0-3.94 3.36-7.13 7.5-7.13 4.14 0 7.5 3.2 7.5 7.13 0 2.12-.78 3.96-2.16 5.32zm-4.38 6c.94 0 .97.15.05.38l-4.3 1.1c-.24.05-.46-.1-.46-.32 0-.25.09-.49.24-.68a.85.85 0 0 1 .47-.26l.7-.18c.11-.02.22-.04.33-.04h2.97zm-4.7 2.93c.03.44.59.6 1.05.48l5.76-1.43c.4-.1.68-.43.68-.82 0-.3-.36-.45-.68-.37l-6.43 1.59a.5.5 0 0 0-.39.55zM16.64 31c.1 0 .22-.01.32-.04l1.42-.35c.13-.03.26-.09.37-.16l.43-.26c.35-.22.56-.58.56-.96 0-.08-.08-.13-.16-.11l-5.73 1.42c-.14.03-.16.2-.05.27.2.12.45.19.7.19h2.14zM26.67 5.28a1.33 1.33 0 0 0-1.77 0L23.14 6.9a1.1 1.1 0 0 0 0 1.63c.48.45 1.27.45 1.76 0l1.77-1.63a1.1 1.1 0 0 0 0-1.63zm3.08 8.41c.69 0 1.25.52 1.25 1.16 0 .63-.56 1.15-1.25 1.15h-2.5c-.69 0-1.25-.52-1.25-1.15 0-.64.56-1.16 1.25-1.16h2.5zM6 14.85c0-.64-.56-1.16-1.25-1.16h-2.5c-.69 0-1.25.52-1.25 1.16 0 .63.56 1.15 1.25 1.15h2.5C5.44 16 6 15.48 6 14.85z" fill="currentColor" fill-rule="evenodd"/></svg>
