<svg width="{{ include.size }}" height="{{ include.size }}" viewBox="2 2 28 28" xmlns="http://www.w3.org/2000/svg" aria-label="light bulb turned on"><path d="M19.51 18.8a5.13 5.13 0 0 0 1.5-3.75c0-2.72-2.32-4.82-5-4.82-2.7 0-5 2.1-5 4.82 0 1.77.41 2.77 1.45 3.72 1.08.98 2.1 2.4 2.27 4.15h2.55a7.1 7.1 0 0 1 2.23-4.12zm1.83 1.57c-.88.87-1.59 1.94-1.59 3.13 0 .95-.84 1.73-1.88 1.73H14.2c-1.07 0-1.94-.8-1.94-1.79 0-1.16-.65-2.21-1.55-3.03-1.62-1.49-2.2-3.12-2.2-5.36 0-3.94 3.36-7.13 7.5-7.13 4.14 0 7.5 3.2 7.5 7.13 0 2.12-.78 3.96-2.16 5.32zm-4.38 6.01c.94 0 .97.15.05.38l-4.3 1.1c-.24.05-.46-.1-.46-.32 0-.25.09-.49.24-.68a.85.85 0 0 1 .47-.26l.7-.18c.11-.02.22-.04.33-.04h2.97zm-4.7 2.93c.03.44.59.6 1.05.48l5.76-1.43c.4-.1.68-.43.68-.82 0-.3-.36-.45-.68-.37l-6.43 1.59a.5.5 0 0 0-.39.55zM16.64 31c.1 0 .22-.01.32-.04l1.42-.35c.13-.03.26-.09.37-.16l.44-.26c.34-.22.55-.58.55-.96 0-.08-.08-.13-.16-.11l-5.73 1.42c-.14.03-.16.2-.05.27.2.12.45.19.7.19h2.14z" fill="currentColor" fill-rule="evenodd"/></svg>
