<svg width="{{ include.size }}" height="{{ include.size }}" viewBox="2 2 28 28" version="1.1" xmlns="http://www.w3.org/2000/svg" xmlns:xlink="http://www.w3.org/1999/xlink" aria-label="light bulb turned on"><g id="g1" stroke="none" stroke-width="1" fill="currentColor" fill-rule="evenodd" transform="translate(8.000000, 7.000000)"><path d="M11.5125,11.8003846 C12.4275,10.8934615 13.00125,9.63 13.00125,8.04923077 C13.00125,5.325 10.695,3.23076923 8.00125,3.23076923 C5.3075,3.23076923 3.00125,5.325 3.00125,8.04923077 C3.00125,9.82269231 3.42,10.815 4.46125,11.7692308 C5.53625,12.7546154 6.55375,14.1761538 6.72625,15.9230769 L9.28375,15.9230769 C9.48125,14.1473077 10.56375,12.7419231 11.5125,11.8003846 Z M13.3425,13.3730769 C12.46375,14.2430769 11.75125,15.3080769 11.75125,16.4976923 C11.75125,17.4542308 10.91125,18.2307692 9.87375,18.2307692 L6.18625,18.2307692 C5.1175,18.2307692 4.25125,17.4311538 4.25125,16.4446154 C4.25125,15.2803846 3.595,14.2269231 2.7,13.4065385 C1.08125,11.9226923 0.50125,10.2865385 0.50125,8.04923077 C0.50125,4.11346154 3.85875,0.923076923 8.00125,0.923076923 C12.14375,0.923076923 15.50125,4.11346154 15.50125,8.04923077 C15.50125,10.1734615 14.71625,12.0103846 13.3425,13.3730769 Z M8.95625,19.3846154 C9.90375,19.3846154 9.9275,19.53 9.01375,19.7619231 L4.70125,20.8569231 C4.47375,20.9134615 4.25125,20.7553846 4.25125,20.5384615 C4.25125,20.2869231 4.33875,20.0538462 4.4875,19.8634615 C4.59875,19.7215385 4.7775,19.6442308 4.96,19.5980769 L5.66625,19.4238462 C5.77125,19.3973077 5.88,19.3846154 5.98875,19.3846154 L8.95625,19.3846154 L8.95625,19.3846154 Z M4.25375,22.3084615 C4.2875,22.7538462 4.84625,22.9015385 5.3125,22.7861538 L11.06625,21.3623077 C11.47,21.2630769 11.75125,20.925 11.75125,20.5384615 C11.75125,20.2326923 11.3925,20.0873077 11.0725,20.1669231 L4.64375,21.7569231 C4.4125,21.8134615 4.25125,22.0073077 4.25125,22.2288462 C4.25125,22.2553846 4.2525,22.2819231 4.25375,22.3084615 L4.25375,22.3084615 Z M8.6475,24 C8.7575,24 8.86625,23.9861538 8.97125,23.9607692 L10.3925,23.6088462 C10.52375,23.5765385 10.64875,23.5246154 10.7625,23.4542308 L11.195,23.1888462 C11.5425,22.9742308 11.75125,22.6142308 11.75125,22.2288462 C11.75125,22.1526923 11.67375,22.0973077 11.59375,22.1169231 L5.86,23.5361538 C5.72375,23.5696154 5.695,23.7346154 5.81125,23.8061538 C6.01625,23.9330769 6.2575,24 6.505,24 L8.6475,24 Z" id="Shape"></path></g></svg>
