<svg width="200" height="200" fill="none" xmlns="http://www.w3.org/2000/svg"><g clip-path="url(#clip0)"><path fill-rule="evenodd" clip-rule="evenodd" d="M100.5 42L139 86.5 100.5 131 62 86.5 100.5 42z" fill="#F5C017"/><path d="M64 82l36.5-41.72L137 82l-36.5 41.72L64 82z" stroke="#000" stroke-width="3"/><rect x="45" y="41" width="42" height="41" rx="20.5" fill="#fff"/><rect x="115" y="41" width="41" height="41" rx="20.5" fill="#fff"/><rect x="46.5" y="42.5" width="39" height="38" rx="19" stroke="#000" stroke-width="3"/><rect x="116.5" y="42.5" width="38" height="38" rx="19" stroke="#000" stroke-width="3"/><path d="M101.06 14.94L100 13.88l-1.06 1.06L81.38 32.5H-5.5v-38h214v38h-89.88l-17.56-17.56z" fill="#8BB2E8" stroke="#2C2C31" stroke-width="3"/><path fill-rule="evenodd" clip-rule="evenodd" d="M66 68c3.31 0 6-2.91 6-6.5S69.31 55 66 55s-6 2.91-6 6.5 2.69 6.5 6 6.5zM136 68c3.31 0 6-2.91 6-6.5s-2.69-6.5-6-6.5-6 2.91-6 6.5 2.69 6.5 6 6.5z" fill="#000"/><path d="M100.5 76.32v43.66" stroke="#000" stroke-width="3" stroke-linecap="round"/><path fill="#DC5E6C" stroke="#2C2C31" stroke-width="3" d="M168.5 10.5h22v22h-22z"/><path d="M186 15.5l-12.5 12M173 15l13 13" stroke="#2C2C31" stroke-width="3" stroke-linecap="square"/></g><defs><clipPath id="clip0"><path fill="#fff" d="M-200-80h600v360h-600z"/></clipPath></defs></svg>