<svg width="200" height="200" viewBox="0 0 200 200" fill="none" xmlns="http://www.w3.org/2000/svg">
<g clip-path="url(#clip0)">
<path fill-rule="evenodd" clip-rule="evenodd" d="M100.502 42L139 86.5L100.502 131L62 86.5L100.502 42Z" fill="#F5C017"/>
<path d="M63.9932 82L100.502 40.2779L137.007 82L100.502 123.722L63.9932 82Z" stroke="black" stroke-width="3"/>
<rect x="45" y="41" width="42" height="41" rx="20.5" fill="white"/>
<rect x="115" y="41" width="41" height="41" rx="20.5" fill="white"/>
<rect x="46.5" y="42.5" width="39" height="38" rx="19" stroke="black" stroke-width="3"/>
<rect x="116.5" y="42.5" width="38" height="38" rx="19" stroke="black" stroke-width="3"/>
<path d="M101.061 14.9393L100 13.8787L98.9393 14.9393L81.3787 32.5H-5.5V-5.5H208.5V32.5H118.621L101.061 14.9393Z" fill="#8BB2E8" stroke="#2C2C31" stroke-width="3"/>
<path fill-rule="evenodd" clip-rule="evenodd" d="M66 68C69.3137 68 72 65.0899 72 61.5C72 57.9101 69.3137 55 66 55C62.6863 55 60 57.9101 60 61.5C60 65.0899 62.6863 68 66 68Z" fill="black"/>
<path fill-rule="evenodd" clip-rule="evenodd" d="M136 68C139.314 68 142 65.0899 142 61.5C142 57.9101 139.314 55 136 55C132.686 55 130 57.9101 130 61.5C130 65.0899 132.686 68 136 68Z" fill="black"/>
<path d="M100.5 76.3235V119.983" stroke="black" stroke-width="3" stroke-linecap="round"/>
<rect x="168.5" y="10.5" width="22" height="22" fill="#DC5E6C" stroke="#2C2C31" stroke-width="3"/>
<path d="M186 15.5L173.5 27.5" stroke="#2C2C31" stroke-width="3" stroke-linecap="square"/>
<path d="M173 15L186 28" stroke="#2C2C31" stroke-width="3" stroke-linecap="square"/>
</g>
<defs>
<clipPath id="clip0">
<rect x="-200" y="-80" width="600" height="360" fill="white"/>
</clipPath>
</defs>
</svg>
