<svg width="680" height="360" fill="none" xmlns="http://www.w3.org/2000/svg"><path d="M413 138s-5.918-18-14.055-22.041c-10.063-4.997-23.313 4.09-28.849 0C362.752 110.534 357 102 357 102M404 150s-5.906-13.959-14.026-18c-10.042-4.997-28.432 2.254-33.957-1.837C348.688 124.738 347 114.5 347 114.5M426 130s-8.833-21.316-16.931-25.359c-10.014-4.9997-21.726 1.887-27.236-2.205C374.525 97.0078 369.5 86.5 369.5 86.5" stroke="#FFF4D6" stroke-width="3" stroke-linecap="round" stroke-dasharray="4 8"/><path fill-rule="evenodd" clip-rule="evenodd" d="M418.5 202c-15.808 0-7.042 16.605-18.5 15.204-15.363-1.879-23-20.179-23-38.689C377 146.198 406.997 120 444 120s67 26.198 67 58.515C511 210.831 455.503 202 418.5 202z" fill="#FFEA56" stroke="#2C2C31" stroke-width="3"/><path d="M409 206.5c0 4.746 3.632 8.5 8 8.5s8-3.754 8-8.5-3.632-8.5-8-8.5-8 3.754-8 8.5z" fill="#E376B5" stroke="#2C2C31" stroke-width="2"/><path d="M390 200c0 4.368 3.754 8 8.5 8s8.5-3.632 8.5-8-3.754-8-8.5-8-8.5 3.632-8.5 8z" fill="#C07B13" stroke="#2C2C31" stroke-width="2"/><path d="M387 191c0 4.368 3.754 8 8.5 8s8.5-3.632 8.5-8-3.754-8-8.5-8-8.5 3.632-8.5 8z" fill="#C07B13" stroke="#2C2C31" stroke-width="2"/><path d="M385 181.5c0 4.694 3.806 8.5 8.5 8.5s8.5-3.806 8.5-8.5-3.806-8.5-8.5-8.5-8.5 3.806-8.5 8.5z" fill="#58DD98" stroke="#2C2C31" stroke-width="2"/><path d="M385 168.5c0 4.694 3.806 8.5 8.5 8.5s8.5-3.806 8.5-8.5-3.806-8.5-8.5-8.5-8.5 3.806-8.5 8.5z" fill="#58DD98" stroke="#2C2C31" stroke-width="2"/><path d="M402 160.5c0 4.694 3.806 8.5 8.5 8.5s8.5-3.806 8.5-8.5-3.806-8.5-8.5-8.5-8.5 3.806-8.5 8.5z" fill="#F99A98" stroke="#2C2C31" stroke-width="2"/><path d="M392 157.5c0 4.746 3.632 8.5 8 8.5s8-3.754 8-8.5-3.632-8.5-8-8.5-8 3.754-8 8.5z" fill="#F99A98" stroke="#2C2C31" stroke-width="2"/><path d="M415 151.5c0 1.933 1.567 3.5 3.5 3.5s3.5-1.567 3.5-3.5-1.567-3.5-3.5-3.5-3.5 1.567-3.5 3.5z" fill="#58DD98" stroke="#2C2C31" stroke-width="2"/><path d="M413 151.5c0 4.694 3.806 8.5 8.5 8.5s8.5-3.806 8.5-8.5-3.806-8.5-8.5-8.5-8.5 3.806-8.5 8.5z" fill="#FFB956" stroke="#2C2C31" stroke-width="2"/><path d="M398 147c0 4.368 3.754 8 8.5 8s8.5-3.632 8.5-8-3.754-8-8.5-8-8.5 3.632-8.5 8z" fill="#fff" stroke="#2C2C31" stroke-width="2"/><path d="M427 142c0 3.866 3.134 7 7 7s7-3.134 7-7-3.134-7-7-7-7 3.134-7 7zM413 143c0 3.866 3.134 7 7 7s7-3.134 7-7-3.134-7-7-7-7 3.134-7 7z" fill="#FFB956" stroke="#2C2C31" stroke-width="2"/><path d="M409 139c0 2.761 2.239 5 5 5s5-2.239 5-5-2.239-5-5-5-5 2.239-5 5zM425 135c0 2.209 1.791 4 4 4s4-1.791 4-4-1.791-4-4-4-4 1.791-4 4z" fill="#FFB956" stroke="#2C2C31" stroke-width="2"/><path d="M395 171c0 4.368 3.754 8 8.5 8s8.5-3.632 8.5-8-3.754-8-8.5-8-8.5 3.632-8.5 8z" fill="#58DD98" stroke="#2C2C31" stroke-width="2"/><path d="M437 139c0 3.25 2.844 6 6.5 6s6.5-2.75 6.5-6-2.844-6-6.5-6-6.5 2.75-6.5 6z" fill="#FFB956" stroke="#2C2C31" stroke-width="2"/><path d="M451 140c0 2.209 1.791 4 4 4s4-1.791 4-4-1.791-4-4-4-4 1.791-4 4z" fill="#58DD98" stroke="#2C2C31" stroke-width="2"/><path fill-rule="evenodd" clip-rule="evenodd" d="M464 225.672c-37.003 0-67 5.299-67-26.712 0-32.01 29.997-57.96 67-57.96s67 25.95 67 57.96c0 32.011-29.997 26.712-67 26.712z" fill="#FFEA56" stroke="#2C2C31" stroke-width="3"/><path d="M467 200s8.908 7 21.5 7 21.5-7 21.5-7" stroke="#2C2C31" stroke-width="3" stroke-linecap="round" stroke-linejoin="bevel"/><path fill-rule="evenodd" clip-rule="evenodd" d="M474 192c3.866 0 7-3.134 7-7s-3.134-7-7-7-7 3.134-7 7 3.134 7 7 7zM503 192c3.866 0 7-3.134 7-7s-3.134-7-7-7-7 3.134-7 7 3.134 7 7 7z" fill="#2C2C31" stroke="#2C2C31" stroke-width="3"/><path fill-rule="evenodd" clip-rule="evenodd" d="M474 192c3.866 0 7-3.134 7-7s-3.134-7-7-7-7 3.134-7 7 3.134 7 7 7zM503 192c3.866 0 7-3.134 7-7s-3.134-7-7-7-7 3.134-7 7 3.134 7 7 7z" fill="#2C2C31" stroke="#2C2C31" stroke-width="3"/><path fill-rule="evenodd" clip-rule="evenodd" d="M473 188c2.209 0 4-1.791 4-4s-1.791-4-4-4-4 1.791-4 4 1.791 4 4 4zM502 188c2.209 0 4-1.791 4-4s-1.791-4-4-4-4 1.791-4 4 1.791 4 4 4z" fill="#fff" stroke="#2C2C31" stroke-width="3"/><rect x="185.673" y="63.5333" width="17" height="225" rx="8.5" transform="rotate(-15 185.673 63.5333)" fill="#D0875E" stroke="#2C2C31" stroke-width="3"/><path fill="#FFF4D6" stroke="#2C2C31" stroke-width="3" d="M99.4649 101.126l196.082943-52.540266 34.164114 127.502209-196.082943 52.540266z"/><path fill="#FFF4D6" d="M109.168 108.362l181.594055-48.65798 25.105448 93.694805-181.594056 48.65798z"/><mask id="a" maskUnits="userSpaceOnUse" x="109" y="59" width="207" height="144"><path transform="rotate(-15 109.168 108.362)" fill="#fff" d="M109.168 108.362h188v97h-188z"/></mask><g mask="url(#a)" stroke="#2C2C31" stroke-width="3"><path fill-rule="evenodd" clip-rule="evenodd" d="M247.847 262.729c46.945-12.579 74.804-60.833 62.225-107.778-12.579-46.945-60.832-74.8039-107.777-62.225-46.946 12.579-74.805 60.833-62.226 107.778 12.579 46.945 60.833 74.804 107.778 62.225z" fill="#E376B5"/><path fill-rule="evenodd" clip-rule="evenodd" d="M244.482 250.172c40.01-10.721 63.754-51.846 53.033-91.856-10.721-40.01-51.846-63.7536-91.856-53.033-40.01 10.721-63.754 51.846-53.033 91.856 10.721 40.01 51.846 63.754 91.856 53.033z" fill="#FFEA56"/><path fill-rule="evenodd" clip-rule="evenodd" d="M240.859 236.649c32.541-8.72 51.853-42.168 43.133-74.71-8.719-32.541-42.168-51.853-74.709-43.133-32.542 8.719-51.853 42.168-43.134 74.709 8.72 32.542 42.168 51.853 74.71 43.134z" fill="#8BB2E8"/><path fill-rule="evenodd" clip-rule="evenodd" d="M237.494 224.092c25.339-6.79 40.319-33.052 33.458-58.659-6.861-25.606-32.965-40.86-58.305-34.07-25.339 6.79-40.319 33.052-33.458 58.658 6.861 25.607 32.965 40.861 58.305 34.071z" fill="#AF87E5"/><path fill-rule="evenodd" clip-rule="evenodd" d="M233.87 210.569c17.949-4.81 28.56-23.412 23.7-41.55-4.86-18.138-23.35-28.942-41.299-24.133-17.949 4.809-28.56 23.412-23.7 41.55 4.86 18.137 23.35 28.942 41.299 24.133z" fill="#FFF4D6"/><path d="M140.98 199.224l51.332-13.754M257.653 167.962l51.359-13.762" stroke-linecap="square"/></g><path fill-rule="evenodd" clip-rule="evenodd" d="M127.96 201.677l193.185-51.763 6.73 25.114-193.185 51.764-6.73-25.115z" fill="#2C2C31"/><mask id="b" maskUnits="userSpaceOnUse" x="127" y="149" width="201" height="78"><path fill-rule="evenodd" clip-rule="evenodd" d="M127.96 201.677l193.185-51.763 6.73 25.114-193.185 51.764-6.73-25.115z" fill="#fff"/></mask></svg>