<svg width="200" height="200" fill="none" xmlns="http://www.w3.org/2000/svg"><path d="M173 58s-5.918-18-14.055-22.0408c-10.063-4.9974-23.313 4.0903-28.849 0C122.752 30.5336 117 22 117 22M164 70s-5.906-13.9592-14.026-18c-10.042-4.9973-28.432 2.2535-33.957-1.8367C108.688 44.7377 107 34.5 107 34.5M186 50s-8.833-21.3162-16.931-25.359c-10.014-4.9997-21.726 1.8871-27.236-2.2051C134.525 17.0078 129.5 6.5 129.5 6.5" stroke="#FFF4D6" stroke-width="3" stroke-linecap="round" stroke-dasharray="4 8"/><path fill-rule="evenodd" clip-rule="evenodd" d="M178.5 122c-15.808 0-7.042 16.605-18.5 15.204-15.363-1.879-23-20.179-23-38.6894C137 66.1979 166.997 40 204 40s67 26.1979 67 58.5146C271 130.831 215.503 122 178.5 122z" fill="#FFEA56" stroke="#2C2C31" stroke-width="3"/><path d="M169 126.5c0 4.746 3.632 8.5 8 8.5s8-3.754 8-8.5-3.632-8.5-8-8.5-8 3.754-8 8.5z" fill="#E376B5" stroke="#2C2C31" stroke-width="2"/><path d="M150 120c0 4.368 3.754 8 8.5 8s8.5-3.632 8.5-8-3.754-8-8.5-8-8.5 3.632-8.5 8z" fill="#C07B13" stroke="#2C2C31" stroke-width="2"/><path d="M147 111c0 4.368 3.754 8 8.5 8s8.5-3.632 8.5-8-3.754-8-8.5-8-8.5 3.632-8.5 8z" fill="#C07B13" stroke="#2C2C31" stroke-width="2"/><path d="M145 101.5c0 4.694 3.806 8.5 8.5 8.5s8.5-3.806 8.5-8.5c0-4.6944-3.806-8.5-8.5-8.5s-8.5 3.8056-8.5 8.5z" fill="#58DD98" stroke="#2C2C31" stroke-width="2"/><path d="M145 88.5c0 4.6944 3.806 8.5 8.5 8.5s8.5-3.8056 8.5-8.5-3.806-8.5-8.5-8.5-8.5 3.8056-8.5 8.5z" fill="#58DD98" stroke="#2C2C31" stroke-width="2"/><path d="M162 80.5c0 4.6944 3.806 8.5 8.5 8.5s8.5-3.8056 8.5-8.5-3.806-8.5-8.5-8.5-8.5 3.8056-8.5 8.5z" fill="#F99A98" stroke="#2C2C31" stroke-width="2"/><path d="M152 77.5c0 4.7461 3.632 8.5 8 8.5s8-3.7539 8-8.5-3.632-8.5-8-8.5-8 3.7539-8 8.5z" fill="#F99A98" stroke="#2C2C31" stroke-width="2"/><path d="M175 71.5c0 1.933 1.567 3.5 3.5 3.5s3.5-1.567 3.5-3.5-1.567-3.5-3.5-3.5-3.5 1.567-3.5 3.5z" fill="#58DD98" stroke="#2C2C31" stroke-width="2"/><path d="M173 71.5c0 4.6944 3.806 8.5 8.5 8.5s8.5-3.8056 8.5-8.5-3.806-8.5-8.5-8.5-8.5 3.8056-8.5 8.5z" fill="#FFB956" stroke="#2C2C31" stroke-width="2"/><path d="M158 67c0 4.368 3.754 8 8.5 8s8.5-3.632 8.5-8-3.754-8-8.5-8-8.5 3.632-8.5 8z" fill="#fff" stroke="#2C2C31" stroke-width="2"/><path d="M187 62c0 3.866 3.134 7 7 7s7-3.134 7-7-3.134-7-7-7-7 3.134-7 7zM173 63c0 3.866 3.134 7 7 7s7-3.134 7-7-3.134-7-7-7-7 3.134-7 7z" fill="#FFB956" stroke="#2C2C31" stroke-width="2"/><path d="M169 59c0 2.7614 2.239 5 5 5s5-2.2386 5-5-2.239-5-5-5-5 2.2386-5 5zM185 55c0 2.2091 1.791 4 4 4s4-1.7909 4-4c0-2.2091-1.791-4-4-4s-4 1.7909-4 4z" fill="#FFB956" stroke="#2C2C31" stroke-width="2"/><path d="M155 91c0 4.368 3.754 8 8.5 8s8.5-3.632 8.5-8-3.754-8-8.5-8-8.5 3.632-8.5 8z" fill="#58DD98" stroke="#2C2C31" stroke-width="2"/><path d="M197 59c0 3.2498 2.844 6 6.5 6s6.5-2.7502 6.5-6-2.844-6-6.5-6-6.5 2.7502-6.5 6z" fill="#FFB956" stroke="#2C2C31" stroke-width="2"/><path fill-rule="evenodd" clip-rule="evenodd" d="M224 145.672c-37.003 0-67 5.299-67-26.712C157 86.9497 186.997 61 224 61s67 25.9497 67 57.96c0 32.011-29.997 26.712-67 26.712z" fill="#FFEA56" stroke="#2C2C31" stroke-width="3"/><rect x="-54.3275" y="-16.4667" width="17" height="225" rx="8.5" transform="rotate(-15 -54.3275 -16.4667)" fill="#D0875E" stroke="#2C2C31" stroke-width="3"/><path fill="#FFF4D6" stroke="#2C2C31" stroke-width="3" d="M-118.5-8.5h203v132h-203z"/><path fill="#FFF4D6" d="M-111 1H77v97h-188z"/><mask id="a" maskUnits="userSpaceOnUse" x="-111" y="1" width="188" height="97"><path fill="#fff" d="M-111 1H77v97h-188z"/></mask><g mask="url(#a)" stroke="#2C2C31" stroke-width="3"><path fill-rule="evenodd" clip-rule="evenodd" d="M-17 186c48.6011 0 88-39.399 88-88 0-48.6011-39.3989-88-88-88s-88 39.3989-88 88c0 48.601 39.3989 88 88 88z" fill="#E376B5"/><path fill-rule="evenodd" clip-rule="evenodd" d="M-17 173c41.4214 0 75-33.579 75-75 0-41.4214-33.5786-75-75-75s-75 33.5786-75 75c0 41.421 33.5786 75 75 75z" fill="#FFEA56"/><path fill-rule="evenodd" clip-rule="evenodd" d="M-17 159c33.6894 0 61-27.311 61-61 0-33.6894-27.3106-61-61-61s-61 27.3106-61 61c0 33.689 27.3106 61 61 61z" fill="#8BB2E8"/><path fill-rule="evenodd" clip-rule="evenodd" d="M-17 146c26.23353 0 47.5-21.49 47.5-48 0-26.5097-21.26647-48-47.5-48-26.2335 0-47.5 21.4903-47.5 48 0 26.51 21.2665 48 47.5 48z" fill="#AF87E5"/><path fill-rule="evenodd" clip-rule="evenodd" d="M-17 132c18.5821 0 33.6459-15.222 33.6459-34 0-18.7777-15.0638-34-33.6459-34-18.5821 0-33.6458 15.2223-33.6458 34 0 18.778 15.0637 34 33.6458 34z" fill="#FFF4D6"/><path d="M17 97h53.1709" stroke-linecap="square"/></g><path fill-rule="evenodd" clip-rule="evenodd" d="M-117 96H83v26h-200V96z" fill="#2C2C31"/><mask id="b" maskUnits="userSpaceOnUse" x="-117" y="96" width="200" height="26"><path fill-rule="evenodd" clip-rule="evenodd" d="M-117 96H83v26h-200V96z" fill="#fff"/></mask></svg>