<svg width="240" height="240" fill="none" xmlns="http://www.w3.org/2000/svg"><rect x="-136.007" y="75.1897" width="157" height="97" rx="6.5" transform="rotate(-25 -136.007 75.1897)" fill="#305586" stroke="#2C2C31" stroke-width="3"/><path d="M-57.8227 107.671l-14.3945 6.862-.4068.415.3307.146.345.177 18.0264-8.406.5589-.411.5423-.365-.2299-.493-4.7721 2.075zm3.6657-4.448l-.3306-.146-19.0147 8.942-.1746.269-.1439.254.6326.231 9.5381-4.486 9.5833-4.468.2548-.419-.345-.177zm-1.3282-2.607l-.1786-.142-9.3841 4.414-9.3984 4.382-.2527.343-.222.329.1643.111.2095.127 19.2282-8.966.0063-.228.037-.243-.2095-.127zm-13.5205-10.652l-.797.2216-2.7137 1.3404-2.6994 1.3713-.3945.5216-.4089.4908.0429.6553.0121.6696 5.0602 10.2074.0903.033.1212.019.1274-.21.1439-.254-4.8651-10.1116.3885-.8564.3577-.842 6.2819-2.7793.6634.2159.7086.2323.4373.6964.4825.7129 4.1897 8.6628.0575.123.1026.14.5239-.244-.1396-.46-.1251-.43-4.5962-9.3734-.612-.4274-.5955-.4726-.532-.0145-.5012-.0289-.8114.1908zm-.8228-2.7301l-3.7758 1.7982-3.7923 1.8434-.6185.9262-.6637.9097-.1338 1.0003-.1647 1.0146 5.5794 11.8037.2711.099.189-.238.1439-.255-5.1422-10.5446-.1148-.8093-.0696-.7929.2302-.6326.1851-.649.676-.8029.6452-.7886 3.4368-1.6401 3.4204-1.595 1.709-.1966.8318.1748.8011.1892.7002.5363.7147.5671.4824.7129.4661.7581.7267 1.2367 1.9132 4.0223 1.8967 4.0675.3102-.2196.2794-.2054-2.1943-4.8666-1.5335-2.8863-1.5027-2.9007-.7577-.6596-.7886-.6452-1.07-.3639-1.0844-.3947-2.202.4266zm-1.1927-2.5576l-7.2126 3.4384-1.0314 1.0061-1.0171 1.037-.5918 1.0638-.5467 1.0803-.358 1.9676.125.9921.0942 1.0065 5.5404 11.5599.5546-.259-5.4458-11.6786.0581-2.128.4461-1.2959.4605-1.2651.9287-1.1459.9432-1.1151 3.7306-1.8146 3.745-1.7838 1.0723-.275 1.0558-.2297 1.2016.0024 1.1708.0168.8707.4193.84.4336 1.072.8507.8377 1.0724.8685 1.0581 4.9596 9.9922.2423.037.228.0063.0454-.5464-4.6495-9.6491-.924-1.2573-.9547-1.243-2.0864-1.5781-1.027-.2714-1.0125-.2406-1.0825.0921-1.0969.0613-2.0542.5827zM-31.6235 96.2042l.2218.2342.2773-.1293-.1497-.6429-.1354-.6122-7.6299-16.3624.0659-.7436.1111-.7271 1.0069-1.2198 3.1738-1.48 4.5304 9.5546 4.4996 9.5689.5547-.2586-4.4934-9.7969-4.5098-9.7518-.3922-.1172-.378-.0864-1.9598 1.0265-2.005 1.01-.4953.8687-.5404.8522.0244.7764.0388.8073 7.9317 17.0096.2525.2198zm-10.6967 5.1378l.1643.111.3081-.143-.0348-.397-.0492-.427-7.7203-16.3955-.4721-1.0929-.4885-1.0477 2.989-1.3938.9119.0249.8812.0393.3286.222.3121.2671.9362 1.3641 7.5336 15.9948.3162.1151.3328.0699-.0923-.5196-.0779-.4889-8.055-16.9521-1.0719-.8507-2.2799-.0623-1.816.7718-1.7996.7266-.1171.3922-.0864.378 8.9519 19.1977.1951.096zm-2.4406 1.363l.2178-.176.1726-.193-4.9122-10.6147-4.8956-10.6598.1727-.7558 6.2204-2.7505 2.5839.0706.9016.4049.8852.4501.4866.5608.4558.5753 4.1691 8.8602 4.1383 8.8746.1643.1109.2095.1274.1725-.193.187-.1622-8.7897-19.0105.0783-.6367.109-.6511.2611-.6469.2775-.6921.5814-.6838.6267-.6674 1.1628-.8048 1.1937-.8192 2.0316-.8724 2.0461-.8415.3163.1151.3471.1007 10.0707 21.1142.3369-.0821.3677-.0964-4.9306-10.4934-4.9142-10.5385-1.0391-.9411-.5032.0471-.4889.0779-5.5487 2.6624-.2773.1294-.263.1601-.7027.6653-.6883.6961-.526.8831-.557.8974-.0638.6675-.0783.6368-2.7562-1.0032-1.5261.1865-1.481.2029-3.0055 1.439-2.9603 1.4554-.15.4826-.1809.497 4.9552 10.707 4.9244 10.7218.4148.406zm-2.4035 1.121l.1726-.193.2177-.176-5.2446-11.2477-5.2283-11.2925.2797-1.3309.4726-.5955.4583-.6263 5.5774-2.6008 2.5143-.7223 1.1708.0168 1.2016.0024.7579.0967.7271.1112.6843-1.1069.6535-1.0926.904-.7967.8896-.8275 7.6728-3.5779.9037.3289.8893.2981 10.7749 22.6241.3677-.0964.3368-.0821-5.1297-11.0008-5.1605-10.9864-1.0595-1.3066-1.2035-.4892-.7457.01-.7004.0265-6.0396 2.8163-1.1936.8192-1.208.7884-.7233.8625-.7089.8933-.3493.538-.3186.5237-1.0454-.1502-1.0311-.1195-1.2201.1188-1.1893.1044-7.9214 3.7688-.4439.6572-.413.6428-.2181 1.3021 5.2118 11.3377 5.2426 11.3229.4148.407zM-9.28825 82.9005l.64711-.3018.63273-.3325.66355-.3469.69436-.3614-.25863-.5546-1.81806.8478-1.80161.8025-2.7096 1.1885-.9037-.3289-7.6628-16.2721.1645-.4518 1.4417.6782 1.8894.9947 1.7107.8529 1.6799.8673 3.0601 1.5743 3.04561 1.5435 3.22431 1.6852 3.20993 1.6544 1.05983.1811.739544-.3449.09053-.5299.076164-.5607-5.507488-11.6499-2.02828-3.7061-.75167-.3247-.73523-.37-.73125.0409-.7004.0265-4.4989 2.0979.2053.2794.2197.3102 4.8008-2.0136 1.76216.6414 3.43229 6.8779 3.73594 8.0117-.05141.2116-.06578.1807-.8462-.2057-6.56979-3.389-6.60061-3.3746-4.0786-2.1497-1.2036-.4892-1.2178-.52-.7704.3592.0471.5032.0327.4725 7.8126 16.915.5545.3042.571.259 4.30775-1.7837zm-4.24505 5.0557l7.95425-3.8592-.25864-.5546-8.19041 3.5941-1.8648-.781-4.7439-10.0928-4.7274-10.138.0331-.6531.0187-.684.2712-.4642.3021-.4785 1.7256-.8046 2.0168.7852.9735.559 1.0186.5754 8.338 4.3652 1.76822.9762 1.8134.9926 1.38425.555.22193-.3286-4.39692-9.4292-.21568.1006-.2609.0841-3.4533 1.6853-.1418.1787-.1109.1643.2854.1295.3019.0843 1.6168-.7164 1.6331-.7616 1.82905 3.7615 1.7982 3.7758-.10474-.0637-.12118-.0185-4.85693-2.6121-4.8735-2.5669-5.0972-2.7251-.8319-.1749-.877-.1913-1.818.8478-.4439.6572-.4274.6119-.1156 2.0047 4.8773 10.2181 4.8609 10.2633.6428.4131.612.4274 1.6349.288zm14.84839-6.7738l.7025-.1025.83822-.616.20548-.2834.21986-.2526.24668-.6777.21587-.6634-.53564-1.5509-.49045-1.5345-4.47293-9.4313-4.48936-9.3862-.76189-.5075-.73108-.522-1.82395-.0498-3.2992 1.6135-3.2849 1.6443-.2138.5874.2095.1274.1951.0966 6.53891-3.2742.87908.1152.9099.101.53389.5013.56472.487 4.65348 10.0598 4.66993 10.0147-.01661.608-.03098.5772-.45632 1.1131-.63065.2566-.6163.2874-.651084-.1091-.681907-.0947-2.248799-1.2022-2.29397-1.2187-1.58956-.8344-2.35353-1.266-2.3227-1.2803-1.454-.7851-1.4849-.7707-2.8176-1.5372-.3082.1437-.0062.228-.0206.1971 4.206 9.1807.1212.0185.0903.0329 4.74339-2.1368.08015-.15.06578-.1807-.33065-.1459-.3471-.1008-3.94427 1.8393-1.7099-3.667-1.7407-3.6525.2773-.1293.7311.5219.7619.5076.3614.1315.3923.1172 3.0272 1.6647 3.0579 1.6502 4.22647 2.3059 1.13981.5939 1.154171.6248.710647.1563.741455.142.688137-.1333zM15.442 53.8867l.8621 1.8489-1.1093.5172L11.9305 57.7l-3.28067 1.4923-.69212-.2775-.64693-.2611-.52958-1.2161-.54602-1.171.13156-.3614 4.11476-1.9563 4.1291-1.9255.8314 1.8633zm-5.338 5.5278l1.553-.6116 2.759-1.324 2.7753-1.3693.0925-.0431.0781-.0739.1232-.0575.1376-.0266-.4004-.376-.384-.4212-1.8823-4.0367-.6307.2566-.5998.2422-8.19458 3.7461-.21777.1766-.17259.193 1.55185 3.328.50724.3637.49078.4089.43747.1336.45391.0885 1.52219-.5973zm9.977-2.1763l-4.8687 2.2703-4.883 2.2394-1.22015.1188-1.25094.1332-.84204-.3577-.85641-.3884-.75359-.8116-.76795-.8424-1.17012-2.268-1.1393-2.2823.1049-.4991.07408-.4847 5.45624-2.6193 5.44188-2.6502 1.4708-.3857.6613.2919.6777.2467 3.8653 8.2891zm-9.5006 16.4724l.2855.1295 5.1954-2.5352 5.1809-2.566.6883-.6961.6575-.6817.9206-1.4047.1974-.5422.183-.573-.0613-1.0969-.119-.6573-.1354-.6121-6.7987-13.9365-1.1624-.8835-.7312.0408-.7004.0265-11.89441 5.5465-.75616.9528.07583.5649.04502.5792.93606 1.927.96688 1.9125.58514.8526.55433.867.90765.7397.87685.7541 1.66364.3496.86679.0085.89762-.0059 10.44196-4.7191.4066.148 1.0777 2.3111 1.1229 2.3275.0223.8525.0367.8832-.4975 1.5075-.489.6407-.5199.6551-.6533.5297-.639.5606-4.807 2.2416-4.7927 2.2723-.1603.2999-.1152.3163.2403.113zm1.7761 2.3606l5.5938-2.646 5.6103-2.6911 1.4012-1.1786.7624-1.1809.748-1.2116.1832-1.1358.1996-1.181-.0613-1.0969-.0757-1.1277-2.804-5.9328-2.8205-5.8876-2.4798-4.9961-.5647-.487-.5339-.5013-.7538-.2488-.7085-.2323-7.99534 3.6908-8.0405 3.6743-.908157.9487-.275413.6161-.24461.6017.05299 1.4009 2.73012 5.8547.72069.902.73506.9327.77211.6904.80292.676.93033.4665.97552.483 1.07626.1359 1.10708.1215 2.34984-.2704 3.9751-1.8536 4.0202-1.8372.6368.0782.903 2.5802-.2754.6161-.2611.6469-.493.2299-.5095.2751-4.7311 2.2436-4.74747 2.2889-.08015.1499-.03496.1664.17866.1417.22383.1583L20.216 66.2163l.3945-.5216.4253-.536.0906-.5299.107-.5751-1.6094-3.4512-.2752.0533-.2588.0082-8.5931 3.8569-1.37214.1146-1.34131.1003-1.35549-.4934-1.38633-.479-.72899-.5979-.75982-.5836-1.35517-1.6189-2.830699-6.0705.127739-1.3351.456154-.5503.486969-.5647L15.5677 45.3872l1.5775.1648.5338.5013.5791.5178 2.7322 5.7788 2.763 5.7643 1.1352 2.4344 1.0899 2.4179-.0188 1.2468-.0353 1.2919-.479 1.3864-.5098 1.4006-.8445.844-.8136.8296-11.2473 5.2447-.0699.3327-.1008.3471.4971.1809z" fill="#fff"/><path d="M52.559-55.8237l-79.7551 37.1904c-3.754 1.7505-5.3782 6.2129-3.6277 9.96692L31.7238 125.467c1.7505 3.754 6.2128 5.378 9.9669 3.628l79.7553-37.1906c3.754-1.7505 5.378-6.2129 3.627-9.9669L62.526-52.1961c-1.7506-3.754-6.2129-5.3782-9.967-3.6276z" fill="#FFF4D6"/><path d="M52.559-55.8237l-79.7551 37.1904c-3.754 1.7505-5.3782 6.2129-3.6277 9.96692L31.7238 125.467c1.7505 3.754 6.2128 5.378 9.9669 3.628l79.7553-37.1906c3.754-1.7505 5.378-6.2129 3.627-9.9669L62.526-52.1961c-1.7506-3.754-6.2129-5.3782-9.967-3.6276z" fill="#AF87E5"/><path d="M52.559-55.8237l-79.7551 37.1904c-3.754 1.7505-5.3782 6.2129-3.6277 9.96692L31.7238 125.467c1.7505 3.754 6.2128 5.378 9.9669 3.628l79.7553-37.1906c3.754-1.7505 5.378-6.2129 3.627-9.9669L62.526-52.1961c-1.7506-3.754-6.2129-5.3782-9.967-3.6276z" stroke="#2C2C31" stroke-width="3"/><mask id="a" maskUnits="userSpaceOnUse" x="-34" y="-59" width="162" height="191"><path d="M52.559-55.8237l-79.7551 37.1904c-3.754 1.7505-5.3782 6.2129-3.6277 9.96692L31.7238 125.467c1.7505 3.754 6.2128 5.378 9.9669 3.628l79.7553-37.1906c3.754-1.7505 5.378-6.2129 3.627-9.9669L62.526-52.1961c-1.7506-3.754-6.2129-5.3782-9.967-3.6276z" fill="#fff"/><path d="M52.559-55.8237l-79.7551 37.1904c-3.754 1.7505-5.3782 6.2129-3.6277 9.96692L31.7238 125.467c1.7505 3.754 6.2128 5.378 9.9669 3.628l79.7553-37.1906c3.754-1.7505 5.378-6.2129 3.627-9.9669L62.526-52.1961c-1.7506-3.754-6.2129-5.3782-9.967-3.6276z" stroke="#fff" stroke-width="3"/></mask><g mask="url(#a)"><path fill-rule="evenodd" clip-rule="evenodd" d="M33.2957 18.8099C44.3076 13.6749 49.0718.585367 43.9369-10.4265c-5.135-11.0119-18.2245-15.7761-29.2364-10.6412C3.68861-15.9328-1.0756-2.84319 4.05932 8.16869 9.19424 19.1806 22.2838 23.9448 33.2957 18.8099zM76.7986-1.47584C87.8105-6.61077 92.5747-19.7003 87.4398-30.7122S69.2153-46.4883 58.2034-41.3534 42.4273-23.1289 47.5623-12.117C52.6972-1.10513 65.7867 3.65908 76.7986-1.47584z" fill="#fff"/><path d="M52.559-55.8237l-79.7551 37.1904c-3.754 1.7505-5.3782 6.2129-3.6277 9.96692L31.7238 125.467c1.7505 3.754 6.2128 5.378 9.9669 3.628l79.7553-37.1906c3.754-1.7505 5.378-6.2129 3.627-9.9669L62.526-52.1961c-1.7506-3.754-6.2129-5.3782-9.967-3.6276z" stroke="#2C2C31" stroke-width="3"/></g><path d="M17.4921 53.8564c-.1383.6404-.2896 1.1678-.3386 1.1906-.1142.0532-5.0349-10.5419-4.9587-10.6767.0337-.0554.3774-.2554.7211-.4554 1.7336-.9673 4.1716-.8926 5.8415.1757.3882.2361.7198.4787.7274.495.0152.0326-.1079.7057-.2745 1.4984-.1666.7927-.4236 1.9453-.5445 2.5379-.1295.6165-.2852 1.3048-.3397 1.5288-.0707.2316-.2177.8959-.3386 1.4886-.1285.5763-.3571 1.5766-.4954 2.2171zm-4.3838 5.1226c.0478.0174 1.1071-.4368 2.4372-1.0769l2.3578-1.1194.0404-.2968c.0207-.1686.1568-.7285.2678-1.257.1274-.5361.3027-1.3527.3877-1.8094.1013-.4643.2504-1.2091.3517-1.6734.1013-.4643.2429-1.2254.3441-1.6897.085-.4567.2603-1.2733.3877-1.8094.1274-.5361.2864-1.345.3789-1.7854.085-.4567.2243-.8394.2808-.846.2262-.026.5947.6364 2.3063 4.3069l1.7116 3.6706.2751-.0489c.1457-.0282.285-.113.3274-.1924.0794-.2555-3.4394-7.6314-3.9688-8.2982-1.074-1.3661-2.7951-2.3311-4.5447-2.548-1.4125-.1755-2.1813-.0355-3.6006.6263-1.5248.6912-2.3689 1.5217-3.14466 3.095-.41782.8502-.67479 2.0028-.67945 3.0576-.00576 1.0951.12246 1.4126 2.10901 5.6302 1.0433 2.1947 1.9192 4.0306 1.9747 4.0643zM35.3268 47.8437c-.0827.0783-.6384.3772-1.2181.6674-.8983.4586-1.1343.5488-1.7803.6116-1.0015.1096-2.0215.0092-2.8739-.3281-.7731-.2949-1.6603-.8346-2.0756-1.2566-.2978-.298-1.175-1.4977-1.1489-1.5695.0174-.0478 2.4242-1.19 5.3607-2.5593l5.3269-2.5038.1467.2295c.2239.3524.3878 1.4279.3777 2.3859-.0178 1.5376-.8197 3.1826-2.1152 4.3229zm-2.0971 1.8915c2.5807-.7267 4.3059-2.5639 4.859-5.1257.1024-.5046.1786-.9373.1558-.9863-.0152-.0326-.0173-.2501-.0031-.4752.011-.4023-.1399-1.3647-.3669-2.1923l-.1086-.4459.9059-.4423c1.4606-.701 1.3617-.6151 1.1389-1.0077l-.1924-.3274-.881.4108c-1.5976.7053-1.4279.6857-1.7377.2344-.1631-.2219-.3022-.4351-.3174-.4677-.0315-.025-.3848-.3568-.8012-.7386-.7001-.607-.898-.7332-1.9984-1.1337-.9568-.3482-1.4211-.4495-2.0811-.4595-1.0059-.0275-1.0385-.0123-2.0107.2028-.7298.1814-1.5128.5465-2.2763 1.0813-1.4781 1.0467-2.5814 3.1103-2.682 5.0242-.0623 1.1015.1429 2.1379.6298 3.1819.9117 1.9979 2.5914 3.3 4.8411 3.7802.8166.1754 2.09.1377 2.9263-.1133zM52.3511 39.925c-.1566.1327-.7211.4555-1.2758.7141l-.9951.464-2.3658-5.0735 1.0277-.4792c.9299-.4336 1.1246-.4847 1.6563-.4943.8373.0068 1.1483.1199 1.7865.6367.7719.6331 1.0903 1.3585 1.0073 2.3306-.0524.7394-.369 1.4233-.8411 1.9016zm-6.9335 4.1269c.1978.1262 7.3291-3.2786 7.6456-3.6645 1.1161-1.3546 1.3209-2.6616.6591-4.0809-.5933-1.2724-1.7806-2.0296-3.1975-2.0442-.6198-.0089-.7982.0346-1.5812.3997-.4894.2282-.9125.3858-.9603.3684-.0392-.0414.0219-.5068.1417-1.0591.1197-.5524.3125-1.4169.4072-1.9377.2505-1.2091.7024-3.3066.7644-3.5143.123-.3751.2472-1.0885.2016-1.1863-.0229-.049-.2251-.0142-.4372.0847-.2937.1369-.4013.2467-.4308.4391-.0196.1284-.1306.6568-.2569 1.1526-.282 1.1842-.6195 2.6325-.9354 4.17-.1557.6883-.3168 1.2798-.3581 1.3189-.074.0544-.3957-.5503-1.2488-2.3372-.6401-1.3301-1.1889-2.4644-1.2193-2.5297-.0456-.0979-.6079.1445-2.5492 1.0497l-2.496 1.1639 2.8462 6.061c1.5757 3.3367 2.9255 6.1035 3.0049 6.1459zM64.4394 34.6854c.3718.2437.6893.4134.7306.3743.0414-.0392.1361-.56.2016-1.1863.1886-1.8954.3163-3.3253.3534-3.7994.011-.4023.1146-1.543.2771-3.0686.0392-.2566.1091-1.0439.1767-1.7507.06-.7231.1626-1.8235.228-2.4499.0578-.6426.1047-1.1809.0819-1.2298-.0152-.0327.0175-.3458.0676-.7068.0338-.3534.0437-.7155.0133-.7808-.0456-.0979-.7058.1901-3.5204 1.5224l-3.4759 1.6606 2.368 4.993c1.8573 3.9403 2.343 5.0246 2.2299 5.0376-.0805-.0022-.3425-.1382-.5947-.3383-.4903-.3275-.6088-.4113-1.8972-1.3001-.4033-.2687-.861-.6113-1.0263-.7528-.1652-.1414-.4185-.3013-.5458-.3611-.1435-.0523-.3326-.2024-.4348-.2938-.0935-.1153-.7643-.6168-1.4916-1.1118-.7274-.495-1.5808-1.09-1.8972-1.3-.324-.2263-.648-.4525-.735-.5113-.063-.05-.3555-.2513-.6403-.4362-1.4308-.9813-1.2633-.9204-1.7201-.7074-.2447.1141-.4013.2468-.3785.2957.0228.0489.212.1991.4338.334.2142.1186.4033.2687.4185.3013.0152.0326.2446.1839.4904.3275.262.136.4751.2948.4903.3274.0228.049.2598.2165.5055.3601.2534.1599.5621.3536.6643.445.1022.0913.4338.3339.7426.5276.7512.5037 1.5416 1.0487 2.0309 1.4164.2207.1751.6871.4939 1.0274.7126.3403.2186.7034.4862.7969.6015.0771.1229.3217.3068.512.4167.4197.2611 1.2025.7898 1.6602 1.1325.1652.1414.5131.3764.7501.5439.261.1762.7513.5037 1.1068.755zM24.6862 77.4726s.4331-1.1155.6059-1.9376c0 0-.9644-1.6423-1.4947-2.8647 0 0-1.1076-.3309-2.2971-.809 0 0-.7954.4239-1.5422.8383 0 0-.439-1.0266-.7614-1.8031 0 0 1.4377-.5513 3.1974-1.2924 0 0-.4123-.8273-.7752-1.6908 0 0-1.0441.4869-4.5765 2.0546 0 0 .5194 1.4261 1.6104 3.9362 0 0 .9163.2613 1.9471.4559 0 0 .7345-.3558 1.6096-.7506 0 0 .7441 1.2551 1.4129 2.5189 0 0-.3589.1673-1.6973.8179 0 0-.1833-.5633-.3629-1.2607 0 0-.8903.3622-1.7654.757 0 0 .3897.8643.565 1.3254 0 0 1.0554.4744 1.9528.8371 0 0 1.0956-.6035 2.3716-1.1324zM28.7787 66.521c-1.1098-.4491-2.3529-.9286-2.3529-.9286-1.3124.6782-2.2869 1.1723-2.2869 1.1723-.2561.9271-.5987 2.2653-.5987 2.2653.789 1.5784 1.1338 2.3179 1.1338 2.3179.9354-.4361 1.8344-.9215 1.8344-.9215-.7774-1.4117-1.2361-2.1115-1.2361-2.1115 1.4617-.6418 1.7445-.7737 1.7445-.7737.8215 1.9605 1.2539 3.2286 1.2539 3.2286-.907.3832-1.6205.7556-1.6205.7556-.3962 1.1381-.8372 2.1514-.8372 2.1514.7593 1.2877 1.4484 2.595 1.4484 2.595 2.5115-1.1447 4.7947-2.1828 4.7947-2.1828-.3144-.873-.6773-1.7365-.6773-1.7365-1.7329.9405-3.3063 1.7404-3.3063 1.7404-.0985-.1262-.5977-1.1115-.5977-1.1115.8468-.342 1.6284-.6535 1.6284-.6535.4984-1.146.8916-2.1767.8916-2.1767-.6287-1.9445-1.2161-3.6302-1.2161-3.6302zM35.3317 63.4653c-1.1098-.4491-2.3529-.9286-2.3529-.9286-1.3124.6781-2.2868 1.1723-2.2868 1.1723-.2562.9271-.5988 2.2652-.5988 2.2652.789 1.5785 1.1339 2.318 1.1339 2.318.9353-.4361 1.8344-.9216 1.8344-.9216-.7775-1.4117-1.2362-2.1114-1.2362-2.1114 1.4617-.6419 1.7445-.7737 1.7445-.7737.8215 1.9605 1.2539 3.2285 1.2539 3.2285-.907.3833-1.6205.7557-1.6205.7557-.3961 1.138-.8372 2.1514-.8372 2.1514.7594 1.2877 1.4484 2.595 1.4484 2.595 2.5116-1.1447 4.7947-2.1829 4.7947-2.1829-.3143-.8729-.6773-1.7364-.6773-1.7364-1.7329.9405-3.3063 1.7403-3.3063 1.7403-.0985-.1261-.5977-1.1115-.5977-1.1115.8468-.3419 1.6284-.6534 1.6284-.6534.4984-1.146.8916-2.1767.8916-2.1767-.6287-1.9445-1.2161-3.6302-1.2161-3.6302zM38.7733 69.3281s1.2091.5484 2.2015.5755c0 0 1.1224-.6028 2.4695-1.178 0 0 .3607-1.2142.7974-2.0666 0 0-.7783-1.1862-1.6544-2.5255 0 0-.7524-.1655-1.3316-.3853 0 0 .3148-.5175.6876-1.1945 0 0-.5658-1.0999-.9824-1.9649 0 0-.8199-.2533-2.0971-.664 0 0-1.4573.6796-2.7958 1.3302 0 0 .4819.8346 1.0079 1.622 0 0 1.3719-.6926 2.5269-1.3107 0 0 .3666.7294.7585 1.7119 0 0-.8121.4448-1.5857.8586 0 0 .3289.7337.6657 1.5697 0 0 .8411-.326 1.801-.681 0 0 .6869 1.1892 1.2774 2.3703 0 0-.9687.4781-2.078.9954 0 0-.2456-.6402-.615-1.4609 0 0-.9339.3825-1.7706.7462 0 0 .2985.6684.7172 1.6516zM47.6611 55.955c-1.3253.5651-2.8603 1.3338-2.8603 1.3338.4369.9085.9398 1.7597.9398 1.7597.5894-.3543 1.11-.5441 1.11-.5441 1.2243 3.1365 2.8933 7.2837 2.8933 7.2837.8809-.4108 1.7394-.7847 1.7394-.7847-2.1097-4.7229-3.8222-9.0484-3.8222-9.0484zM51.4421 54.1919c-1.3253.565-2.8603 1.3338-2.8603 1.3338.4369.9084.9398 1.7597.9398 1.7597.5895-.3543 1.11-.5441 1.11-.5441 1.2243 3.1365 2.8933 7.2836 2.8933 7.2836.8809-.4107 1.7394-.7846 1.7394-.7846-2.1097-4.7229-3.8222-9.0484-3.8222-9.0484zM58.4426 52.6885c-1.1098-.4491-2.353-.9286-2.353-.9286-1.3123.6782-2.2868 1.1723-2.2868 1.1723-.2562.9271-.5987 2.2653-.5987 2.2653.789 1.5784 1.1338 2.318 1.1338 2.318.9353-.4362 1.8344-.9216 1.8344-.9216-.7774-1.4117-1.2361-2.1114-1.2361-2.1114 1.4617-.6419 1.7444-.7738 1.7444-.7738.8215 1.9605 1.254 3.2286 1.254 3.2286-.9071.3832-1.6205.7556-1.6205.7556-.3962 1.1381-.8372 2.1514-.8372 2.1514.7593 1.2877 1.4484 2.595 1.4484 2.595 2.5115-1.1446 4.7947-2.1828 4.7947-2.1828-.3144-.873-.6773-1.7365-.6773-1.7365-1.7329.9405-3.3063 1.7404-3.3063 1.7404-.0986-.1262-.5978-1.1115-.5978-1.1115.8469-.342 1.6285-.6535 1.6285-.6535.4983-1.146.8916-2.1767.8916-2.1767-.6287-1.9445-1.2161-3.6302-1.2161-3.6302zM61.8842 58.5513s1.209.5484 2.2015.5756c0 0 1.1224-.6029 2.4695-1.1781 0 0 .3606-1.2142.7973-2.0666 0 0-.7782-1.1862-1.6543-2.5254 0 0-.7524-.1656-1.3316-.3854 0 0 .3148-.5175.6876-1.1945 0 0-.5659-1.0999-.9825-1.9649 0 0-.8198-.2532-2.097-.6639 0 0-1.4574.6795-2.7958 1.3302 0 0 .4818.8345 1.0079 1.622 0 0 1.3718-.6927 2.5268-1.3107 0 0 .3666.7294.7585 1.7118 0 0-.812.4449-1.5857.8586 0 0 .3289.7337.6658 1.5697 0 0 .841-.326 1.801-.6809 0 0 .6869 1.1891 1.2773 2.3702 0 0-.9686.4782-2.078.9955 0 0-.2455-.6402-.615-1.461 0 0-.9338.3825-1.7705.7462 0 0 .2984.6685.7172 1.6516zM73.8507 50.3893c.4435.8657.9035 1.9091.9035 1.9091-.9854.4992-1.556.752-1.556.752-.5187-1.0557-.9012-1.9895-.9012-1.9895.9295-.4202 1.5537-.6716 1.5537-.6716zm-3.5266-3.3604c1.2014-.547 1.8358-.7766 1.8358-.7766.4629 1.1347.9635 2.4636.9635 2.4636-.9295.4202-1.5712.7194-1.5712.7194-.6543-1.2043-1.2281-2.4064-1.2281-2.4064zm3.8721 2.1136c.1452-.5973.4737-1.2272.4737-1.2272-.3338-1.1419-.8394-2.4817-.8394-2.4817-.98-.4831-2.129-.8742-2.129-.8742-1.2702.5129-2.3208 1.0425-2.3208 1.0425-.3084 1.0707-.8061 2.1898-.8061 2.1898l1.3427 2.3398s.5849.2039 1.1887.5049c-.2039.585-.5687 1.1656-.5687 1.1656.5717 1.084 1.1419 2.0229 1.1419 2.0229.8466.4526 1.9854.822 1.9854.822.9629-.4623 1.991-.9549 1.991-.9549.4251-1.0192.7458-1.9499.7458-1.9499l-.8033-2.2338s-.7691-.1445-1.4019-.3658zM76.7766 44.5894c.9361-.463 2.0323-.8947 2.0323-.8947 1.1773 2.4963 2.4219 5.4777 2.4219 5.4777-1.1195.4955-1.8423.8193-1.8423.8193-1.0969-2.2955-2.6119-5.4023-2.6119-5.4023zm6.0181 3.9331c-1.0823-2.6333-2.1913-5.6646-2.1913-5.6646-1.1938-.7144-2.4623-1.2484-2.4623-1.2484-1.3225.6564-2.4361 1.136-2.4361 1.136-.4216 1.2823-.6764 2.5531-.6764 2.5531 1.5236 2.9836 2.7176 5.4589 2.7176 5.4589 1.1706.5796 2.3334.8583 2.3334.8583 1.2818-.5448 2.0047-.8686 2.0047-.8686.3164-1.1671.7104-2.2247.7104-2.2247zM86.5957 44.4462c.4434.8658.9034 1.9091.9034 1.9091-.9853.4992-1.5559.752-1.5559.752-.5188-1.0556-.9013-1.9895-.9013-1.9895.9295-.4202 1.5538-.6716 1.5538-.6716zm-3.5266-3.3604c1.2014-.547 1.8358-.7766 1.8358-.7766.4629 1.1347.9634 2.4637.9634 2.4637-.9295.4202-1.5711.7194-1.5711.7194-.6543-1.2044-1.2281-2.4065-1.2281-2.4065zm3.872 2.1136c.1452-.5973.4738-1.2272.4738-1.2272-.3339-1.1418-.8395-2.4817-.8395-2.4817-.98-.4831-2.1289-.8742-2.1289-.8742-1.2703.5129-2.3209 1.0425-2.3209 1.0425-.3084 1.0707-.806 2.1899-.806 2.1899l1.3426 2.3398s.585.2038 1.1888.5049c-.2039.5849-.5687 1.1655-.5687 1.1655.5716 1.084 1.1419 2.023 1.1419 2.023.8466.4526 1.9854.8219 1.9854.8219.9628-.4622 1.991-.9549 1.991-.9549.4251-1.0191.7458-1.9499.7458-1.9499l-.8033-2.2338s-.7691-.1445-1.402-.3658zM89.5216 38.6463c.936-.463 2.0323-.8947 2.0323-.8947 1.1773 2.4963 2.4218 5.4777 2.4218 5.4777-1.1194.4955-1.8423.8194-1.8423.8194-1.0969-2.2955-2.6118-5.4024-2.6118-5.4024zm6.0181 3.9332c-1.0823-2.6334-2.1913-5.6647-2.1913-5.6647-1.1938-.7144-2.4623-1.2483-2.4623-1.2483-1.3225.6564-2.4362 1.136-2.4362 1.136-.4216 1.2823-.6764 2.553-.6764 2.553 1.5237 2.9836 2.7177 5.4589 2.7177 5.4589 1.1706.5796 2.3333.8583 2.3333.8583 1.2819-.5447 2.0048-.8686 2.0048-.8686.3164-1.167.7104-2.2246.7104-2.2246zM37.9055 115.413l1.9938-.93.4649.997-.9969.465.4648.997 2.4924-1.163 1.3946 2.991-3.4892 1.627-2.3244-4.984zm2.3915 2.526l.4649.997 1.4954-.698-.4649-.997-1.4954.698zM42.0334 113.488l2.9908-1.395.4649.997-2.9908 1.395-.4649-.997zm.9298 1.994l2.9908-1.395.4649.997-2.9909 1.395-.4648-.997zm.9297 1.994l2.9908-1.395.4649.997-2.9908 1.394-.4649-.996zM46.5946 113.788l2.9908-1.394.4649.997-2.9908 1.394-.4649-.997zm.9297 1.994l2.9909-1.394.4648.996-2.9908 1.395-.4649-.997zM49.2963 110.101l2.9908-1.395.4648.997-1.9938.93 1.3946 2.991.997-.465.4648.997-1.9938.93-2.3244-4.985zM52.9277 108.408l3.9877-1.86.4649.997-1.4954.697 1.8595 3.988-.9969.465-1.8595-3.988-1.4954.698-.4649-.997z" fill="#fff"/><path opacity=".5" fill-rule="evenodd" clip-rule="evenodd" d="M89.4626 75.3723l18.4214 13.4773-19.9385 9.2976 1.5171-22.7749z" fill="#fff"/><path d="M51.0723 47.4427L171.954-8.92559 197.365.32319l.655 1.40519 2.857 6.12639 8.904 19.09453 18.599 39.8856c1.049 2.2498.075 4.9206-2.18 5.9721L92.0663 135.355c-2.2525 1.05-4.9299.075-5.9802-2.177L48.8957 53.4228c-1.0503-2.2524-.0758-4.9298 2.1766-5.9801z" fill="#FFF4D6"/><path d="M51.0723 47.4427L171.954-8.92559 197.365.32319l.655 1.40519 2.857 6.12639 8.904 19.09453 18.599 39.8856c1.049 2.2498.075 4.9206-2.18 5.9721L92.0663 135.355c-2.2525 1.05-4.9299.075-5.9802-2.177L48.8957 53.4228c-1.0503-2.2524-.0758-4.9298 2.1766-5.9801z" fill="#FFEA56"/><path d="M51.0723 47.4427L171.954-8.92559 197.365.32319l.655 1.40519 2.857 6.12639 8.904 19.09453 18.599 39.8856c1.049 2.2498.075 4.9206-2.18 5.9721L92.0663 135.355c-2.2525 1.05-4.9299.075-5.9802-2.177L48.8957 53.4228c-1.0503-2.2524-.0758-4.9298 2.1766-5.9801z" stroke="#2C2C31" stroke-width="3"/><path fill="#2C2C31" d="M75.8511 114.779l145.009246-67.618922 8.029747 17.219848-145.009246 67.618922z"/><path d="M81.0912 94.5937c.1305.1377.3299.0448 1.5902-.565l1.4332-.7125-2.6105-5.6457c-1.4454-3.0995-2.6347-5.7447-2.6589-5.8438-.0217-.1885.0968-.2658 1.0019-.6437 1.421-.5965 2.262-.5914 2.8176.0322.1473.1741 1.2401 2.4229 2.5756 5.2869 1.6482 3.5346 2.3776 5.004 2.4754 5.0246.232.0242 2.5243-1.0227 2.754-1.2401l.1933-.2005-2.4016-5.1031c-1.4877-3.1902-2.3896-5.2191-2.4113-5.4076-.0204-.5643.2806-1.1019.8825-1.5149.6393-.4746 1.7993-1.0156 1.9225-.9406.0701.0555 2.9078 5.9043 5.3783 11.1077l.1521.3263 2.9727-1.3862-.3707-.8423c-2.0865-4.5218-5.936-12.6351-6.093-12.7826-.122-.1196-.4397-.2804-.7417-.3602l-.5328-.1488-2.5027 1.2111c-2.7564 1.3295-2.9026 1.4418-3.733 2.6897-.3276.5279-.3457.5363-.684.4734-.5788-.1053-1.6891-.073-2.3465.0791-.3963.0965-1.392.5167-2.7793 1.1856-1.977.9661-2.1679 1.0772-2.3468 1.4033-.4425.8022-.5245.5315 2.8649 7.8001 1.6904 3.6252 3.1201 6.6438 3.1986 6.7176zM101.378 71.9817c.13.1377.302.0798 1.679-.5626.834-.3888 1.542-.7631 1.535-.826.019-.0531-.177-.3806-.427-.7275-.25-.3468-.457-.6477-.447-.6743.027-.035-.368-.3142-.833-.6491-.923-.6068-1.58-.7858-2.833-.7753-1.011.0082-1.9052.3148-4.6604 1.5996-2.3383 1.0903-2.5655 1.2183-2.5619 1.4153.0349.3588 1.3077 2.8989 1.5034 2.9401.0882.0471 1.2652-.4576 2.8156-1.2026 3.2623-1.5214 3.3253-1.5287 4.2293-.5376zm-4.2688 7.5514c.2331-.0204 9.3238-4.2816 9.4988-4.4737.074-.0785-.042-.4217-.542-1.4464l-.67-1.3426-4.874 2.229c-2.6735 1.2244-4.8317 2.2749-4.8148 2.3112-.0012.0447.2765.6875.5964 1.421.5216 1.2133.5905 1.3136.8056 1.3015zm2.5947 5.8958l.1788.336 2.7373-1.2763c1.522-.71 3.001-1.466 3.32-1.6809 1.104-.7573 1.892-2.0958 2.028-3.4611.091-.7043-.213-2.3501-.457-2.5894-.106-.0834-.431.0241-1.663.5988l-1.541.7185.083.557c.077.4495.046.6187-.214.9605-.271.4132-.379.4639-3.044 1.7064-1.5044.7015-2.7201 1.3125-2.6947 1.3669.1678.4072 1.1483 2.5099 1.2666 2.7636zM112.135 80.0293c.062.0375.786-.2559 1.638-.6532l1.522-.71-5.545-11.8907 1.605-.7704c.888-.4142 1.831-.8537 2.111-.9624.96-.4032.949-.3319.137-2.0721l-.718-1.5407-6.725 3.1359-.254.4493c-.552.8976-.701.4372 2.901 8.1143 1.777 3.7617 3.267 6.8625 3.328 6.9zM126.561 73.3244c.84-.2813 4.91-2.2012 5.104-2.4017.073-.0785-.06-.458-.619-1.6096l-.746-1.5057-2.617 1.1543c-2.428 1.088-2.618 1.1543-2.983 1.0817-.204-.0592-.495-.2103-.616-.3747-.147-.174-.951-1.8513-1.812-3.7449l-1.571-3.4161.135-.3721c.138-.4616.697-.9205 1.621-1.3516.943-.4395 1.653-.5722 2.095-.3812.319.1161.423.2442.855 1.1239.485.9438.51.9982.39 1.4513-.178.6125-.361.7864-1.386 1.2863-.471.2198-.881.477-.937.5471-.047.0882.137.5764.628 1.583l.73 1.4694 1.086-.4624c1.177-.5047 1.988-1.0373 2.469-1.6147.804-.9265 1.122-1.7589 1.171-2.9297.032-.5002-.05-.7708-.58-2.0022-.345-.7879-.813-1.6954-1.036-2.0326-1.051-1.4961-2.66-2.2022-4.527-1.9937-.718.0699-.998.1785-2.412.8378-.942.4395-1.751.8827-1.989 1.082-1.072.9192-1.771 2.2601-1.793 3.3959-.024 1.2251.025 1.3786 1.902 5.4026 2.172 4.6584 2.387 4.9774 3.79 5.7137 1.031.5561 2.212.5794 3.648.0639zM144.684 61.5415l-.102-.2175-9.898 4.6597.692 1.531c.615 1.4127.684 1.513.855 1.455 1.095-.4443 9.698-4.522 9.727-4.6017.019-.0532-.224-.6683-.563-1.3486-.339-.6803-.652-1.351-.711-1.4779zm-8.397-10.3402c-1.23.1543-3.471 1.3099-4.392 2.269-.415.436-.918 1.4871-1.072 2.1987-.269 1.3616-.213 1.5779 1.596 5.4569l1.598 3.4258 1.448-.6315c.925-.431 1.478-.7112 1.517-.8175.067-.1413-.21-.8289-1.343-3.2578-1.665-3.5709-1.665-3.5709-.913-4.2303.514-.4602 1.412-.901 1.985-.9479.278-.0193.58.0606.809.2189.333.2417.461.4689 1.808 3.2616.795 1.6591 1.473 3.0645 1.543 3.1201.087.0919.44-.0506 1.555-.5928l1.451-.7209-3.203-6.8698-.646-.5813c-1.109-1.0056-2.403-1.4615-3.741-1.3012zM153.078 60.9813c1.583-.6278 3.624-1.6458 3.829-1.9175.093-.1317.245-.4676.352-.7599.098-.3105.428-1.2589.729-2.1275.301-.8687.51-1.6503.476-1.7228-.093-.1994-2.922-1.1089-3.121-1.0159-.091.0423-.204.2271-.245.4228-.041.1957-.257.9146-.491 1.5972l-.392 1.2419-2.954 1.3778-.505-.1838c-.434-.1729-.539-.2563-.742-.6914-.127-.2719-.821-1.7135-1.532-3.1914-1.473-3.0645-1.571-3.4162-1.214-4.0238.224-.3697.325-.4385 2.047-1.2415 1.504-.7015 1.866-.8259 2.241-.8245.492.0134.78.2986.654.6441-.039.1064-.292.8421-.564 1.631-.28.7708-.477 1.4365-.452 1.4908.059.1269 2.956 1.1814 3.083 1.1222.127-.0592 1.637-4.2501 1.637-4.5812.044-1.6093-2.182-3.6386-4.12-3.7721-.982-.0716-1.523.0926-3.862 1.1829-1.921.896-2.249 1.0928-2.78 1.5615-1.147 1.0423-1.718 2.6105-1.464 4.1027.123.7371.308 1.1806 1.805 4.3442 1.59 3.4077 1.666 3.5709 2.222 4.1498.748.7988 1.293 1.1627 2.127 1.436 1.09.3519 1.879.2929 3.236-.2516zM165.511 43.0249l.437 1.0319-1.786.855c-.989.483-1.849.8621-1.902.8427-.16-.058-.952-1.8513-1.046-2.337-.09-.6199.103-.8204 1.354-1.4036 1.232-.5747 1.565-.6194 2.136-.2458.316.2055.428.3964.807 1.2568zm2.655 5.6469l.461 1.131-1.822.8719c-.997.4648-1.848.8174-1.901.798-.062-.0374-.342-.5909-.636-1.27l-.55-1.1782 1.885-.8791c1.65-.7691 1.894-.8609 1.998-.7328.06.0822.304.6526.565 1.2592zm-3.813 6.9197c.431-.0688 7.201-3.2034 7.73-3.5826.621-.4662.828-1.1585.582-1.9705-.124-.3613-1.162-2.6802-2.338-5.155-2.31-4.8591-2.49-5.1503-3.532-5.9662-.596-.4726-.985-.6443-1.829-.8463-1.298-.3218-2.621-.0358-4.501.9955-1.462.7922-2.19 1.5507-2.55 2.6235-.293.8868-.337 1.8341-.101 2.7174.201.8107 4.605 10.2545 4.987 10.6944.303.3662.995.573 1.552.4898zM180.055 48.38c.84-.2813 4.91-2.2012 5.103-2.4017.074-.0785-.059-.4579-.618-1.6096l-.746-1.5057-2.618 1.1544c-2.428 1.0879-2.617 1.1543-2.982 1.0817-.204-.0593-.495-.2104-.616-.3748-.148-.174-.952-1.8513-1.813-3.7449l-1.571-3.4161.136-.3721c.138-.4615.696-.9205 1.62-1.3516.943-.4395 1.653-.5722 2.096-.3812.319.1161.422.2442.855 1.124.484.9437.509.9981.39 1.4512-.178.6125-.362.7864-1.387 1.2863-.471.2198-.881.477-.936.5471-.047.0882.136.5764.628 1.583l.729 1.4694 1.086-.4624c1.177-.5047 1.988-1.0373 2.469-1.6147.804-.9265 1.122-1.7589 1.172-2.9297.031-.5002-.051-.7708-.581-2.0022-.345-.7879-.812-1.6954-1.036-2.0326-1.05-1.4961-2.66-2.2022-4.526-1.9937-.718.0699-.999.1785-2.412.8378-.943.4395-1.751.8827-1.989 1.082-1.072.9192-1.771 2.2601-1.793 3.3959-.025 1.2251.025 1.3786 1.901 5.4026 2.172 4.6584 2.387 4.9775 3.79 5.7137 1.032.5561 2.212.5794 3.649.0639zM190.189 43.4117l.525.0859 2.774-1.2932c1.54-.7184 3.001-1.4659 3.284-1.664 1.113-.7838 1.95-2.2552 2.009-3.4525.057-1.439-.619-3.2202-1.576-4.1859-1.055-1.0309-2.429-1.5158-3.882-1.3676-.637.0541-.989.1519-2.076.6591l-1.287.6001 1.437 3.0814 1.058-.4274c.571-.2439 1.175-.4153 1.309-.4116 1.125.0934 1.824 1.3562 1.27 2.2984-.243.3781-.325.4385-1.973 1.163l-1.703.7498-2.056-4.3152-2.038-4.3237 1.631-.7607c2.012-.9383 2.326-.9744 2.991-.4015.514.4883.64.4738 2.337-.3835l1.115-.5422-.313-.6707c-.272-.5353-.453-.7818-1.048-1.2544-.866-.7216-1.539-.9816-2.71-1.0315-1.26-.0523-2.171.2181-4.736 1.3917-2.32 1.0819-3.039 1.5276-3.241 2.041-.315.743-.349.6705 2.821 7.4678 3.271 7.0148 3.151 6.8058 4.078 6.9474z" fill="#326BBC"/><rect x="127.993" y="34.8326" width="99" height="157" rx="4.5" transform="rotate(-25 127.993 34.8326)" fill="#49ACAE" stroke="#2C2C31" stroke-width="3"/><rect x="178.202" y="22.7274" width="21.2967" height="27.972" rx="6" transform="rotate(-25 178.202 22.7274)" fill="#EDE39B"/><rect x="204.045" y="59.5032" width="25" height="25" rx="12.5" transform="rotate(-25 204.045 59.5032)" fill="#fff"/><path fill-rule="evenodd" clip-rule="evenodd" d="M223.404 71.4403c3.253-1.5171 4.661-5.3845 3.144-8.638-1.518-3.2535-5.385-4.6611-8.638-3.144-3.254 1.5172-4.662 5.3845-3.144 8.638 1.517 3.2535 5.384 4.6612 8.638 3.144z" fill="#10243B"/><rect x="165.98" y="77.2532" width="25" height="25" rx="12.5" transform="rotate(-25 165.98 77.2532)" fill="#fff"/><path fill-rule="evenodd" clip-rule="evenodd" d="M185.339 89.1903c3.254-1.5172 4.661-5.3846 3.144-8.6381-1.517-3.2535-5.384-4.6611-8.638-3.1439-3.253 1.5171-4.661 5.3845-3.144 8.638 1.517 3.2535 5.385 4.6611 8.638 3.144z" fill="#10243B"/><path fill-rule="evenodd" clip-rule="evenodd" d="M219.978 114.966c5.506-2.567 7.888-9.112 5.321-14.618-2.568-5.5058-9.113-7.8879-14.619-5.3205-5.506 2.5675-7.888 9.1125-5.32 14.6185 2.567 5.506 9.112 7.888 14.618 5.32z" fill="#DD3A1A"/><path fill-rule="evenodd" clip-rule="evenodd" d="M215.314 105.003s13.638-11.2277 13.257-11.8304c-4.514-7.1537-13.791-9.9874-21.709-6.2953-7.845 3.6581-11.64 12.4567-9.202 20.4537.23.755 17.654-2.328 17.654-2.328z" fill="#F4BE31"/><path fill-rule="evenodd" clip-rule="evenodd" d="M224.052 97.6989c-3.876 3.3451-8.741 7.3061-8.741 7.3061s-6.156 1.125-11.224 1.887c-.681-4.764 1.873-9.6634 6.579-11.8581 4.743-2.2115 10.184-.9828 13.386 2.665z" fill="#F17A00"/></svg>